ISO-10303-21;
HEADER;
FILE_DESCRIPTION (( 'STEP AP214' ),
    '1' );
FILE_NAME ('2nd Iteration Foam Structure FOAM CUT CUTOUT.STEP',
    '2026-04-25T15:17:18',
    ( '' ),
    ( '' ),
    'SwSTEP 2.0',
    'SolidWorks 2025',
    '' );
FILE_SCHEMA (( 'AUTOMOTIVE_DESIGN' ));
ENDSEC;

DATA;
#1 = CARTESIAN_POINT ( 'NONE',  ( 0.7633000000000003116, -0.05000000000000004441, 20.11499999999999844 ) ) ;
#2 = LINE ( 'NONE', #82, #45 ) ;
#3 = EDGE_CURVE ( 'NONE', #1028, #374, #461, .T. ) ;
#4 = CARTESIAN_POINT ( 'NONE',  ( 0.5132999999999983132, 0.7632999999999999785, 20.21499999999999986 ) ) ;
#5 = CARTESIAN_POINT ( 'NONE',  ( 0.7632999999999999785, -1.018589759999999789, 20.21499999999999986 ) ) ;
#6 = DIRECTION ( 'NONE',  ( -0.000000000000000000, -0.000000000000000000, -1.000000000000000000 ) ) ;
#7 = DIRECTION ( 'NONE',  ( 0.000000000000000000, 1.000000000000000000, 0.000000000000000000 ) ) ;
#8 = ADVANCED_FACE ( 'NONE', ( #106 ), #204, .F. ) ;
#9 = DIRECTION ( 'NONE',  ( -0.000000000000000000, -0.000000000000000000, -1.000000000000000000 ) ) ;
#10 = DIRECTION ( 'NONE',  ( -0.000000000000000000, -0.000000000000000000, -1.000000000000000000 ) ) ;
#11 = CARTESIAN_POINT ( 'NONE',  ( -0.7749999999999974687, 1.654048030000000002, 20.21499999999999986 ) ) ;
#12 = AXIS2_PLACEMENT_3D ( 'NONE', #722, #306, #558 ) ;
#13 = DIRECTION ( 'NONE',  ( 1.000000000000000000, 5.613001836170659289E-16, 0.000000000000000000 ) ) ;
#14 = ADVANCED_FACE ( 'NONE', ( #543 ), #697, .F. ) ;
#15 = VECTOR ( 'NONE', #883, 39.37007874015748143 ) ;
#16 = CARTESIAN_POINT ( 'NONE',  ( 1.500000000000001110, -1.268589759999999789, 0.000000000000000000 ) ) ;
#17 = CIRCLE ( 'NONE', #138, 0.2499999999999999167 ) ;
#18 = EDGE_CURVE ( 'NONE', #738, #520, #276, .T. ) ;
#19 = PLANE ( 'NONE',  #349 ) ;
#20 = DIRECTION ( 'NONE',  ( -0.000000000000000000, -0.000000000000000000, -1.000000000000000000 ) ) ;
#21 = AXIS2_PLACEMENT_3D ( 'NONE', #754, #345, #666 ) ;
#22 = VECTOR ( 'NONE', #416, 39.37007874015748143 ) ;
#23 = CARTESIAN_POINT ( 'NONE',  ( -0.5000000000000000000, 0.8883000000000008667, 20.21499999999999986 ) ) ;
#24 = ORIENTED_EDGE ( 'NONE', *, *, #1024, .T. ) ;
#25 = CARTESIAN_POINT ( 'NONE',  ( 1.375000000000001332, -2.625000000000000000, 20.21499999999999986 ) ) ;
#26 = ORIENTED_EDGE ( 'NONE', *, *, #478, .F. ) ;
#27 = CARTESIAN_POINT ( 'NONE',  ( -0.4375000000000000000, 0.000000000000000000, 20.21499999999999986 ) ) ;
#28 = VECTOR ( 'NONE', #696, 39.37007874015748143 ) ;
#29 = EDGE_CURVE ( 'NONE', #618, #874, #713, .T. ) ;
#30 = ORIENTED_EDGE ( 'NONE', *, *, #199, .F. ) ;
#31 = AXIS2_PLACEMENT_3D ( 'NONE', #397, #977, #1044 ) ;
#32 = ORIENTED_EDGE ( 'NONE', *, *, #866, .T. ) ;
#33 = DIRECTION ( 'NONE',  ( 0.000000000000000000, 1.000000000000000000, 0.000000000000000000 ) ) ;
#34 = DIRECTION ( 'NONE',  ( -1.000000000000000000, 0.000000000000000000, 0.000000000000000000 ) ) ;
#35 = CARTESIAN_POINT ( 'NONE',  ( 0.7633000000000003116, 0.05000000000000014849, 20.11499999999999844 ) ) ;
#36 = VERTEX_POINT ( 'NONE', #196 ) ;
#37 = ORIENTED_EDGE ( 'NONE', *, *, #770, .F. ) ;
#38 = CARTESIAN_POINT ( 'NONE',  ( 0.8883000000000008667, -1.018589759999999789, 0.000000000000000000 ) ) ;
#39 = ORIENTED_EDGE ( 'NONE', *, *, #677, .T. ) ;
#40 = CARTESIAN_POINT ( 'NONE',  ( -0.9999999999999990008, 1.429048029999998581, 20.21499999999999986 ) ) ;
#41 = CARTESIAN_POINT ( 'NONE',  ( 1.500000000000001110, -1.268589759999999789, 20.21499999999999986 ) ) ;
#42 = EDGE_CURVE ( 'NONE', #708, #294, #856, .T. ) ;
#43 = EDGE_CURVE ( 'NONE', #376, #700, #803, .T. ) ;
#44 = CYLINDRICAL_SURFACE ( 'NONE', #207, 0.1249999999999999584 ) ;
#45 = VECTOR ( 'NONE', #989, 39.37007874015748143 ) ;
#46 = ORIENTED_EDGE ( 'NONE', *, *, #350, .F. ) ;
#47 = ORIENTED_EDGE ( 'NONE', *, *, #1064, .F. ) ;
#48 = DIRECTION ( 'NONE',  ( -0.000000000000000000, -0.000000000000000000, -1.000000000000000000 ) ) ;
#49 = VERTEX_POINT ( 'NONE', #455 ) ;
#50 = DIRECTION ( 'NONE',  ( 1.532979520265336128E-15, 1.000000000000000000, 0.000000000000000000 ) ) ;
#51 = AXIS2_PLACEMENT_3D ( 'NONE', #227, #555, #898 ) ;
#52 = VERTEX_POINT ( 'NONE', #781 ) ;
#53 = FACE_OUTER_BOUND ( 'NONE', #119, .T. ) ;
#54 = ORIENTED_EDGE ( 'NONE', *, *, #18, .F. ) ;
#55 = PLANE ( 'NONE',  #965 ) ;
#56 = VERTEX_POINT ( 'NONE', #41 ) ;
#57 = ORIENTED_EDGE ( 'NONE', *, *, #317, .F. ) ;
#58 = EDGE_CURVE ( 'NONE', #104, #248, #247, .T. ) ;
#59 = ORIENTED_EDGE ( 'NONE', *, *, #287, .F. ) ;
#60 = AXIS2_PLACEMENT_3D ( 'NONE', #533, #864, #123 ) ;
#61 = LINE ( 'NONE', #229, #990 ) ;
#62 = DIRECTION ( 'NONE',  ( -0.000000000000000000, -0.000000000000000000, -1.000000000000000000 ) ) ;
#63 = ORIENTED_EDGE ( 'NONE', *, *, #277, .F. ) ;
#64 = DIRECTION ( 'NONE',  ( 1.000000000000000000, 0.000000000000000000, 0.000000000000000000 ) ) ;
#65 = AXIS2_PLACEMENT_3D ( 'NONE', #896, #842, #913 ) ;
#66 = CARTESIAN_POINT ( 'NONE',  ( 0.7633000000000003116, -1.018589759999999789, 0.000000000000000000 ) ) ;
#67 = EDGE_LOOP ( 'NONE', ( #157, #296, #136, #931 ) ) ;
#68 = CARTESIAN_POINT ( 'NONE',  ( 1.500000000000001998, -2.268589759999999789, 20.21499999999999986 ) ) ;
#69 = EDGE_CURVE ( 'NONE', #294, #602, #620, .T. ) ;
#70 = LINE ( 'NONE', #1065, #1060 ) ;
#71 = LINE ( 'NONE', #830, #637 ) ;
#72 = ORIENTED_EDGE ( 'NONE', *, *, #850, .T. ) ;
#73 = CIRCLE ( 'NONE', #769, 0.1250000000000003053 ) ;
#74 = DIRECTION ( 'NONE',  ( -0.000000000000000000, -0.000000000000000000, -1.000000000000000000 ) ) ;
#75 = AXIS2_PLACEMENT_3D ( 'NONE', #205, #441, #102 ) ;
#76 = FILL_AREA_STYLE_COLOUR ( '', #346 ) ;
#77 = ORIENTED_EDGE ( 'NONE', *, *, #656, .F. ) ;
#78 = DIRECTION ( 'NONE',  ( -1.000000000000000000, 0.000000000000000000, 0.000000000000000000 ) ) ;
#79 = EDGE_CURVE ( 'NONE', #520, #162, #333, .T. ) ;
#80 = ORIENTED_EDGE ( 'NONE', *, *, #272, .T. ) ;
#81 = VECTOR ( 'NONE', #591, 39.37007874015748143 ) ;
#82 = CARTESIAN_POINT ( 'NONE',  ( 1.500000000000001554, -2.624999999999999556, 20.21499999999999986 ) ) ;
#83 = PRODUCT_RELATED_PRODUCT_CATEGORY ( 'part', '', ( #298 ) ) ;
#84 = FACE_OUTER_BOUND ( 'NONE', #609, .T. ) ;
#85 = CARTESIAN_POINT ( 'NONE',  ( 1.375000000000001332, -1.143589760000000011, 20.21499999999999986 ) ) ;
#86 = CARTESIAN_POINT ( 'NONE',  ( 0.5132999999999983132, 0.7632999999999999785, 20.21499999999999986 ) ) ;
#87 = EDGE_CURVE ( 'NONE', #300, #400, #316, .T. ) ;
#88 = LINE ( 'NONE', #171, #839 ) ;
#89 = CARTESIAN_POINT ( 'NONE',  ( 0.5132999999999983132, 0.7632999999999999785, 20.21499999999999986 ) ) ;
#90 = CARTESIAN_POINT ( 'NONE',  ( 0.8883000000000008667, -1.143589760000000011, 20.21499999999999986 ) ) ;
#91 = LINE ( 'NONE', #424, #326 ) ;
#92 = EDGE_CURVE ( 'NONE', #154, #602, #412, .T. ) ;
#93 = FACE_OUTER_BOUND ( 'NONE', #897, .T. ) ;
#94 = AXIS2_PLACEMENT_3D ( 'NONE', #334, #330, #583 ) ;
#95 = FACE_OUTER_BOUND ( 'NONE', #661, .T. ) ;
#96 = CARTESIAN_POINT ( 'NONE',  ( 1.500000000000001998, -1.643589760000000233, 0.000000000000000000 ) ) ;
#97 =( GEOMETRIC_REPRESENTATION_CONTEXT ( 3 ) GLOBAL_UNCERTAINTY_ASSIGNED_CONTEXT ( ( #985 ) ) GLOBAL_UNIT_ASSIGNED_CONTEXT ( ( #631, #964, #881 ) ) REPRESENTATION_CONTEXT ( 'NONE', 'WORKASPACE' ) );
#98 = DIRECTION ( 'NONE',  ( 0.000000000000000000, -0.000000000000000000, -1.000000000000000000 ) ) ;
#99 = AXIS2_PLACEMENT_3D ( 'NONE', #748, #667, #497 ) ;
#100 = CARTESIAN_POINT ( 'NONE',  ( 0.7632999999999999785, -1.018589759999999789, 0.000000000000000000 ) ) ;
#101 = VECTOR ( 'NONE', #158, 39.37007874015748143 ) ;
#102 = DIRECTION ( 'NONE',  ( 1.000000000000000000, 0.000000000000000000, 0.000000000000000000 ) ) ;
#103 = ADVANCED_BREP_SHAPE_REPRESENTATION ( '2nd Iteration Foam Structure FOAM CUT CUTOUT', ( #490, #12 ), #97 ) ;
#104 = VERTEX_POINT ( 'NONE', #650 ) ;
#105 = DIRECTION ( 'NONE',  ( -0.000000000000000000, -0.000000000000000000, -1.000000000000000000 ) ) ;
#106 = FACE_OUTER_BOUND ( 'NONE', #440, .T. ) ;
#107 = AXIS2_PLACEMENT_3D ( 'NONE', #743, #168, #429 ) ;
#108 = CARTESIAN_POINT ( 'NONE',  ( 0.4346334662678427163, 0.05000000000000004441, 20.11499999999999844 ) ) ;
#109 = EDGE_CURVE ( 'NONE', #374, #235, #892, .T. ) ;
#110 = ORIENTED_EDGE ( 'NONE', *, *, #1024, .F. ) ;
#111 = ORIENTED_EDGE ( 'NONE', *, *, #556, .F. ) ;
#112 = DIRECTION ( 'NONE',  ( 1.000000000000000000, 0.000000000000000000, 0.000000000000000000 ) ) ;
#113 = ORIENTED_EDGE ( 'NONE', *, *, #479, .T. ) ;
#114 = CARTESIAN_POINT ( 'NONE',  ( 0.8883000000000015328, -2.143589759999999789, 20.21499999999999986 ) ) ;
#115 = AXIS2_PLACEMENT_3D ( 'NONE', #915, #1020, #772 ) ;
#116 = EDGE_LOOP ( 'NONE', ( #133, #77, #47, #565 ) ) ;
#117 = AXIS2_PLACEMENT_3D ( 'NONE', #1029, #353, #278 ) ;
#118 = EDGE_CURVE ( 'NONE', #626, #451, #476, .T. ) ;
#119 = EDGE_LOOP ( 'NONE', ( #763, #1039, #220, #443 ) ) ;
#120 = CARTESIAN_POINT ( 'NONE',  ( 0.000000000000000000, 0.000000000000000000, 20.11499999999999844 ) ) ;
#121 = ORIENTED_EDGE ( 'NONE', *, *, #744, .T. ) ;
#122 = DIRECTION ( 'NONE',  ( 0.000000000000000000, 0.000000000000000000, 1.000000000000000000 ) ) ;
#123 = DIRECTION ( 'NONE',  ( 1.000000000000000000, 0.000000000000000000, 0.000000000000000000 ) ) ;
#124 = LINE ( 'NONE', #601, #259 ) ;
#125 = ORIENTED_EDGE ( 'NONE', *, *, #159, .F. ) ;
#126 = ORIENTED_EDGE ( 'NONE', *, *, #432, .F. ) ;
#127 = DIRECTION ( 'NONE',  ( -0.000000000000000000, -1.000000000000000000, -0.000000000000000000 ) ) ;
#128 = ORIENTED_EDGE ( 'NONE', *, *, #783, .F. ) ;
#129 = VERTEX_POINT ( 'NONE', #644 ) ;
#130 = CARTESIAN_POINT ( 'NONE',  ( 0.4346334662678427163, 0.05000000000000004441, 20.21499999999999986 ) ) ;
#131 = VECTOR ( 'NONE', #169, 39.37007874015748143 ) ;
#132 = ADVANCED_FACE ( 'NONE', ( #729 ), #320, .F. ) ;
#133 = ORIENTED_EDGE ( 'NONE', *, *, #605, .T. ) ;
#134 = PRODUCT_DEFINITION_SHAPE ( 'NONE', 'NONE',  #324 ) ;
#135 = LINE ( 'NONE', #466, #524 ) ;
#136 = ORIENTED_EDGE ( 'NONE', *, *, #87, .F. ) ;
#137 = DIRECTION ( 'NONE',  ( -0.000000000000000000, -0.000000000000000000, -1.000000000000000000 ) ) ;
#138 = AXIS2_PLACEMENT_3D ( 'NONE', #1061, #232, #974 ) ;
#139 = ORIENTED_EDGE ( 'NONE', *, *, #435, .T. ) ;
#140 = EDGE_CURVE ( 'NONE', #279, #616, #519, .T. ) ;
#141 = ORIENTED_EDGE ( 'NONE', *, *, #140, .F. ) ;
#142 = CARTESIAN_POINT ( 'NONE',  ( -0.9999999999999990008, -2.500000000000000000, 0.000000000000000000 ) ) ;
#143 = CARTESIAN_POINT ( 'NONE',  ( 0.000000000000000000, 0.000000000000000000, 20.11499999999999844 ) ) ;
#144 = ORIENTED_EDGE ( 'NONE', *, *, #140, .T. ) ;
#145 = DIRECTION ( 'NONE',  ( -0.000000000000000000, -0.000000000000000000, -1.000000000000000000 ) ) ;
#146 = APPLICATION_PROTOCOL_DEFINITION ( 'draft international standard', 'automotive_design', 1998, #651 ) ;
#147 = DIRECTION ( 'NONE',  ( 0.000000000000000000, 0.000000000000000000, 1.000000000000000000 ) ) ;
#148 = DIRECTION ( 'NONE',  ( -0.000000000000000000, 1.000000000000000000, -0.000000000000000000 ) ) ;
#149 = ORIENTED_EDGE ( 'NONE', *, *, #159, .T. ) ;
#150 = LINE ( 'NONE', #475, #512 ) ;
#151 =( LENGTH_UNIT ( ) NAMED_UNIT ( * ) SI_UNIT ( $, .METRE. ) );
#152 = CARTESIAN_POINT ( 'NONE',  ( 1.375000000000002220, -1.768589760000000011, 20.21499999999999986 ) ) ;
#153 = CARTESIAN_POINT ( 'NONE',  ( 1.500000000000001998, -1.643589760000000233, 20.21499999999999986 ) ) ;
#154 = VERTEX_POINT ( 'NONE', #68 ) ;
#155 = CARTESIAN_POINT ( 'NONE',  ( 0.5133000000000000895, 0.5133000000000000895, 20.21499999999999986 ) ) ;
#156 = DIRECTION ( 'NONE',  ( -0.000000000000000000, -0.000000000000000000, -1.000000000000000000 ) ) ;
#157 = ORIENTED_EDGE ( 'NONE', *, *, #18, .T. ) ;
#158 = DIRECTION ( 'NONE',  ( -0.000000000000000000, -0.000000000000000000, -1.000000000000000000 ) ) ;
#159 = EDGE_CURVE ( 'NONE', #240, #438, #17, .T. ) ;
#160 = LINE ( 'NONE', #552, #518 ) ;
#161 = VECTOR ( 'NONE', #445, 39.37007874015748143 ) ;
#162 = VERTEX_POINT ( 'NONE', #562 ) ;
#163 = FACE_OUTER_BOUND ( 'NONE', #790, .T. ) ;
#164 = VECTOR ( 'NONE', #837, 39.37007874015748143 ) ;
#165 = ORIENTED_EDGE ( 'NONE', *, *, #382, .T. ) ;
#166 = CARTESIAN_POINT ( 'NONE',  ( -0.7499999999999990008, -2.500000000000000000, 0.000000000000000000 ) ) ;
#167 = EDGE_CURVE ( 'NONE', #279, #235, #408, .T. ) ;
#168 = DIRECTION ( 'NONE',  ( 0.000000000000000000, 0.000000000000000000, 1.000000000000000000 ) ) ;
#169 = DIRECTION ( 'NONE',  ( -0.000000000000000000, -0.000000000000000000, -1.000000000000000000 ) ) ;
#170 = CIRCLE ( 'NONE', #859, 0.1250000000000001665 ) ;
#171 = CARTESIAN_POINT ( 'NONE',  ( 1.375000000000002220, -2.143589759999999789, 20.21499999999999986 ) ) ;
#172 = VECTOR ( 'NONE', #873, 39.37007874015748143 ) ;
#173 = CARTESIAN_POINT ( 'NONE',  ( 1.375000000000002220, -2.268589759999999789, 0.000000000000000000 ) ) ;
#174 = CARTESIAN_POINT ( 'NONE',  ( 0.8883000000000015328, -2.143589759999999789, 20.21499999999999986 ) ) ;
#175 = DIRECTION ( 'NONE',  ( -1.000000000000000000, 0.000000000000000000, 0.000000000000000000 ) ) ;
#176 = EDGE_CURVE ( 'NONE', #210, #1025, #150, .T. ) ;
#177 = ADVANCED_FACE ( 'NONE', ( #814 ), #969, .F. ) ;
#178 = FACE_OUTER_BOUND ( 'NONE', #116, .T. ) ;
#179 = CARTESIAN_POINT ( 'NONE',  ( 0.4346334662678427163, -0.05000000000000004441, 20.11499999999999844 ) ) ;
#180 = AXIS2_PLACEMENT_3D ( 'NONE', #256, #10, #501 ) ;
#181 = CARTESIAN_POINT ( 'NONE',  ( 0.8883000000000015328, -2.018589760000000233, 20.21499999999999986 ) ) ;
#182 = DIRECTION ( 'NONE',  ( 5.613001836170659289E-16, -1.000000000000000000, 0.000000000000000000 ) ) ;
#183 = AXIS2_PLACEMENT_3D ( 'NONE', #166, #753, #175 ) ;
#184 = ADVANCED_FACE ( 'NONE', ( #809 ), #566, .F. ) ;
#185 = CARTESIAN_POINT ( 'NONE',  ( 0.7632999999999999785, 0.5132999999999982021, 20.21499999999999986 ) ) ;
#186 = PLANE ( 'NONE',  #117 ) ;
#187 = ORIENTED_EDGE ( 'NONE', *, *, #853, .T. ) ;
#188 =( GEOMETRIC_REPRESENTATION_CONTEXT ( 3 ) GLOBAL_UNCERTAINTY_ASSIGNED_CONTEXT ( ( #735 ) ) GLOBAL_UNIT_ASSIGNED_CONTEXT ( ( #224, #1057, #1068 ) ) REPRESENTATION_CONTEXT ( 'NONE', 'WORKASPACE' ) );
#189 = CYLINDRICAL_SURFACE ( 'NONE', #587, 0.2249999999999999223 ) ;
#190 = ORIENTED_EDGE ( 'NONE', *, *, #744, .F. ) ;
#191 = ADVANCED_FACE ( 'NONE', ( #886 ), #802, .T. ) ;
#192 = AXIS2_PLACEMENT_3D ( 'NONE', #522, #137, #34 ) ;
#193 = PLANE ( 'NONE',  #774 ) ;
#194 = ORIENTED_EDGE ( 'NONE', *, *, #214, .F. ) ;
#195 = FACE_OUTER_BOUND ( 'NONE', #442, .T. ) ;
#196 = CARTESIAN_POINT ( 'NONE',  ( 1.375000000000000444, -2.750000000000000000, 20.21499999999999986 ) ) ;
#197 = CIRCLE ( 'NONE', #437, 0.1250000000000005829 ) ;
#198 = DIRECTION ( 'NONE',  ( 1.000000000000000000, 0.000000000000000000, 0.000000000000000000 ) ) ;
#199 = EDGE_CURVE ( 'NONE', #962, #948, #269, .T. ) ;
#200 = ORIENTED_EDGE ( 'NONE', *, *, #478, .T. ) ;
#201 = ORIENTED_EDGE ( 'NONE', *, *, #43, .T. ) ;
#202 = VERTEX_POINT ( 'NONE', #420 ) ;
#203 = CYLINDRICAL_SURFACE ( 'NONE', #557, 0.4375000000000000000 ) ;
#204 = CYLINDRICAL_SURFACE ( 'NONE', #299, 0.4375000000000000000 ) ;
#205 = CARTESIAN_POINT ( 'NONE',  ( 1.375000000000001332, -1.268589759999999789, 0.000000000000000000 ) ) ;
#206 = EDGE_LOOP ( 'NONE', ( #716, #46, #482, #860 ) ) ;
#207 = AXIS2_PLACEMENT_3D ( 'NONE', #606, #215, #373 ) ;
#208 = ORIENTED_EDGE ( 'NONE', *, *, #249, .F. ) ;
#209 = DIRECTION ( 'NONE',  ( -0.000000000000000000, -0.000000000000000000, -1.000000000000000000 ) ) ;
#210 = VERTEX_POINT ( 'NONE', #338 ) ;
#211 = CARTESIAN_POINT ( 'NONE',  ( -0.7250000000000015321, 1.654048030000000002, 0.000000000000000000 ) ) ;
#212 = DIRECTION ( 'NONE',  ( 0.000000000000000000, 0.000000000000000000, 1.000000000000000000 ) ) ;
#213 = MECHANICAL_DESIGN_GEOMETRIC_PRESENTATION_REPRESENTATION (  '', ( #388 ), #188 ) ;
#214 = EDGE_CURVE ( 'NONE', #627, #210, #465, .T. ) ;
#215 = DIRECTION ( 'NONE',  ( -0.000000000000000000, -0.000000000000000000, -1.000000000000000000 ) ) ;
#216 = ORIENTED_EDGE ( 'NONE', *, *, #118, .T. ) ;
#217 = EDGE_CURVE ( 'NONE', #202, #818, #88, .T. ) ;
#218 = DIRECTION ( 'NONE',  ( 1.000000000000000000, 0.000000000000000000, 0.000000000000000000 ) ) ;
#219 = ORIENTED_EDGE ( 'NONE', *, *, #593, .F. ) ;
#220 = ORIENTED_EDGE ( 'NONE', *, *, #449, .F. ) ;
#221 = ORIENTED_EDGE ( 'NONE', *, *, #325, .F. ) ;
#222 = PLANE ( 'NONE',  #31 ) ;
#223 = ORIENTED_EDGE ( 'NONE', *, *, #584, .F. ) ;
#224 =( CONVERSION_BASED_UNIT ( 'INCH', #1073 ) LENGTH_UNIT ( ) NAMED_UNIT ( #921 ) );
#225 = DIRECTION ( 'NONE',  ( -0.000000000000000000, 0.000000000000000000, 1.000000000000000000 ) ) ;
#226 = ORIENTED_EDGE ( 'NONE', *, *, #879, .T. ) ;
#227 = CARTESIAN_POINT ( 'NONE',  ( 1.500000000000001554, -2.624999999999999556, 20.21499999999999986 ) ) ;
#228 = VECTOR ( 'NONE', #371, 39.37007874015748143 ) ;
#229 = CARTESIAN_POINT ( 'NONE',  ( 1.500000000000001776, -1.643589760000000233, 0.000000000000000000 ) ) ;
#230 = CYLINDRICAL_SURFACE ( 'NONE', #911, 0.1249999999999999029 ) ;
#231 = ORIENTED_EDGE ( 'NONE', *, *, #698, .T. ) ;
#232 = DIRECTION ( 'NONE',  ( 0.000000000000000000, 0.000000000000000000, 1.000000000000000000 ) ) ;
#233 = ADVANCED_FACE ( 'NONE', ( #84 ), #674, .T. ) ;
#234 = CARTESIAN_POINT ( 'NONE',  ( 1.375000000000001332, -1.143589760000000011, 20.21499999999999986 ) ) ;
#235 = VERTEX_POINT ( 'NONE', #832 ) ;
#236 = DIRECTION ( 'NONE',  ( 1.092739197465706273E-15, -1.000000000000000000, 0.000000000000000000 ) ) ;
#237 = EDGE_CURVE ( 'NONE', #742, #966, #498, .T. ) ;
#238 = EDGE_CURVE ( 'NONE', #400, #991, #880, .T. ) ;
#239 = FACE_OUTER_BOUND ( 'NONE', #858, .T. ) ;
#240 = VERTEX_POINT ( 'NONE', #589 ) ;
#241 = DIRECTION ( 'NONE',  ( 0.000000000000000000, 0.000000000000000000, 1.000000000000000000 ) ) ;
#242 = VECTOR ( 'NONE', #920, 39.37007874015748143 ) ;
#243 = DIRECTION ( 'NONE',  ( -1.000000000000000000, 0.000000000000000000, 0.000000000000000000 ) ) ;
#244 = ORIENTED_EDGE ( 'NONE', *, *, #354, .T. ) ;
#245 = CIRCLE ( 'NONE', #663, 0.2499999999999999167 ) ;
#246 = LINE ( 'NONE', #422, #81 ) ;
#247 = CIRCLE ( 'NONE', #433, 0.1249999999999999029 ) ;
#248 = VERTEX_POINT ( 'NONE', #96 ) ;
#249 = EDGE_CURVE ( 'NONE', #1028, #279, #417, .T. ) ;
#250 = DIRECTION ( 'NONE',  ( -0.000000000000000000, -0.000000000000000000, -1.000000000000000000 ) ) ;
#251 = FACE_OUTER_BOUND ( 'NONE', #274, .T. ) ;
#252 = CARTESIAN_POINT ( 'NONE',  ( -0.04999999999999994726, 0.04999999999999994726, 20.11499999999999844 ) ) ;
#253 = VECTOR ( 'NONE', #564, 39.37007874015748143 ) ;
#254 = PLANE ( 'NONE',  #115 ) ;
#255 = CARTESIAN_POINT ( 'NONE',  ( 0.4375000000000000000, 5.357829746269670127E-17, 20.11499999999999844 ) ) ;
#256 = CARTESIAN_POINT ( 'NONE',  ( -0.7499999999999990008, -2.500000000000000000, 20.21499999999999986 ) ) ;
#257 = EDGE_CURVE ( 'NONE', #847, #56, #662, .T. ) ;
#258 = DIRECTION ( 'NONE',  ( -0.000000000000000000, -0.000000000000000000, -1.000000000000000000 ) ) ;
#259 = VECTOR ( 'NONE', #598, 39.37007874015748143 ) ;
#260 = DIRECTION ( 'NONE',  ( 0.000000000000000000, -0.000000000000000000, -1.000000000000000000 ) ) ;
#261 = CARTESIAN_POINT ( 'NONE',  ( 1.500000000000001998, -2.268589759999999789, 0.000000000000000000 ) ) ;
#262 = DIMENSIONAL_EXPONENTS ( 1.000000000000000000, 0.000000000000000000, 0.000000000000000000, 0.000000000000000000, 0.000000000000000000, 0.000000000000000000, 0.000000000000000000 ) ;
#263 = DIRECTION ( 'NONE',  ( -1.000000000000000000, 0.000000000000000000, 0.000000000000000000 ) ) ;
#264 = CARTESIAN_POINT ( 'NONE',  ( 1.375000000000002220, -2.143589759999999789, 0.000000000000000000 ) ) ;
#265 = ADVANCED_FACE ( 'NONE', ( #843 ), #434, .F. ) ;
#266 = CIRCLE ( 'NONE', #1013, 0.4375000000000000000 ) ;
#267 = DIRECTION ( 'NONE',  ( -1.000000000000000000, 0.000000000000000000, 0.000000000000000000 ) ) ;
#268 = LINE ( 'NONE', #35, #865 ) ;
#269 = CIRCLE ( 'NONE', #94, 0.4375000000000000000 ) ;
#270 = ORIENTED_EDGE ( 'NONE', *, *, #87, .T. ) ;
#271 = CARTESIAN_POINT ( 'NONE',  ( 0.8883000000000015328, -2.143589759999999789, 0.000000000000000000 ) ) ;
#272 = EDGE_CURVE ( 'NONE', #1038, #1026, #986, .T. ) ;
#273 = CARTESIAN_POINT ( 'NONE',  ( 0.7633000000000014218, -1.893589760000000233, 20.21499999999999986 ) ) ;
#274 = EDGE_LOOP ( 'NONE', ( #387, #529, #378, #933 ) ) ;
#275 = CARTESIAN_POINT ( 'NONE',  ( -0.3749999999999991673, 0.7632999999999999785, 20.21499999999999986 ) ) ;
#276 = LINE ( 'NONE', #849, #389 ) ;
#277 = EDGE_CURVE ( 'NONE', #36, #303, #91, .T. ) ;
#278 = DIRECTION ( 'NONE',  ( 0.000000000000000000, -0.000000000000000000, -1.000000000000000000 ) ) ;
#279 = VERTEX_POINT ( 'NONE', #11 ) ;
#280 = ORIENTED_EDGE ( 'NONE', *, *, #237, .F. ) ;
#281 = ORIENTED_EDGE ( 'NONE', *, *, #629, .T. ) ;
#282 = FACE_OUTER_BOUND ( 'NONE', #1054, .T. ) ;
#283 = DIRECTION ( 'NONE',  ( -0.000000000000000000, -0.000000000000000000, -1.000000000000000000 ) ) ;
#284 = CARTESIAN_POINT ( 'NONE',  ( 0.7633000000000003116, -0.05000000000000004441, 20.11499999999999844 ) ) ;
#285 = ORIENTED_EDGE ( 'NONE', *, *, #976, .F. ) ;
#286 = ORIENTED_EDGE ( 'NONE', *, *, #1012, .F. ) ;
#287 = EDGE_CURVE ( 'NONE', #1026, #303, #341, .T. ) ;
#288 = DIRECTION ( 'NONE',  ( -0.000000000000000000, 0.000000000000000000, 1.000000000000000000 ) ) ;
#289 = VERTEX_POINT ( 'NONE', #592 ) ;
#290 = DIRECTION ( 'NONE',  ( -1.000000000000000000, 0.000000000000000000, 0.000000000000000000 ) ) ;
#291 = DIRECTION ( 'NONE',  ( 1.000000000000000000, 0.000000000000000000, 0.000000000000000000 ) ) ;
#292 = LINE ( 'NONE', #536, #731 ) ;
#293 = EDGE_LOOP ( 'NONE', ( #877, #464, #110, #643 ) ) ;
#294 = VERTEX_POINT ( 'NONE', #925 ) ;
#295 = CARTESIAN_POINT ( 'NONE',  ( 0.4375000000000000000, 5.357829746269670127E-17, 20.21499999999999986 ) ) ;
#296 = ORIENTED_EDGE ( 'NONE', *, *, #629, .F. ) ;
#297 = ORIENTED_EDGE ( 'NONE', *, *, #556, .T. ) ;
#298 = PRODUCT ( '2nd Iteration Foam Structure FOAM CUT CUTOUT', '2nd Iteration Foam Structure FOAM CUT CUTOUT', '', ( #477 ) ) ;
#299 = AXIS2_PLACEMENT_3D ( 'NONE', #372, #604, #720 ) ;
#300 = VERTEX_POINT ( 'NONE', #4 ) ;
#301 = CARTESIAN_POINT ( 'NONE',  ( -0.04999999999999993339, -0.05000000000000004441, 20.21499999999999986 ) ) ;
#302 = ORIENTED_EDGE ( 'NONE', *, *, #821, .T. ) ;
#303 = VERTEX_POINT ( 'NONE', #755 ) ;
#304 = ORIENTED_EDGE ( 'NONE', *, *, #402, .F. ) ;
#305 = VECTOR ( 'NONE', #1053, 39.37007874015748143 ) ;
#306 = DIRECTION ( 'NONE',  ( 0.000000000000000000, 0.000000000000000000, 1.000000000000000000 ) ) ;
#307 = DIRECTION ( 'NONE',  ( 1.000000000000000000, 0.000000000000000000, 0.000000000000000000 ) ) ;
#308 = CARTESIAN_POINT ( 'NONE',  ( 0.5132999999999983132, 0.7632999999999999785, 0.000000000000000000 ) ) ;
#309 = ORIENTED_EDGE ( 'NONE', *, *, #613, .F. ) ;
#310 = DIRECTION ( 'NONE',  ( 1.000000000000000000, 0.000000000000000000, 0.000000000000000000 ) ) ;
#311 = AXIS2_PLACEMENT_3D ( 'NONE', #690, #122, #454 ) ;
#312 = SURFACE_SIDE_STYLE ('',( #904 ) ) ;
#313 = AXIS2_PLACEMENT_3D ( 'NONE', #707, #940, #775 ) ;
#314 = FACE_OUTER_BOUND ( 'NONE', #323, .T. ) ;
#315 = ORIENTED_EDGE ( 'NONE', *, *, #472, .F. ) ;
#316 = LINE ( 'NONE', #902, #846 ) ;
#317 = EDGE_CURVE ( 'NONE', #724, #966, #1075, .T. ) ;
#318 = CARTESIAN_POINT ( 'NONE',  ( 0.5133000000000000895, 0.5133000000000000895, 0.000000000000000000 ) ) ;
#319 = VERTEX_POINT ( 'NONE', #16 ) ;
#320 = PLANE ( 'NONE',  #958 ) ;
#321 = CIRCLE ( 'NONE', #926, 0.2499999999999999167 ) ;
#322 = FILL_AREA_STYLE ('',( #76 ) ) ;
#323 = EDGE_LOOP ( 'NONE', ( #1074, #407, #126, #187 ) ) ;
#324 = PRODUCT_DEFINITION ( 'UNKNOWN', '', #342, #899 ) ;
#325 = EDGE_CURVE ( 'NONE', #210, #1043, #681, .T. ) ;
#326 = VECTOR ( 'NONE', #828, 39.37007874015748143 ) ;
#327 = EDGE_CURVE ( 'NONE', #618, #289, #992, .T. ) ;
#328 = LINE ( 'NONE', #582, #351 ) ;
#329 = ORIENTED_EDGE ( 'NONE', *, *, #605, .F. ) ;
#330 = DIRECTION ( 'NONE',  ( 0.000000000000000000, 0.000000000000000000, 1.000000000000000000 ) ) ;
#331 = LINE ( 'NONE', #509, #164 ) ;
#332 = LINE ( 'NONE', #252, #1070 ) ;
#333 = CIRCLE ( 'NONE', #936, 0.1249999999999999584 ) ;
#334 = CARTESIAN_POINT ( 'NONE',  ( 0.000000000000000000, 0.000000000000000000, 20.21499999999999986 ) ) ;
#335 = DIRECTION ( 'NONE',  ( -1.000000000000000000, 0.000000000000000000, 0.000000000000000000 ) ) ;
#336 = DIRECTION ( 'NONE',  ( 1.000000000000000000, -5.613001836170659289E-16, -0.000000000000000000 ) ) ;
#337 = CIRCLE ( 'NONE', #725, 0.1249999999999999029 ) ;
#338 = CARTESIAN_POINT ( 'NONE',  ( 0.7633000000000016438, -2.018589760000000233, 20.21499999999999986 ) ) ;
#339 = DIRECTION ( 'NONE',  ( 0.000000000000000000, 0.000000000000000000, 1.000000000000000000 ) ) ;
#340 = CARTESIAN_POINT ( 'NONE',  ( -0.7499999999999990008, -2.750000000000000000, 20.21499999999999986 ) ) ;
#341 = LINE ( 'NONE', #679, #597 ) ;
#342 = PRODUCT_DEFINITION_FORMATION_WITH_SPECIFIED_SOURCE ( 'ANY', '', #298, .NOT_KNOWN. ) ;
#343 = AXIS2_PLACEMENT_3D ( 'NONE', #544, #528, #198 ) ;
#344 = ADVANCED_FACE ( 'NONE', ( #912 ), #254, .F. ) ;
#345 = DIRECTION ( 'NONE',  ( 0.000000000000000000, 0.000000000000000000, 1.000000000000000000 ) ) ;
#346 = COLOUR_RGB ( '',0.7921568627450980005, 0.8196078431372548767, 0.9333333333333333481 ) ;
#347 = CARTESIAN_POINT ( 'NONE',  ( 0.8883000000000015328, -2.018589760000000233, 20.21499999999999986 ) ) ;
#348 = CARTESIAN_POINT ( 'NONE',  ( 0.8883000000000015328, -2.143589759999999789, 20.21499999999999986 ) ) ;
#349 = AXIS2_PLACEMENT_3D ( 'NONE', #348, #182, #13 ) ;
#350 = EDGE_CURVE ( 'NONE', #56, #319, #603, .T. ) ;
#351 = VECTOR ( 'NONE', #419, 39.37007874015748143 ) ;
#352 = CARTESIAN_POINT ( 'NONE',  ( 0.7633000000000014218, -1.893589760000000233, 0.000000000000000000 ) ) ;
#353 = DIRECTION ( 'NONE',  ( 0.000000000000000000, -1.000000000000000000, 0.000000000000000000 ) ) ;
#354 = EDGE_CURVE ( 'NONE', #235, #719, #446, .T. ) ;
#355 = EDGE_LOOP ( 'NONE', ( #548, #695, #415, #862 ) ) ;
#356 = CARTESIAN_POINT ( 'NONE',  ( 0.8883000000000008667, -1.143589760000000011, 20.21499999999999986 ) ) ;
#357 = ORIENTED_EDGE ( 'NONE', *, *, #277, .T. ) ;
#358 = VECTOR ( 'NONE', #105, 39.37007874015748143 ) ;
#359 = VECTOR ( 'NONE', #845, 39.37007874015748143 ) ;
#360 = CARTESIAN_POINT ( 'NONE',  ( 0.7632999999999999785, 0.5132999999999982021, 0.000000000000000000 ) ) ;
#361 = ORIENTED_EDGE ( 'NONE', *, *, #214, .T. ) ;
#362 = EDGE_LOOP ( 'NONE', ( #200, #963, #1041, #776 ) ) ;
#363 = DIRECTION ( 'NONE',  ( -0.000000000000000000, -0.000000000000000000, -1.000000000000000000 ) ) ;
#364 = ORIENTED_EDGE ( 'NONE', *, *, #934, .F. ) ;
#365 = LINE ( 'NONE', #27, #918 ) ;
#366 = ORIENTED_EDGE ( 'NONE', *, *, #656, .T. ) ;
#367 = ADVANCED_FACE ( 'NONE', ( #195 ), #189, .T. ) ;
#368 = ORIENTED_EDGE ( 'NONE', *, *, #879, .F. ) ;
#369 = LINE ( 'NONE', #301, #496 ) ;
#370 = VERTEX_POINT ( 'NONE', #271 ) ;
#371 = DIRECTION ( 'NONE',  ( -0.000000000000000000, -0.000000000000000000, -1.000000000000000000 ) ) ;
#372 = CARTESIAN_POINT ( 'NONE',  ( 0.000000000000000000, 0.000000000000000000, 20.21499999999999986 ) ) ;
#373 = DIRECTION ( 'NONE',  ( -1.000000000000000000, 0.000000000000000000, 0.000000000000000000 ) ) ;
#374 = VERTEX_POINT ( 'NONE', #211 ) ;
#375 = AXIS2_PLACEMENT_3D ( 'NONE', #347, #746, #263 ) ;
#376 = VERTEX_POINT ( 'NONE', #352 ) ;
#377 = DIRECTION ( 'NONE',  ( 1.000000000000000000, 0.000000000000000000, 0.000000000000000000 ) ) ;
#378 = ORIENTED_EDGE ( 'NONE', *, *, #820, .F. ) ;
#379 = CARTESIAN_POINT ( 'NONE',  ( -0.3750000000000000555, 0.8882999999999998675, 0.000000000000000000 ) ) ;
#380 = ORIENTED_EDGE ( 'NONE', *, *, #804, .F. ) ;
#381 = DIRECTION ( 'NONE',  ( -1.000000000000000000, 0.000000000000000000, 0.000000000000000000 ) ) ;
#382 = EDGE_CURVE ( 'NONE', #36, #708, #170, .T. ) ;
#383 = ORIENTED_EDGE ( 'NONE', *, *, #804, .T. ) ;
#384 = CARTESIAN_POINT ( 'NONE',  ( -0.04999999999999994726, 0.04999999999999994726, 20.11499999999999844 ) ) ;
#385 = ORIENTED_EDGE ( 'NONE', *, *, #167, .F. ) ;
#386 = CARTESIAN_POINT ( 'NONE',  ( -0.7250000000000015321, 1.654048030000000002, 20.21499999999999986 ) ) ;
#387 = ORIENTED_EDGE ( 'NONE', *, *, #996, .T. ) ;
#388 = STYLED_ITEM ( 'NONE', ( #652 ), #490 ) ;
#389 = VECTOR ( 'NONE', #705, 39.37007874015748143 ) ;
#390 = EDGE_CURVE ( 'NONE', #162, #573, #444, .T. ) ;
#391 = CARTESIAN_POINT ( 'NONE',  ( 0.7633000000000003116, 0.05000000000000014849, 20.21499999999999986 ) ) ;
#392 = DIRECTION ( 'NONE',  ( -1.092739197465706273E-15, 1.000000000000000000, -0.000000000000000000 ) ) ;
#393 = ORIENTED_EDGE ( 'NONE', *, *, #946, .F. ) ;
#394 = DIRECTION ( 'NONE',  ( -1.000000000000000000, 0.000000000000000000, 0.000000000000000000 ) ) ;
#395 = ORIENTED_EDGE ( 'NONE', *, *, #613, .T. ) ;
#396 = AXIS2_PLACEMENT_3D ( 'NONE', #922, #1001, #406 ) ;
#397 = CARTESIAN_POINT ( 'NONE',  ( -0.04999999999999993339, -0.05000000000000004441, 20.11499999999999844 ) ) ;
#398 = FACE_OUTER_BOUND ( 'NONE', #453, .T. ) ;
#399 = CARTESIAN_POINT ( 'NONE',  ( -0.9999999999999990008, -2.500000000000000000, 20.21499999999999986 ) ) ;
#400 = VERTEX_POINT ( 'NONE', #275 ) ;
#401 = CARTESIAN_POINT ( 'NONE',  ( 1.500000000000001998, -2.268589759999999789, 20.21499999999999986 ) ) ;
#402 = EDGE_CURVE ( 'NONE', #1025, #701, #73, .T. ) ;
#403 = VECTOR ( 'NONE', #841, 39.37007874015748143 ) ;
#404 = SURFACE_STYLE_USAGE ( .BOTH. , #312 ) ;
#405 = AXIS2_PLACEMENT_3D ( 'NONE', #517, #699, #935 ) ;
#406 = DIRECTION ( 'NONE',  ( 1.000000000000000000, 0.000000000000000000, 0.000000000000000000 ) ) ;
#407 = ORIENTED_EDGE ( 'NONE', *, *, #516, .F. ) ;
#408 = LINE ( 'NONE', #983, #741 ) ;
#409 = EDGE_CURVE ( 'NONE', #701, #700, #704, .T. ) ;
#410 = DIRECTION ( 'NONE',  ( -0.000000000000000000, 0.000000000000000000, 1.000000000000000000 ) ) ;
#411 = ORIENTED_EDGE ( 'NONE', *, *, #287, .T. ) ;
#412 = LINE ( 'NONE', #401, #101 ) ;
#413 = AXIS2_PLACEMENT_3D ( 'NONE', #120, #288, #546 ) ;
#414 = CARTESIAN_POINT ( 'NONE',  ( 0.7632999999999999785, -1.018589759999999789, 20.21499999999999986 ) ) ;
#415 = ORIENTED_EDGE ( 'NONE', *, *, #866, .F. ) ;
#416 = DIRECTION ( 'NONE',  ( -1.000000000000000000, -5.613001836170659289E-16, -0.000000000000000000 ) ) ;
#417 = LINE ( 'NONE', #998, #900 ) ;
#418 = DIRECTION ( 'NONE',  ( 0.000000000000000000, -1.000000000000000000, 0.000000000000000000 ) ) ;
#419 = DIRECTION ( 'NONE',  ( 1.000000000000000000, -5.613001836170659289E-16, -0.000000000000000000 ) ) ;
#420 = CARTESIAN_POINT ( 'NONE',  ( 1.375000000000002220, -2.143589759999999789, 20.21499999999999986 ) ) ;
#421 = LINE ( 'NONE', #485, #808 ) ;
#422 = CARTESIAN_POINT ( 'NONE',  ( -0.3749999999999991673, 0.7632999999999999785, 20.21499999999999986 ) ) ;
#423 = ADVANCED_FACE ( 'NONE', ( #282 ), #203, .F. ) ;
#424 = CARTESIAN_POINT ( 'NONE',  ( 1.375000000000000444, -2.750000000000000000, 20.21499999999999986 ) ) ;
#425 = EDGE_CURVE ( 'NONE', #626, #129, #685, .T. ) ;
#426 = AXIS2_PLACEMENT_3D ( 'NONE', #571, #483, #236 ) ;
#427 = LINE ( 'NONE', #514, #253 ) ;
#428 = DIRECTION ( 'NONE',  ( -1.000000000000000000, 0.000000000000000000, 0.000000000000000000 ) ) ;
#429 = DIRECTION ( 'NONE',  ( 1.000000000000000000, 0.000000000000000000, 0.000000000000000000 ) ) ;
#430 = AXIS2_PLACEMENT_3D ( 'NONE', #484, #811, #1008 ) ;
#431 = ADVANCED_FACE ( 'NONE', ( #439 ), #765, .T. ) ;
#432 = EDGE_CURVE ( 'NONE', #537, #847, #687, .T. ) ;
#433 = AXIS2_PLACEMENT_3D ( 'NONE', #1035, #212, #291 ) ;
#434 = CYLINDRICAL_SURFACE ( 'NONE', #375, 0.1249999999999999029 ) ;
#435 = EDGE_CURVE ( 'NONE', #616, #719, #780, .T. ) ;
#436 = CARTESIAN_POINT ( 'NONE',  ( 0.7633000000000003116, 0.05000000000000014849, 20.11499999999999844 ) ) ;
#437 = AXIS2_PLACEMENT_3D ( 'NONE', #38, #48, #377 ) ;
#438 = VERTEX_POINT ( 'NONE', #1034 ) ;
#439 = FACE_OUTER_BOUND ( 'NONE', #689, .T. ) ;
#440 = EDGE_LOOP ( 'NONE', ( #810, #709, #968, #615, #691, #1021 ) ) ;
#441 = DIRECTION ( 'NONE',  ( 0.000000000000000000, 0.000000000000000000, 1.000000000000000000 ) ) ;
#442 = EDGE_LOOP ( 'NONE', ( #639, #988, #868, #730 ) ) ;
#443 = ORIENTED_EDGE ( 'NONE', *, *, #499, .T. ) ;
#444 = LINE ( 'NONE', #848, #829 ) ;
#445 = DIRECTION ( 'NONE',  ( -0.000000000000000000, -0.000000000000000000, -1.000000000000000000 ) ) ;
#446 = CIRCLE ( 'NONE', #502, 0.2249999999999999223 ) ;
#447 = VECTOR ( 'NONE', #782, 39.37007874015748143 ) ;
#448 = FACE_OUTER_BOUND ( 'NONE', #293, .T. ) ;
#449 = EDGE_CURVE ( 'NONE', #991, #891, #878, .T. ) ;
#450 = EDGE_LOOP ( 'NONE', ( #297, #221, #194, #366 ) ) ;
#451 = VERTEX_POINT ( 'NONE', #889 ) ;
#452 = CARTESIAN_POINT ( 'NONE',  ( -0.7249999999999998668, 1.429048030000000136, 0.000000000000000000 ) ) ;
#453 = EDGE_LOOP ( 'NONE', ( #201, #470, #304, #231 ) ) ;
#454 = DIRECTION ( 'NONE',  ( 1.000000000000000000, 0.000000000000000000, 0.000000000000000000 ) ) ;
#455 = CARTESIAN_POINT ( 'NONE',  ( 1.375000000000001332, -1.143589760000000011, 0.000000000000000000 ) ) ;
#456 = DIRECTION ( 'NONE',  ( 1.000000000000000000, 0.000000000000000000, 0.000000000000000000 ) ) ;
#457 = ORIENTED_EDGE ( 'NONE', *, *, #462, .F. ) ;
#458 = ORIENTED_EDGE ( 'NONE', *, *, #574, .F. ) ;
#459 = DIRECTION ( 'NONE',  ( -1.000000000000000000, 0.000000000000000000, 0.000000000000000000 ) ) ;
#460 = ORIENTED_EDGE ( 'NONE', *, *, #109, .F. ) ;
#461 = LINE ( 'NONE', #386, #665 ) ;
#462 = EDGE_CURVE ( 'NONE', #549, #724, #70, .T. ) ;
#463 = DIRECTION ( 'NONE',  ( -0.000000000000000000, -0.000000000000000000, -1.000000000000000000 ) ) ;
#464 = ORIENTED_EDGE ( 'NONE', *, *, #670, .T. ) ;
#465 = CIRCLE ( 'NONE', #1071, 0.1249999999999999029 ) ;
#466 = CARTESIAN_POINT ( 'NONE',  ( 0.7633000000000014218, -1.893589760000000233, 0.000000000000000000 ) ) ;
#467 = ORIENTED_EDGE ( 'NONE', *, *, #249, .T. ) ;
#468 = ORIENTED_EDGE ( 'NONE', *, *, #425, .T. ) ;
#469 = LENGTH_MEASURE_WITH_UNIT ( LENGTH_MEASURE( 0.02539999999999999897 ), #151 );
#470 = ORIENTED_EDGE ( 'NONE', *, *, #409, .F. ) ;
#471 = DIRECTION ( 'NONE',  ( -0.000000000000000000, -1.000000000000000000, -0.000000000000000000 ) ) ;
#472 = EDGE_CURVE ( 'NONE', #719, #1038, #493, .T. ) ;
#473 = DIRECTION ( 'NONE',  ( 1.000000000000000000, 0.000000000000000000, 0.000000000000000000 ) ) ;
#474 = ORIENTED_EDGE ( 'NONE', *, *, #715, .T. ) ;
#475 = CARTESIAN_POINT ( 'NONE',  ( 0.7633000000000014218, -1.893589760000000233, 20.21499999999999986 ) ) ;
#476 = CIRCLE ( 'NONE', #993, 0.1250000000000005829 ) ;
#477 = PRODUCT_CONTEXT ( 'NONE', #651, 'mechanical' ) ;
#478 = EDGE_CURVE ( 'NONE', #966, #738, #245, .T. ) ;
#479 = EDGE_CURVE ( 'NONE', #240, #1038, #816, .T. ) ;
#480 =( LENGTH_UNIT ( ) NAMED_UNIT ( * ) SI_UNIT ( $, .METRE. ) );
#481 = CARTESIAN_POINT ( 'NONE',  ( -0.9999999999999990008, 1.429048029999998581, 0.000000000000000000 ) ) ;
#482 = ORIENTED_EDGE ( 'NONE', *, *, #257, .F. ) ;
#483 = DIRECTION ( 'NONE',  ( -1.000000000000000000, -1.092739197465706273E-15, 0.000000000000000000 ) ) ;
#484 = CARTESIAN_POINT ( 'NONE',  ( 0.8883000000000015328, -2.018589760000000233, 0.000000000000000000 ) ) ;
#485 = CARTESIAN_POINT ( 'NONE',  ( -0.04999999999999994726, 0.04999999999999994726, 20.21499999999999986 ) ) ;
#486 = ORIENTED_EDGE ( 'NONE', *, *, #449, .T. ) ;
#487 = DIRECTION ( 'NONE',  ( -1.092739197465706273E-15, 1.000000000000000000, -0.000000000000000000 ) ) ;
#488 = ADVANCED_FACE ( 'NONE', ( #239 ), #633, .T. ) ;
#489 = ORIENTED_EDGE ( 'NONE', *, *, #42, .T. ) ;
#490 = MANIFOLD_SOLID_BREP ( 'Cut-Extrude1', #908 ) ;
#491 = CARTESIAN_POINT ( 'NONE',  ( -0.7250000000000015321, 1.654048030000000002, 0.000000000000000000 ) ) ;
#492 = AXIS2_PLACEMENT_3D ( 'NONE', #734, #241, #310 ) ;
#493 = LINE ( 'NONE', #142, #844 ) ;
#494 = ORIENTED_EDGE ( 'NONE', *, *, #887, .F. ) ;
#495 = CIRCLE ( 'NONE', #107, 0.1249999999999999029 ) ;
#496 = VECTOR ( 'NONE', #702, 39.37007874015748143 ) ;
#497 = DIRECTION ( 'NONE',  ( -1.000000000000000000, 0.000000000000000000, 0.000000000000000000 ) ) ;
#498 = LINE ( 'NONE', #100, #706 ) ;
#499 = EDGE_CURVE ( 'NONE', #991, #162, #160, .T. ) ;
#500 = FACE_OUTER_BOUND ( 'NONE', #807, .T. ) ;
#501 = DIRECTION ( 'NONE',  ( -1.000000000000000000, 0.000000000000000000, 0.000000000000000000 ) ) ;
#502 = AXIS2_PLACEMENT_3D ( 'NONE', #938, #760, #619 ) ;
#503 = AXIS2_PLACEMENT_3D ( 'NONE', #621, #523, #456 ) ;
#504 = CARTESIAN_POINT ( 'NONE',  ( 1.375000000000002220, -2.268589759999999789, 20.21499999999999986 ) ) ;
#505 = FACE_OUTER_BOUND ( 'NONE', #67, .T. ) ;
#506 = LINE ( 'NONE', #838, #22 ) ;
#507 = EDGE_CURVE ( 'NONE', #451, #611, #568, .T. ) ;
#508 = CARTESIAN_POINT ( 'NONE',  ( -0.3750000000000000555, 0.8882999999999998675, 20.21499999999999986 ) ) ;
#509 = CARTESIAN_POINT ( 'NONE',  ( 1.375000000000001332, -1.143589760000000011, 20.21499999999999986 ) ) ;
#510 = CARTESIAN_POINT ( 'NONE',  ( 0.8883000000000015328, -2.143589759999999789, 20.21499999999999986 ) ) ;
#511 = DIRECTION ( 'NONE',  ( 1.000000000000000000, -0.000000000000000000, -0.000000000000000000 ) ) ;
#512 = VECTOR ( 'NONE', #487, 39.37007874015748143 ) ;
#513 = ADVANCED_FACE ( 'NONE', ( #398 ), #647, .F. ) ;
#514 = CARTESIAN_POINT ( 'NONE',  ( 0.7633000000000003116, -1.018589759999999789, 20.21499999999999986 ) ) ;
#515 = CARTESIAN_POINT ( 'NONE',  ( 0.4346334662678427163, -0.05000000000000004441, 20.21499999999999986 ) ) ;
#516 = EDGE_CURVE ( 'NONE', #847, #248, #563, .T. ) ;
#517 = CARTESIAN_POINT ( 'NONE',  ( 1.375000000000002220, -2.268589759999999789, 20.21499999999999986 ) ) ;
#518 = VECTOR ( 'NONE', #657, 39.37007874015748143 ) ;
#519 = CIRCLE ( 'NONE', #492, 0.2249999999999999223 ) ;
#520 = VERTEX_POINT ( 'NONE', #737 ) ;
#521 = DIRECTION ( 'NONE',  ( -0.000000000000000000, -0.000000000000000000, -1.000000000000000000 ) ) ;
#522 = CARTESIAN_POINT ( 'NONE',  ( 0.8883000000000008667, -1.018589759999999789, 20.21499999999999986 ) ) ;
#523 = DIRECTION ( 'NONE',  ( 0.000000000000000000, 0.000000000000000000, 1.000000000000000000 ) ) ;
#524 = VECTOR ( 'NONE', #392, 39.37007874015748143 ) ;
#525 = ORIENTED_EDGE ( 'NONE', *, *, #507, .T. ) ;
#526 = DIRECTION ( 'NONE',  ( -1.000000000000000000, 0.000000000000000000, 0.000000000000000000 ) ) ;
#527 = ORIENTED_EDGE ( 'NONE', *, *, #630, .T. ) ;
#528 = DIRECTION ( 'NONE',  ( 0.000000000000000000, 0.000000000000000000, 1.000000000000000000 ) ) ;
#529 = ORIENTED_EDGE ( 'NONE', *, *, #425, .F. ) ;
#530 = ORIENTED_EDGE ( 'NONE', *, *, #499, .F. ) ;
#531 = ORIENTED_EDGE ( 'NONE', *, *, #1037, .T. ) ;
#532 = DIRECTION ( 'NONE',  ( -0.000000000000000000, -0.000000000000000000, -1.000000000000000000 ) ) ;
#533 = CARTESIAN_POINT ( 'NONE',  ( 0.8883000000000015328, -1.893589760000000233, 0.000000000000000000 ) ) ;
#534 = VECTOR ( 'NONE', #579, 39.37007874015748143 ) ;
#535 = CIRCLE ( 'NONE', #503, 0.2249999999999999223 ) ;
#536 = CARTESIAN_POINT ( 'NONE',  ( -0.5000000000000000000, 1.429048029999998581, 20.21499999999999986 ) ) ;
#537 = VERTEX_POINT ( 'NONE', #152 ) ;
#538 = EDGE_CURVE ( 'NONE', #248, #319, #61, .T. ) ;
#539 = ORIENTED_EDGE ( 'NONE', *, *, #614, .T. ) ;
#540 = CARTESIAN_POINT ( 'NONE',  ( 0.7633000000000003116, 0.05000000000000014849, 20.11499999999999844 ) ) ;
#541 = ORIENTED_EDGE ( 'NONE', *, *, #538, .F. ) ;
#542 = DIRECTION ( 'NONE',  ( 1.000000000000000000, 0.000000000000000000, 0.000000000000000000 ) ) ;
#543 = FACE_OUTER_BOUND ( 'NONE', #1048, .T. ) ;
#544 = CARTESIAN_POINT ( 'NONE',  ( 0.000000000000000000, 0.000000000000000000, 0.000000000000000000 ) ) ;
#545 = ORIENTED_EDGE ( 'NONE', *, *, #736, .F. ) ;
#546 = DIRECTION ( 'NONE',  ( 1.000000000000000000, 0.000000000000000000, 0.000000000000000000 ) ) ;
#547 = ORIENTED_EDGE ( 'NONE', *, *, #92, .F. ) ;
#548 = ORIENTED_EDGE ( 'NONE', *, *, #984, .T. ) ;
#549 = VERTEX_POINT ( 'NONE', #391 ) ;
#550 = CIRCLE ( 'NONE', #413, 0.4375000000000000000 ) ;
#551 = ORIENTED_EDGE ( 'NONE', *, *, #820, .T. ) ;
#552 = CARTESIAN_POINT ( 'NONE',  ( -0.5000000000000000000, 0.8882999999999998675, 20.21499999999999986 ) ) ;
#553 = FACE_OUTER_BOUND ( 'NONE', #771, .T. ) ;
#554 = ORIENTED_EDGE ( 'NONE', *, *, #833, .F. ) ;
#555 = DIRECTION ( 'NONE',  ( -1.000000000000000000, 1.532979520265336128E-15, 0.000000000000000000 ) ) ;
#556 = EDGE_CURVE ( 'NONE', #370, #1043, #798, .T. ) ;
#557 = AXIS2_PLACEMENT_3D ( 'NONE', #1017, #20, #610 ) ;
#558 = DIRECTION ( 'NONE',  ( 1.000000000000000000, 0.000000000000000000, 0.000000000000000000 ) ) ;
#559 = DIRECTION ( 'NONE',  ( -1.456985596620939397E-15, 1.000000000000000000, 0.000000000000000000 ) ) ;
#560 = CARTESIAN_POINT ( 'NONE',  ( -0.7749999999999991340, 1.429048030000000136, 20.21499999999999986 ) ) ;
#561 = ORIENTED_EDGE ( 'NONE', *, *, #257, .T. ) ;
#562 = CARTESIAN_POINT ( 'NONE',  ( -0.5000000000000000000, 0.8882999999999998675, 0.000000000000000000 ) ) ;
#563 = LINE ( 'NONE', #895, #15 ) ;
#564 = DIRECTION ( 'NONE',  ( -0.000000000000000000, -0.000000000000000000, -1.000000000000000000 ) ) ;
#565 = ORIENTED_EDGE ( 'NONE', *, *, #217, .T. ) ;
#566 = PLANE ( 'NONE',  #51 ) ;
#567 = ADVANCED_FACE ( 'NONE', ( #586 ), #909, .T. ) ;
#568 = LINE ( 'NONE', #414, #756 ) ;
#569 = AXIS2_PLACEMENT_3D ( 'NONE', #508, #1003, #929 ) ;
#570 = ORIENTED_EDGE ( 'NONE', *, *, #238, .F. ) ;
#571 = CARTESIAN_POINT ( 'NONE',  ( 0.7633000000000014218, -1.893589760000000233, 20.21499999999999986 ) ) ;
#572 = CARTESIAN_POINT ( 'NONE',  ( -0.9999999999999990008, -2.500000000000000000, 20.21499999999999986 ) ) ;
#573 = VERTEX_POINT ( 'NONE', #827 ) ;
#574 = EDGE_CURVE ( 'NONE', #962, #972, #919, .T. ) ;
#575 = VECTOR ( 'NONE', #745, 39.37007874015748143 ) ;
#576 = VECTOR ( 'NONE', #50, 39.37007874015748143 ) ;
#577 = LINE ( 'NONE', #340, #640 ) ;
#578 = ORIENTED_EDGE ( 'NONE', *, *, #79, .T. ) ;
#579 = DIRECTION ( 'NONE',  ( 0.000000000000000000, 0.000000000000000000, 1.000000000000000000 ) ) ;
#580 = CIRCLE ( 'NONE', #997, 0.2249999999999999223 ) ;
#581 = PLANE ( 'NONE',  #825 ) ;
#582 = CARTESIAN_POINT ( 'NONE',  ( 1.375000000000002220, -1.768589760000000011, 20.21499999999999986 ) ) ;
#583 = DIRECTION ( 'NONE',  ( 1.000000000000000000, 0.000000000000000000, 0.000000000000000000 ) ) ;
#584 = EDGE_CURVE ( 'NONE', #700, #104, #660, .T. ) ;
#585 = DIRECTION ( 'NONE',  ( 0.000000000000000000, 0.000000000000000000, -1.000000000000000000 ) ) ;
#586 = FACE_OUTER_BOUND ( 'NONE', #355, .T. ) ;
#587 = AXIS2_PLACEMENT_3D ( 'NONE', #1027, #363, #526 ) ;
#588 = AXIS2_PLACEMENT_3D ( 'NONE', #89, #750, #260 ) ;
#589 = CARTESIAN_POINT ( 'NONE',  ( -0.9999999999999990008, -2.500000000000000000, 20.21499999999999986 ) ) ;
#590 = CARTESIAN_POINT ( 'NONE',  ( -0.9999999999999990008, -2.500000000000000000, 20.21499999999999986 ) ) ;
#591 = DIRECTION ( 'NONE',  ( -0.000000000000000000, -0.000000000000000000, -1.000000000000000000 ) ) ;
#592 = CARTESIAN_POINT ( 'NONE',  ( 0.4346334662678427163, -0.05000000000000004441, 20.21499999999999986 ) ) ;
#593 = EDGE_CURVE ( 'NONE', #701, #537, #328, .T. ) ;
#594 = PLANE ( 'NONE',  #1050 ) ;
#595 = VECTOR ( 'NONE', #673, 39.37007874015748143 ) ;
#596 = DIRECTION ( 'NONE',  ( -0.000000000000000000, -0.000000000000000000, -1.000000000000000000 ) ) ;
#597 = VECTOR ( 'NONE', #511, 39.37007874015748143 ) ;
#598 = DIRECTION ( 'NONE',  ( -1.000000000000000000, 0.000000000000000000, 0.000000000000000000 ) ) ;
#599 = ORIENTED_EDGE ( 'NONE', *, *, #887, .T. ) ;
#600 = DIRECTION ( 'NONE',  ( -0.000000000000000000, -0.000000000000000000, -1.000000000000000000 ) ) ;
#601 = CARTESIAN_POINT ( 'NONE',  ( 1.375000000000001332, -1.143589760000000011, 0.000000000000000000 ) ) ;
#602 = VERTEX_POINT ( 'NONE', #261 ) ;
#603 = LINE ( 'NONE', #952, #916 ) ;
#604 = DIRECTION ( 'NONE',  ( -0.000000000000000000, -0.000000000000000000, -1.000000000000000000 ) ) ;
#605 = EDGE_CURVE ( 'NONE', #818, #370, #506, .T. ) ;
#606 = CARTESIAN_POINT ( 'NONE',  ( -0.3750000000000000555, 0.8882999999999998675, 20.21499999999999986 ) ) ;
#607 = ORIENTED_EDGE ( 'NONE', *, *, #3, .T. ) ;
#608 = EDGE_LOOP ( 'NONE', ( #712, #302 ) ) ;
#609 = EDGE_LOOP ( 'NONE', ( #226, #628, #286, #796 ) ) ;
#610 = DIRECTION ( 'NONE',  ( -1.000000000000000000, 0.000000000000000000, 0.000000000000000000 ) ) ;
#611 = VERTEX_POINT ( 'NONE', #835 ) ;
#612 = CARTESIAN_POINT ( 'NONE',  ( -0.7499999999999990008, -2.750000000000000000, 0.000000000000000000 ) ) ;
#613 = EDGE_CURVE ( 'NONE', #708, #154, #2, .T. ) ;
#614 = EDGE_CURVE ( 'NONE', #951, #972, #332, .T. ) ;
#615 = ORIENTED_EDGE ( 'NONE', *, *, #959, .F. ) ;
#616 = VERTEX_POINT ( 'NONE', #676 ) ;
#617 = CYLINDRICAL_SURFACE ( 'NONE', #655, 0.2249999999999999223 ) ;
#618 = VERTEX_POINT ( 'NONE', #179 ) ;
#619 = DIRECTION ( 'NONE',  ( 1.000000000000000000, 0.000000000000000000, 0.000000000000000000 ) ) ;
#620 = LINE ( 'NONE', #953, #576 ) ;
#621 = CARTESIAN_POINT ( 'NONE',  ( -0.7249999999999998668, 1.429048030000000136, 20.21499999999999986 ) ) ;
#622 = EDGE_LOOP ( 'NONE', ( #457, #393, #961, #24, #636, #980, #943, #57 ) ) ;
#623 = AXIS2_PLACEMENT_3D ( 'NONE', #641, #410, #822 ) ;
#624 = ORIENTED_EDGE ( 'NONE', *, *, #770, .T. ) ;
#625 = CARTESIAN_POINT ( 'NONE',  ( 0.7633000000000014218, -1.893589760000000233, 20.21499999999999986 ) ) ;
#626 = VERTEX_POINT ( 'NONE', #90 ) ;
#627 = VERTEX_POINT ( 'NONE', #174 ) ;
#628 = ORIENTED_EDGE ( 'NONE', *, *, #217, .F. ) ;
#629 = EDGE_CURVE ( 'NONE', #400, #520, #246, .T. ) ;
#630 = EDGE_CURVE ( 'NONE', #438, #1026, #577, .T. ) ;
#631 =( CONVERSION_BASED_UNIT ( 'INCH', #469 ) LENGTH_UNIT ( ) NAMED_UNIT ( #262 ) );
#632 = ORIENTED_EDGE ( 'NONE', *, *, #238, .T. ) ;
#633 = PLANE ( 'NONE',  #623 ) ;
#634 = ADVANCED_FACE ( 'NONE', ( #163 ), #1002, .T. ) ;
#635 = LINE ( 'NONE', #625, #875 ) ;
#636 = ORIENTED_EDGE ( 'NONE', *, *, #507, .F. ) ;
#637 = VECTOR ( 'NONE', #9, 39.37007874015748143 ) ;
#638 = DIRECTION ( 'NONE',  ( -0.000000000000000000, -0.000000000000000000, -1.000000000000000000 ) ) ;
#639 = ORIENTED_EDGE ( 'NONE', *, *, #764, .T. ) ;
#640 = VECTOR ( 'NONE', #6, 39.37007874015748143 ) ;
#641 = CARTESIAN_POINT ( 'NONE',  ( 0.000000000000000000, 0.000000000000000000, 20.11499999999999844 ) ) ;
#642 = DIRECTION ( 'NONE',  ( -1.000000000000000000, 0.000000000000000000, 0.000000000000000000 ) ) ;
#643 = ORIENTED_EDGE ( 'NONE', *, *, #29, .F. ) ;
#644 = CARTESIAN_POINT ( 'NONE',  ( 0.8883000000000008667, -1.143589760000000011, 0.000000000000000000 ) ) ;
#645 = ORIENTED_EDGE ( 'NONE', *, *, #976, .T. ) ;
#646 = AXIS2_PLACEMENT_3D ( 'NONE', #944, #532, #290 ) ;
#647 = CYLINDRICAL_SURFACE ( 'NONE', #817, 0.1250000000000003053 ) ;
#648 = CARTESIAN_POINT ( 'NONE',  ( 0.8883000000000015328, -1.893589760000000233, 0.000000000000000000 ) ) ;
#649 = ORIENTED_EDGE ( 'NONE', *, *, #199, .T. ) ;
#650 = CARTESIAN_POINT ( 'NONE',  ( 1.375000000000002220, -1.768589760000000011, 0.000000000000000000 ) ) ;
#651 = APPLICATION_CONTEXT ( 'automotive_design' ) ;
#652 = PRESENTATION_STYLE_ASSIGNMENT (( #404 ) ) ;
#653 = ORIENTED_EDGE ( 'NONE', *, *, #58, .F. ) ;
#654 = CARTESIAN_POINT ( 'NONE',  ( 1.375000000000000444, -2.750000000000000000, 20.21499999999999986 ) ) ;
#655 = AXIS2_PLACEMENT_3D ( 'NONE', #560, #960, #642 ) ;
#656 = EDGE_CURVE ( 'NONE', #627, #370, #914, .T. ) ;
#657 = DIRECTION ( 'NONE',  ( -0.000000000000000000, -0.000000000000000000, -1.000000000000000000 ) ) ;
#658 = AXIS2_PLACEMENT_3D ( 'NONE', #155, #74, #267 ) ;
#659 = ORIENTED_EDGE ( 'NONE', *, *, #821, .F. ) ;
#660 = LINE ( 'NONE', #751, #717 ) ;
#661 = EDGE_LOOP ( 'NONE', ( #244, #1019, #141, #684 ) ) ;
#662 = LINE ( 'NONE', #1009, #242 ) ;
#663 = AXIS2_PLACEMENT_3D ( 'NONE', #318, #147, #307 ) ;
#664 = EDGE_CURVE ( 'NONE', #300, #738, #831, .T. ) ;
#665 = VECTOR ( 'NONE', #283, 39.37007874015748143 ) ;
#666 = DIRECTION ( 'NONE',  ( 1.000000000000000000, 0.000000000000000000, 0.000000000000000000 ) ) ;
#667 = DIRECTION ( 'NONE',  ( -0.000000000000000000, -0.000000000000000000, -1.000000000000000000 ) ) ;
#668 = ADVANCED_FACE ( 'NONE', ( #95 ), #617, .T. ) ;
#669 = DIRECTION ( 'NONE',  ( -0.000000000000000000, -0.000000000000000000, -1.000000000000000000 ) ) ;
#670 = EDGE_CURVE ( 'NONE', #289, #611, #369, .T. ) ;
#671 = AXIS2_PLACEMENT_3D ( 'NONE', #648, #979, #800 ) ;
#672 = FACE_OUTER_BOUND ( 'NONE', #801, .T. ) ;
#673 = DIRECTION ( 'NONE',  ( -0.000000000000000000, -0.000000000000000000, -1.000000000000000000 ) ) ;
#674 = CYLINDRICAL_SURFACE ( 'NONE', #928, 0.1249999999999999029 ) ;
#675 = DIRECTION ( 'NONE',  ( -1.000000000000000000, 0.000000000000000000, 0.000000000000000000 ) ) ;
#676 = CARTESIAN_POINT ( 'NONE',  ( -0.9999999999999990008, 1.429048029999998581, 20.21499999999999986 ) ) ;
#677 = EDGE_CURVE ( 'NONE', #874, #951, #890, .T. ) ;
#678 = CIRCLE ( 'NONE', #75, 0.1249999999999999029 ) ;
#679 = CARTESIAN_POINT ( 'NONE',  ( 1.375000000000000444, -2.750000000000000000, 0.000000000000000000 ) ) ;
#680 = FACE_OUTER_BOUND ( 'NONE', #622, .T. ) ;
#681 = LINE ( 'NONE', #1011, #1004 ) ;
#682 = DIRECTION ( 'NONE',  ( 1.000000000000000000, 0.000000000000000000, -0.000000000000000000 ) ) ;
#683 = VECTOR ( 'NONE', #127, 39.37007874015748143 ) ;
#684 = ORIENTED_EDGE ( 'NONE', *, *, #167, .T. ) ;
#685 = LINE ( 'NONE', #356, #358 ) ;
#686 = FACE_OUTER_BOUND ( 'NONE', #766, .T. ) ;
#687 = CIRCLE ( 'NONE', #311, 0.1249999999999999029 ) ;
#688 = EDGE_CURVE ( 'NONE', #52, #49, #1032, .T. ) ;
#689 = EDGE_LOOP ( 'NONE', ( #599, #941, #1066, #357 ) ) ;
#690 = CARTESIAN_POINT ( 'NONE',  ( 1.375000000000002220, -1.643589760000000233, 20.21499999999999986 ) ) ;
#691 = ORIENTED_EDGE ( 'NONE', *, *, #934, .T. ) ;
#692 = DIRECTION ( 'NONE',  ( -0.000000000000000000, -0.000000000000000000, -1.000000000000000000 ) ) ;
#693 = VERTEX_POINT ( 'NONE', #727 ) ;
#694 = EDGE_LOOP ( 'NONE', ( #411, #63, #285, #527 ) ) ;
#695 = ORIENTED_EDGE ( 'NONE', *, *, #688, .F. ) ;
#696 = DIRECTION ( 'NONE',  ( -0.000000000000000000, -0.000000000000000000, -1.000000000000000000 ) ) ;
#697 = CYLINDRICAL_SURFACE ( 'NONE', #192, 0.1250000000000005829 ) ;
#698 = EDGE_CURVE ( 'NONE', #1025, #376, #635, .T. ) ;
#699 = DIRECTION ( 'NONE',  ( 0.000000000000000000, 0.000000000000000000, 1.000000000000000000 ) ) ;
#700 = VERTEX_POINT ( 'NONE', #971 ) ;
#701 = VERTEX_POINT ( 'NONE', #723 ) ;
#702 = DIRECTION ( 'NONE',  ( 1.000000000000000000, 0.000000000000000000, 0.000000000000000000 ) ) ;
#703 = EDGE_LOOP ( 'NONE', ( #869, #547, #309, #489 ) ) ;
#704 = LINE ( 'NONE', #863, #28 ) ;
#705 = DIRECTION ( 'NONE',  ( -1.000000000000000000, 0.000000000000000000, 0.000000000000000000 ) ) ;
#706 = VECTOR ( 'NONE', #7, 39.37007874015748143 ) ;
#707 = CARTESIAN_POINT ( 'NONE',  ( 0.000000000000000000, 0.000000000000000000, 20.21499999999999986 ) ) ;
#708 = VERTEX_POINT ( 'NONE', #718 ) ;
#709 = ORIENTED_EDGE ( 'NONE', *, *, #783, .T. ) ;
#710 = EDGE_CURVE ( 'NONE', #724, #300, #321, .T. ) ;
#711 = LINE ( 'NONE', #295, #305 ) ;
#712 = ORIENTED_EDGE ( 'NONE', *, *, #1052, .T. ) ;
#713 = LINE ( 'NONE', #789, #759 ) ;
#714 = CARTESIAN_POINT ( 'NONE',  ( -0.4375000000000000000, 0.000000000000000000, 20.21499999999999986 ) ) ;
#715 = EDGE_CURVE ( 'NONE', #885, #972, #266, .T. ) ;
#716 = ORIENTED_EDGE ( 'NONE', *, *, #538, .T. ) ;
#717 = VECTOR ( 'NONE', #336, 39.37007874015748143 ) ;
#718 = CARTESIAN_POINT ( 'NONE',  ( 1.500000000000001554, -2.625000000000000000, 20.21499999999999986 ) ) ;
#719 = VERTEX_POINT ( 'NONE', #481 ) ;
#720 = DIRECTION ( 'NONE',  ( -1.000000000000000000, 0.000000000000000000, 0.000000000000000000 ) ) ;
#721 = VECTOR ( 'NONE', #394, 39.37007874015748143 ) ;
#722 = CARTESIAN_POINT ( 'NONE',  ( 0.000000000000000000, 0.000000000000000000, 0.000000000000000000 ) ) ;
#723 = CARTESIAN_POINT ( 'NONE',  ( 0.8883000000000015328, -1.768589759999999789, 20.21499999999999986 ) ) ;
#724 = VERTEX_POINT ( 'NONE', #806 ) ;
#725 = AXIS2_PLACEMENT_3D ( 'NONE', #173, #339, #675 ) ;
#726 = DIRECTION ( 'NONE',  ( 0.000000000000000000, 0.000000000000000000, 1.000000000000000000 ) ) ;
#727 = CARTESIAN_POINT ( 'NONE',  ( -0.4375000000000000000, 0.000000000000000000, 0.000000000000000000 ) ) ;
#728 = ORIENTED_EDGE ( 'NONE', *, *, #69, .F. ) ;
#729 = FACE_OUTER_BOUND ( 'NONE', #694, .T. ) ;
#730 = ORIENTED_EDGE ( 'NONE', *, *, #1015, .T. ) ;
#731 = VECTOR ( 'NONE', #692, 39.37007874015748143 ) ;
#732 = DIRECTION ( 'NONE',  ( 0.000000000000000000, 1.000000000000000000, 0.000000000000000000 ) ) ;
#733 = ORIENTED_EDGE ( 'NONE', *, *, #176, .F. ) ;
#734 = CARTESIAN_POINT ( 'NONE',  ( -0.7749999999999991340, 1.429048030000000136, 20.21499999999999986 ) ) ;
#735 = UNCERTAINTY_MEASURE_WITH_UNIT (LENGTH_MEASURE( 1.000000000000000082E-05 ), #224, 'distance_accuracy_value', 'NONE');
#736 = EDGE_CURVE ( 'NONE', #618, #885, #550, .T. ) ;
#737 = CARTESIAN_POINT ( 'NONE',  ( -0.3749999999999991673, 0.7632999999999999785, 0.000000000000000000 ) ) ;
#738 = VERTEX_POINT ( 'NONE', #308 ) ;
#739 = VECTOR ( 'NONE', #148, 39.37007874015748143 ) ;
#740 = CARTESIAN_POINT ( 'NONE',  ( 0.8883000000000015328, -1.893589760000000233, 20.21499999999999986 ) ) ;
#741 = VECTOR ( 'NONE', #638, 39.37007874015748143 ) ;
#742 = VERTEX_POINT ( 'NONE', #66 ) ;
#743 = CARTESIAN_POINT ( 'NONE',  ( 1.375000000000001332, -1.268589759999999789, 20.21499999999999986 ) ) ;
#744 = EDGE_CURVE ( 'NONE', #616, #240, #861, .T. ) ;
#745 = DIRECTION ( 'NONE',  ( -0.000000000000000000, -0.000000000000000000, -1.000000000000000000 ) ) ;
#746 = DIRECTION ( 'NONE',  ( -0.000000000000000000, -0.000000000000000000, -1.000000000000000000 ) ) ;
#747 = PLANE ( 'NONE',  #1063 ) ;
#748 = CARTESIAN_POINT ( 'NONE',  ( 1.375000000000001332, -1.268589759999999789, 20.21499999999999986 ) ) ;
#749 = DIRECTION ( 'NONE',  ( -1.000000000000000000, 0.000000000000000000, 0.000000000000000000 ) ) ;
#750 = DIRECTION ( 'NONE',  ( 0.000000000000000000, -1.000000000000000000, 0.000000000000000000 ) ) ;
#751 = CARTESIAN_POINT ( 'NONE',  ( 1.375000000000002220, -1.768589760000000011, 0.000000000000000000 ) ) ;
#752 = ADVANCED_FACE ( 'NONE', ( #314 ), #230, .T. ) ;
#753 = DIRECTION ( 'NONE',  ( 0.000000000000000000, 0.000000000000000000, 1.000000000000000000 ) ) ;
#754 = CARTESIAN_POINT ( 'NONE',  ( 1.375000000000001332, -2.625000000000000000, 0.000000000000000000 ) ) ;
#755 = CARTESIAN_POINT ( 'NONE',  ( 1.375000000000000444, -2.750000000000000000, 0.000000000000000000 ) ) ;
#756 = VECTOR ( 'NONE', #799, 39.37007874015748143 ) ;
#757 = ADVANCED_FACE ( 'NONE', ( #553, #787 ), #876, .F. ) ;
#758 = PLANE ( 'NONE',  #65 ) ;
#759 = VECTOR ( 'NONE', #939, 39.37007874015748143 ) ;
#760 = DIRECTION ( 'NONE',  ( 0.000000000000000000, 0.000000000000000000, 1.000000000000000000 ) ) ;
#761 = LINE ( 'NONE', #767, #447 ) ;
#762 = CIRCLE ( 'NONE', #396, 0.4375000000000000000 ) ;
#763 = ORIENTED_EDGE ( 'NONE', *, *, #390, .T. ) ;
#764 = EDGE_CURVE ( 'NONE', #573, #374, #580, .T. ) ;
#765 = CYLINDRICAL_SURFACE ( 'NONE', #646, 0.1250000000000001665 ) ;
#766 = EDGE_LOOP ( 'NONE', ( #882, #385, #208, #607 ) ) ;
#767 = CARTESIAN_POINT ( 'NONE',  ( 1.375000000000000444, -2.750000000000000000, 20.21499999999999986 ) ) ;
#768 = ORIENTED_EDGE ( 'NONE', *, *, #432, .T. ) ;
#769 = AXIS2_PLACEMENT_3D ( 'NONE', #932, #600, #542 ) ;
#770 = EDGE_CURVE ( 'NONE', #129, #742, #197, .T. ) ;
#771 = EDGE_LOOP ( 'NONE', ( #795, #380, #111, #329, #368, #728, #494, #59, #871, #315, #1047, #460, #813, #1056, #786, #54, #26, #280, #37, #906, #957, #541, #653, #223 ) ) ;
#772 = DIRECTION ( 'NONE',  ( 1.456985596620939397E-15, -1.000000000000000000, 0.000000000000000000 ) ) ;
#773 = ORIENTED_EDGE ( 'NONE', *, *, #1064, .T. ) ;
#774 = AXIS2_PLACEMENT_3D ( 'NONE', #23, #381, #930 ) ;
#775 = DIRECTION ( 'NONE',  ( 1.000000000000000000, 0.000000000000000000, 0.000000000000000000 ) ) ;
#776 = ORIENTED_EDGE ( 'NONE', *, *, #317, .T. ) ;
#777 = ORIENTED_EDGE ( 'NONE', *, *, #325, .T. ) ;
#778 = DIRECTION ( 'NONE',  ( 0.000000000000000000, 0.000000000000000000, 1.000000000000000000 ) ) ;
#779 = ORIENTED_EDGE ( 'NONE', *, *, #715, .F. ) ;
#780 = LINE ( 'NONE', #40, #228 ) ;
#781 = CARTESIAN_POINT ( 'NONE',  ( 1.375000000000001332, -1.143589760000000011, 20.21499999999999986 ) ) ;
#782 = DIRECTION ( 'NONE',  ( 1.000000000000000000, -0.000000000000000000, -0.000000000000000000 ) ) ;
#783 = EDGE_CURVE ( 'NONE', #885, #945, #711, .T. ) ;
#784 = ORIENTED_EDGE ( 'NONE', *, *, #584, .T. ) ;
#785 = VECTOR ( 'NONE', #62, 39.37007874015748143 ) ;
#786 = ORIENTED_EDGE ( 'NONE', *, *, #79, .F. ) ;
#787 = FACE_BOUND ( 'NONE', #608, .T. ) ;
#788 = ORIENTED_EDGE ( 'NONE', *, *, #946, .T. ) ;
#789 = CARTESIAN_POINT ( 'NONE',  ( -0.04999999999999993339, -0.05000000000000004441, 20.11499999999999844 ) ) ;
#790 = EDGE_LOOP ( 'NONE', ( #80, #1030, #125, #113 ) ) ;
#791 = CARTESIAN_POINT ( 'NONE',  ( -0.5000000000000000000, 0.8882999999999998675, 20.21499999999999986 ) ) ;
#792 = ORIENTED_EDGE ( 'NONE', *, *, #118, .F. ) ;
#793 = FACE_OUTER_BOUND ( 'NONE', #823, .T. ) ;
#794 = ORIENTED_EDGE ( 'NONE', *, *, #472, .T. ) ;
#795 = ORIENTED_EDGE ( 'NONE', *, *, #43, .F. ) ;
#796 = ORIENTED_EDGE ( 'NONE', *, *, #92, .T. ) ;
#797 = EDGE_LOOP ( 'NONE', ( #578, #530, #570, #281 ) ) ;
#798 = CIRCLE ( 'NONE', #430, 0.1249999999999999029 ) ;
#799 = DIRECTION ( 'NONE',  ( 0.000000000000000000, 1.000000000000000000, 0.000000000000000000 ) ) ;
#800 = DIRECTION ( 'NONE',  ( 1.000000000000000000, 0.000000000000000000, -0.000000000000000000 ) ) ;
#801 = EDGE_LOOP ( 'NONE', ( #784, #982, #219, #970 ) ) ;
#802 = CYLINDRICAL_SURFACE ( 'NONE', #658, 0.2499999999999999167 ) ;
#803 = CIRCLE ( 'NONE', #60, 0.1250000000000003053 ) ;
#804 = EDGE_CURVE ( 'NONE', #1043, #376, #135, .T. ) ;
#805 = ADVANCED_FACE ( 'NONE', ( #793 ), #55, .F. ) ;
#806 = CARTESIAN_POINT ( 'NONE',  ( 0.7632999999999999785, 0.5132999999999982021, 20.21499999999999986 ) ) ;
#807 = EDGE_LOOP ( 'NONE', ( #794, #1042, #190, #139 ) ) ;
#808 = VECTOR ( 'NONE', #812, 39.37007874015748143 ) ;
#809 = FACE_OUTER_BOUND ( 'NONE', #703, .T. ) ;
#810 = ORIENTED_EDGE ( 'NONE', *, *, #736, .T. ) ;
#811 = DIRECTION ( 'NONE',  ( -0.000000000000000000, -0.000000000000000000, -1.000000000000000000 ) ) ;
#812 = DIRECTION ( 'NONE',  ( -1.000000000000000000, -2.519225372246645646E-16, -0.000000000000000000 ) ) ;
#813 = ORIENTED_EDGE ( 'NONE', *, *, #764, .F. ) ;
#814 = FACE_OUTER_BOUND ( 'NONE', #1033, .T. ) ;
#815 = ADVANCED_FACE ( 'NONE', ( #178 ), #19, .F. ) ;
#816 = LINE ( 'NONE', #572, #905 ) ;
#817 = AXIS2_PLACEMENT_3D ( 'NONE', #740, #987, #243 ) ;
#818 = VERTEX_POINT ( 'NONE', #264 ) ;
#819 = DIRECTION ( 'NONE',  ( -1.000000000000000000, 0.000000000000000000, 0.000000000000000000 ) ) ;
#820 = EDGE_CURVE ( 'NONE', #52, #626, #331, .T. ) ;
#821 = EDGE_CURVE ( 'NONE', #945, #693, #762, .T. ) ;
#822 = DIRECTION ( 'NONE',  ( 1.000000000000000000, 0.000000000000000000, 0.000000000000000000 ) ) ;
#823 = EDGE_LOOP ( 'NONE', ( #949, #1045, #788, #72 ) ) ;
#824 = CIRCLE ( 'NONE', #21, 0.1250000000000001665 ) ;
#825 = AXIS2_PLACEMENT_3D ( 'NONE', #85, #418, #98 ) ;
#826 = ADVANCED_FACE ( 'NONE', ( #93 ), #594, .T. ) ;
#827 = CARTESIAN_POINT ( 'NONE',  ( -0.5000000000000000000, 1.429048029999998581, 0.000000000000000000 ) ) ;
#828 = DIRECTION ( 'NONE',  ( -0.000000000000000000, -0.000000000000000000, -1.000000000000000000 ) ) ;
#829 = VECTOR ( 'NONE', #33, 39.37007874015748143 ) ;
#830 = CARTESIAN_POINT ( 'NONE',  ( 1.375000000000002220, -1.768589760000000011, 20.21499999999999986 ) ) ;
#831 = LINE ( 'NONE', #86, #595 ) ;
#832 = CARTESIAN_POINT ( 'NONE',  ( -0.7749999999999974687, 1.654048030000000002, 0.000000000000000000 ) ) ;
#833 = EDGE_CURVE ( 'NONE', #451, #742, #427, .T. ) ;
#834 = PLANE ( 'NONE',  #588 ) ;
#835 = CARTESIAN_POINT ( 'NONE',  ( 0.7633000000000003116, -0.05000000000000004441, 20.21499999999999986 ) ) ;
#836 = DIRECTION ( 'NONE',  ( -1.000000000000000000, 0.000000000000000000, 0.000000000000000000 ) ) ;
#837 = DIRECTION ( 'NONE',  ( -1.000000000000000000, 0.000000000000000000, 0.000000000000000000 ) ) ;
#838 = CARTESIAN_POINT ( 'NONE',  ( 0.8883000000000015328, -2.143589759999999789, 0.000000000000000000 ) ) ;
#839 = VECTOR ( 'NONE', #258, 39.37007874015748143 ) ;
#840 = ADVANCED_FACE ( 'NONE', ( #672 ), #758, .F. ) ;
#841 = DIRECTION ( 'NONE',  ( -0.000000000000000000, -0.000000000000000000, -1.000000000000000000 ) ) ;
#842 = DIRECTION ( 'NONE',  ( 5.613001836170659289E-16, 1.000000000000000000, -0.000000000000000000 ) ) ;
#843 = FACE_OUTER_BOUND ( 'NONE', #450, .T. ) ;
#844 = VECTOR ( 'NONE', #471, 39.37007874015748143 ) ;
#845 = DIRECTION ( 'NONE',  ( -0.000000000000000000, -0.000000000000000000, 1.000000000000000000 ) ) ;
#846 = VECTOR ( 'NONE', #819, 39.37007874015748143 ) ;
#847 = VERTEX_POINT ( 'NONE', #153 ) ;
#848 = CARTESIAN_POINT ( 'NONE',  ( -0.5000000000000000000, 0.8883000000000008667, 0.000000000000000000 ) ) ;
#849 = CARTESIAN_POINT ( 'NONE',  ( 0.5132999999999983132, 0.7632999999999999785, 0.000000000000000000 ) ) ;
#850 = EDGE_CURVE ( 'NONE', #549, #962, #421, .T. ) ;
#851 = CARTESIAN_POINT ( 'NONE',  ( -0.9999999999999990008, -2.500000000000000000, 0.000000000000000000 ) ) ;
#852 = AXIS2_PLACEMENT_3D ( 'NONE', #590, #994, #585 ) ;
#853 = EDGE_CURVE ( 'NONE', #537, #104, #71, .T. ) ;
#854 = ORIENTED_EDGE ( 'NONE', *, *, #698, .F. ) ;
#855 = DIRECTION ( 'NONE',  ( 0.000000000000000000, 0.000000000000000000, 1.000000000000000000 ) ) ;
#856 = LINE ( 'NONE', #872, #161 ) ;
#857 = LINE ( 'NONE', #114, #172 ) ;
#858 = EDGE_LOOP ( 'NONE', ( #1059, #39, #539, #779, #545 ) ) ;
#859 = AXIS2_PLACEMENT_3D ( 'NONE', #25, #855, #112 ) ;
#860 = ORIENTED_EDGE ( 'NONE', *, *, #516, .T. ) ;
#861 = LINE ( 'NONE', #399, #683 ) ;
#862 = ORIENTED_EDGE ( 'NONE', *, *, #350, .T. ) ;
#863 = CARTESIAN_POINT ( 'NONE',  ( 0.8883000000000015328, -1.768589759999999789, 20.21499999999999986 ) ) ;
#864 = DIRECTION ( 'NONE',  ( -0.000000000000000000, -0.000000000000000000, -1.000000000000000000 ) ) ;
#865 = VECTOR ( 'NONE', #1036, 39.37007874015748143 ) ;
#866 = EDGE_CURVE ( 'NONE', #56, #52, #495, .T. ) ;
#867 = CARTESIAN_POINT ( 'NONE',  ( -0.7250000000000015321, 1.654048030000000002, 20.21499999999999986 ) ) ;
#868 = ORIENTED_EDGE ( 'NONE', *, *, #1037, .F. ) ;
#869 = ORIENTED_EDGE ( 'NONE', *, *, #69, .T. ) ;
#870 = DIRECTION ( 'NONE',  ( 1.000000000000000000, 0.000000000000000000, 0.000000000000000000 ) ) ;
#871 = ORIENTED_EDGE ( 'NONE', *, *, #272, .F. ) ;
#872 = CARTESIAN_POINT ( 'NONE',  ( 1.500000000000001554, -2.625000000000000000, 20.21499999999999986 ) ) ;
#873 = DIRECTION ( 'NONE',  ( -1.000000000000000000, -5.613001836170659289E-16, -0.000000000000000000 ) ) ;
#874 = VERTEX_POINT ( 'NONE', #1 ) ;
#875 = VECTOR ( 'NONE', #1058, 39.37007874015748143 ) ;
#876 = PLANE ( 'NONE',  #671 ) ;
#877 = ORIENTED_EDGE ( 'NONE', *, *, #327, .T. ) ;
#878 = LINE ( 'NONE', #1051, #973 ) ;
#879 = EDGE_CURVE ( 'NONE', #602, #818, #337, .T. ) ;
#880 = CIRCLE ( 'NONE', #569, 0.1249999999999999584 ) ;
#881 =( NAMED_UNIT ( * ) SI_UNIT ( $, .STERADIAN. ) SOLID_ANGLE_UNIT ( ) );
#882 = ORIENTED_EDGE ( 'NONE', *, *, #109, .T. ) ;
#883 = DIRECTION ( 'NONE',  ( -0.000000000000000000, -0.000000000000000000, -1.000000000000000000 ) ) ;
#884 = DIRECTION ( 'NONE',  ( -1.000000000000000000, -2.519225372246645646E-16, 0.000000000000000000 ) ) ;
#885 = VERTEX_POINT ( 'NONE', #255 ) ;
#886 = FACE_OUTER_BOUND ( 'NONE', #362, .T. ) ;
#887 = EDGE_CURVE ( 'NONE', #303, #294, #824, .T. ) ;
#888 = SHAPE_DEFINITION_REPRESENTATION ( #134, #103 ) ;
#889 = CARTESIAN_POINT ( 'NONE',  ( 0.7633000000000003116, -1.018589759999999789, 20.21499999999999986 ) ) ;
#890 = LINE ( 'NONE', #540, #739 ) ;
#891 = VERTEX_POINT ( 'NONE', #1014 ) ;
#892 = LINE ( 'NONE', #491, #721 ) ;
#893 = APPLICATION_PROTOCOL_DEFINITION ( 'draft international standard', 'automotive_design', 1998, #1000 ) ;
#894 = ADVANCED_FACE ( 'NONE', ( #500 ), #1006, .F. ) ;
#895 = CARTESIAN_POINT ( 'NONE',  ( 1.500000000000001998, -1.643589760000000233, 20.21499999999999986 ) ) ;
#896 = CARTESIAN_POINT ( 'NONE',  ( 1.375000000000002220, -1.768589760000000011, 20.21499999999999986 ) ) ;
#897 = EDGE_LOOP ( 'NONE', ( #937, #901, #1069, #270, #632, #486, #531, #467, #144, #121, #149, #645, #165, #395, #1016, #773, #361, #1023, #942, #1031, #768, #561, #32, #551, #216, #525, #910, #364, #30 ) ) ;
#898 = DIRECTION ( 'NONE',  ( -1.532979520265336128E-15, -1.000000000000000000, 0.000000000000000000 ) ) ;
#899 = PRODUCT_DEFINITION_CONTEXT ( 'detailed design', #1000, 'design' ) ;
#900 = VECTOR ( 'NONE', #836, 39.37007874015748143 ) ;
#901 = ORIENTED_EDGE ( 'NONE', *, *, #462, .T. ) ;
#902 = CARTESIAN_POINT ( 'NONE',  ( 0.5132999999999983132, 0.7632999999999999785, 20.21499999999999986 ) ) ;
#903 = ADVANCED_FACE ( 'NONE', ( #251 ), #581, .F. ) ;
#904 = SURFACE_STYLE_FILL_AREA ( #322 ) ;
#905 = VECTOR ( 'NONE', #156, 39.37007874015748143 ) ;
#906 = ORIENTED_EDGE ( 'NONE', *, *, #996, .F. ) ;
#907 = ADVANCED_FACE ( 'NONE', ( #680 ), #747, .F. ) ;
#908 = CLOSED_SHELL ( 'NONE', ( #8, #826, #757, #513, #840, #752, #344, #567, #903, #14, #907, #191, #924, #1049, #999, #367, #1005, #668, #894, #634, #132, #431, #184, #233, #815, #265, #177, #423, #805, #1072, #488 ) ) ;
#909 = CYLINDRICAL_SURFACE ( 'NONE', #99, 0.1249999999999999029 ) ;
#910 = ORIENTED_EDGE ( 'NONE', *, *, #670, .F. ) ;
#911 = AXIS2_PLACEMENT_3D ( 'NONE', #950, #209, #459 ) ;
#912 = FACE_OUTER_BOUND ( 'NONE', #206, .T. ) ;
#913 = DIRECTION ( 'NONE',  ( -1.000000000000000000, 5.613001836170659289E-16, 0.000000000000000000 ) ) ;
#914 = LINE ( 'NONE', #510, #131 ) ;
#915 = CARTESIAN_POINT ( 'NONE',  ( 1.500000000000001776, -1.643589760000000233, 20.21499999999999986 ) ) ;
#916 = VECTOR ( 'NONE', #521, 39.37007874015748143 ) ;
#917 = DIRECTION ( 'NONE',  ( 0.000000000000000000, 0.000000000000000000, 1.000000000000000000 ) ) ;
#918 = VECTOR ( 'NONE', #463, 39.37007874015748143 ) ;
#919 = LINE ( 'NONE', #923, #575 ) ;
#920 = DIRECTION ( 'NONE',  ( -1.456985596620939397E-15, 1.000000000000000000, 0.000000000000000000 ) ) ;
#921 = DIMENSIONAL_EXPONENTS ( 1.000000000000000000, 0.000000000000000000, 0.000000000000000000, 0.000000000000000000, 0.000000000000000000, 0.000000000000000000, 0.000000000000000000 ) ;
#922 = CARTESIAN_POINT ( 'NONE',  ( 0.000000000000000000, 0.000000000000000000, 0.000000000000000000 ) ) ;
#923 = CARTESIAN_POINT ( 'NONE',  ( 0.4346334662678427718, 0.05000000000000006523, 20.21499999999999986 ) ) ;
#924 = ADVANCED_FACE ( 'NONE', ( #505 ), #834, .F. ) ;
#925 = CARTESIAN_POINT ( 'NONE',  ( 1.500000000000001554, -2.625000000000000000, 0.000000000000000000 ) ) ;
#926 = AXIS2_PLACEMENT_3D ( 'NONE', #1040, #967, #218 ) ;
#927 = DIRECTION ( 'NONE',  ( 0.000000000000000000, 0.000000000000000000, 1.000000000000000000 ) ) ;
#928 = AXIS2_PLACEMENT_3D ( 'NONE', #504, #669, #428 ) ;
#929 = DIRECTION ( 'NONE',  ( -1.000000000000000000, 0.000000000000000000, 0.000000000000000000 ) ) ;
#930 = DIRECTION ( 'NONE',  ( 0.000000000000000000, 0.000000000000000000, 1.000000000000000000 ) ) ;
#931 = ORIENTED_EDGE ( 'NONE', *, *, #664, .T. ) ;
#932 = CARTESIAN_POINT ( 'NONE',  ( 0.8883000000000015328, -1.893589760000000233, 20.21499999999999986 ) ) ;
#933 = ORIENTED_EDGE ( 'NONE', *, *, #688, .T. ) ;
#934 = EDGE_CURVE ( 'NONE', #948, #289, #975, .T. ) ;
#935 = DIRECTION ( 'NONE',  ( -1.000000000000000000, 0.000000000000000000, 0.000000000000000000 ) ) ;
#936 = AXIS2_PLACEMENT_3D ( 'NONE', #379, #145, #78 ) ;
#937 = ORIENTED_EDGE ( 'NONE', *, *, #850, .F. ) ;
#938 = CARTESIAN_POINT ( 'NONE',  ( -0.7749999999999991340, 1.429048030000000136, 0.000000000000000000 ) ) ;
#939 = DIRECTION ( 'NONE',  ( 1.000000000000000000, 0.000000000000000000, 0.000000000000000000 ) ) ;
#940 = DIRECTION ( 'NONE',  ( 0.000000000000000000, 0.000000000000000000, 1.000000000000000000 ) ) ;
#941 = ORIENTED_EDGE ( 'NONE', *, *, #42, .F. ) ;
#942 = ORIENTED_EDGE ( 'NONE', *, *, #402, .T. ) ;
#943 = ORIENTED_EDGE ( 'NONE', *, *, #237, .T. ) ;
#944 = CARTESIAN_POINT ( 'NONE',  ( 1.375000000000001332, -2.625000000000000000, 20.21499999999999986 ) ) ;
#945 = VERTEX_POINT ( 'NONE', #947 ) ;
#946 = EDGE_CURVE ( 'NONE', #951, #549, #268, .T. ) ;
#947 = CARTESIAN_POINT ( 'NONE',  ( 0.4375000000000000000, 5.357829746269670127E-17, 0.000000000000000000 ) ) ;
#948 = VERTEX_POINT ( 'NONE', #714 ) ;
#949 = ORIENTED_EDGE ( 'NONE', *, *, #574, .T. ) ;
#950 = CARTESIAN_POINT ( 'NONE',  ( 1.375000000000002220, -1.643589760000000233, 20.21499999999999986 ) ) ;
#951 = VERTEX_POINT ( 'NONE', #436 ) ;
#952 = CARTESIAN_POINT ( 'NONE',  ( 1.500000000000001110, -1.268589759999999789, 20.21499999999999986 ) ) ;
#953 = CARTESIAN_POINT ( 'NONE',  ( 1.500000000000001554, -2.624999999999999556, 0.000000000000000000 ) ) ;
#954 = CIRCLE ( 'NONE', #405, 0.1249999999999999029 ) ;
#955 = PRESENTATION_LAYER_ASSIGNMENT (  '', '', ( #388 ) ) ;
#956 = FACE_OUTER_BOUND ( 'NONE', #797, .T. ) ;
#957 = ORIENTED_EDGE ( 'NONE', *, *, #984, .F. ) ;
#958 = AXIS2_PLACEMENT_3D ( 'NONE', #654, #981, #726 ) ;
#959 = EDGE_CURVE ( 'NONE', #948, #693, #365, .T. ) ;
#960 = DIRECTION ( 'NONE',  ( -0.000000000000000000, -0.000000000000000000, -1.000000000000000000 ) ) ;
#961 = ORIENTED_EDGE ( 'NONE', *, *, #677, .F. ) ;
#962 = VERTEX_POINT ( 'NONE', #130 ) ;
#963 = ORIENTED_EDGE ( 'NONE', *, *, #664, .F. ) ;
#964 =( NAMED_UNIT ( * ) PLANE_ANGLE_UNIT ( ) SI_UNIT ( $, .RADIAN. ) );
#965 = AXIS2_PLACEMENT_3D ( 'NONE', #384, #1046, #884 ) ;
#966 = VERTEX_POINT ( 'NONE', #360 ) ;
#967 = DIRECTION ( 'NONE',  ( 0.000000000000000000, 0.000000000000000000, 1.000000000000000000 ) ) ;
#968 = ORIENTED_EDGE ( 'NONE', *, *, #1052, .F. ) ;
#969 = PLANE ( 'NONE',  #426 ) ;
#970 = ORIENTED_EDGE ( 'NONE', *, *, #409, .T. ) ;
#971 = CARTESIAN_POINT ( 'NONE',  ( 0.8883000000000015328, -1.768589759999999789, 0.000000000000000000 ) ) ;
#972 = VERTEX_POINT ( 'NONE', #108 ) ;
#973 = VECTOR ( 'NONE', #732, 39.37007874015748143 ) ;
#974 = DIRECTION ( 'NONE',  ( -1.000000000000000000, 0.000000000000000000, 0.000000000000000000 ) ) ;
#975 = CIRCLE ( 'NONE', #313, 0.4375000000000000000 ) ;
#976 = EDGE_CURVE ( 'NONE', #438, #36, #761, .T. ) ;
#977 = DIRECTION ( 'NONE',  ( 0.000000000000000000, -1.000000000000000000, 0.000000000000000000 ) ) ;
#978 = DIRECTION ( 'NONE',  ( 0.000000000000000000, 1.000000000000000000, 0.000000000000000000 ) ) ;
#979 = DIRECTION ( 'NONE',  ( 0.000000000000000000, 0.000000000000000000, 1.000000000000000000 ) ) ;
#980 = ORIENTED_EDGE ( 'NONE', *, *, #833, .T. ) ;
#981 = DIRECTION ( 'NONE',  ( 0.000000000000000000, 1.000000000000000000, -0.000000000000000000 ) ) ;
#982 = ORIENTED_EDGE ( 'NONE', *, *, #853, .F. ) ;
#983 = CARTESIAN_POINT ( 'NONE',  ( -0.7749999999999974687, 1.654048030000000002, 20.21499999999999986 ) ) ;
#984 = EDGE_CURVE ( 'NONE', #319, #49, #678, .T. ) ;
#985 = UNCERTAINTY_MEASURE_WITH_UNIT (LENGTH_MEASURE( 1.000000000000000082E-05 ), #631, 'distance_accuracy_value', 'NONE');
#986 = CIRCLE ( 'NONE', #183, 0.2499999999999999167 ) ;
#987 = DIRECTION ( 'NONE',  ( -0.000000000000000000, -0.000000000000000000, -1.000000000000000000 ) ) ;
#988 = ORIENTED_EDGE ( 'NONE', *, *, #3, .F. ) ;
#989 = DIRECTION ( 'NONE',  ( 1.532979520265336128E-15, 1.000000000000000000, 0.000000000000000000 ) ) ;
#990 = VECTOR ( 'NONE', #559, 39.37007874015748143 ) ;
#991 = VERTEX_POINT ( 'NONE', #791 ) ;
#992 = LINE ( 'NONE', #515, #534 ) ;
#993 = AXIS2_PLACEMENT_3D ( 'NONE', #1067, #1055, #64 ) ;
#994 = DIRECTION ( 'NONE',  ( 1.000000000000000000, 0.000000000000000000, 0.000000000000000000 ) ) ;
#995 = DIRECTION ( 'NONE',  ( -1.000000000000000000, -2.519225372246645646E-16, -0.000000000000000000 ) ) ;
#996 = EDGE_CURVE ( 'NONE', #49, #129, #124, .T. ) ;
#997 = AXIS2_PLACEMENT_3D ( 'NONE', #452, #778, #870 ) ;
#998 = CARTESIAN_POINT ( 'NONE',  ( -0.7250000000000015321, 1.654048030000000002, 20.21499999999999986 ) ) ;
#999 = ADVANCED_FACE ( 'NONE', ( #53 ), #193, .F. ) ;
#1000 = APPLICATION_CONTEXT ( 'automotive_design' ) ;
#1001 = DIRECTION ( 'NONE',  ( 0.000000000000000000, 0.000000000000000000, 1.000000000000000000 ) ) ;
#1002 = CYLINDRICAL_SURFACE ( 'NONE', #180, 0.2499999999999999167 ) ;
#1003 = DIRECTION ( 'NONE',  ( -0.000000000000000000, -0.000000000000000000, -1.000000000000000000 ) ) ;
#1004 = VECTOR ( 'NONE', #250, 39.37007874015748143 ) ;
#1005 = ADVANCED_FACE ( 'NONE', ( #686 ), #186, .F. ) ;
#1006 = PLANE ( 'NONE',  #852 ) ;
#1007 = CIRCLE ( 'NONE', #343, 0.4375000000000000000 ) ;
#1008 = DIRECTION ( 'NONE',  ( -1.000000000000000000, 0.000000000000000000, 0.000000000000000000 ) ) ;
#1009 = CARTESIAN_POINT ( 'NONE',  ( 1.500000000000001776, -1.643589760000000233, 20.21499999999999986 ) ) ;
#1010 = CARTESIAN_POINT ( 'NONE',  ( 0.8883000000000015328, -1.893589760000000233, 20.21499999999999986 ) ) ;
#1011 = CARTESIAN_POINT ( 'NONE',  ( 0.7633000000000016438, -2.018589760000000233, 20.21499999999999986 ) ) ;
#1012 = EDGE_CURVE ( 'NONE', #154, #202, #954, .T. ) ;
#1013 = AXIS2_PLACEMENT_3D ( 'NONE', #143, #225, #473 ) ;
#1014 = CARTESIAN_POINT ( 'NONE',  ( -0.5000000000000000000, 1.429048029999998581, 20.21499999999999986 ) ) ;
#1015 = EDGE_CURVE ( 'NONE', #891, #573, #292, .T. ) ;
#1016 = ORIENTED_EDGE ( 'NONE', *, *, #1012, .T. ) ;
#1017 = CARTESIAN_POINT ( 'NONE',  ( 0.000000000000000000, 0.000000000000000000, 20.21499999999999986 ) ) ;
#1018 = LINE ( 'NONE', #284, #359 ) ;
#1019 = ORIENTED_EDGE ( 'NONE', *, *, #435, .F. ) ;
#1020 = DIRECTION ( 'NONE',  ( -1.000000000000000000, -1.456985596620939397E-15, 0.000000000000000000 ) ) ;
#1021 = ORIENTED_EDGE ( 'NONE', *, *, #327, .F. ) ;
#1022 = CARTESIAN_POINT ( 'NONE',  ( 0.7633000000000016438, -2.018589760000000233, 0.000000000000000000 ) ) ;
#1023 = ORIENTED_EDGE ( 'NONE', *, *, #176, .T. ) ;
#1024 = EDGE_CURVE ( 'NONE', #874, #611, #1018, .T. ) ;
#1025 = VERTEX_POINT ( 'NONE', #273 ) ;
#1026 = VERTEX_POINT ( 'NONE', #612 ) ;
#1027 = CARTESIAN_POINT ( 'NONE',  ( -0.7249999999999998668, 1.429048030000000136, 20.21499999999999986 ) ) ;
#1028 = VERTEX_POINT ( 'NONE', #867 ) ;
#1029 = CARTESIAN_POINT ( 'NONE',  ( -0.7250000000000015321, 1.654048030000000002, 20.21499999999999986 ) ) ;
#1030 = ORIENTED_EDGE ( 'NONE', *, *, #630, .F. ) ;
#1031 = ORIENTED_EDGE ( 'NONE', *, *, #593, .T. ) ;
#1032 = LINE ( 'NONE', #234, #785 ) ;
#1033 = EDGE_LOOP ( 'NONE', ( #383, #854, #733, #777 ) ) ;
#1034 = CARTESIAN_POINT ( 'NONE',  ( -0.7499999999999990008, -2.750000000000000000, 20.21499999999999986 ) ) ;
#1035 = CARTESIAN_POINT ( 'NONE',  ( 1.375000000000002220, -1.643589760000000233, 0.000000000000000000 ) ) ;
#1036 = DIRECTION ( 'NONE',  ( -0.000000000000000000, -0.000000000000000000, 1.000000000000000000 ) ) ;
#1037 = EDGE_CURVE ( 'NONE', #891, #1028, #535, .T. ) ;
#1038 = VERTEX_POINT ( 'NONE', #851 ) ;
#1039 = ORIENTED_EDGE ( 'NONE', *, *, #1015, .F. ) ;
#1040 = CARTESIAN_POINT ( 'NONE',  ( 0.5133000000000000895, 0.5133000000000000895, 20.21499999999999986 ) ) ;
#1041 = ORIENTED_EDGE ( 'NONE', *, *, #710, .F. ) ;
#1042 = ORIENTED_EDGE ( 'NONE', *, *, #479, .F. ) ;
#1043 = VERTEX_POINT ( 'NONE', #1022 ) ;
#1044 = DIRECTION ( 'NONE',  ( 0.000000000000000000, -0.000000000000000000, -1.000000000000000000 ) ) ;
#1045 = ORIENTED_EDGE ( 'NONE', *, *, #614, .F. ) ;
#1046 = DIRECTION ( 'NONE',  ( -2.519225372246645646E-16, 1.000000000000000000, 0.000000000000000000 ) ) ;
#1047 = ORIENTED_EDGE ( 'NONE', *, *, #354, .F. ) ;
#1048 = EDGE_LOOP ( 'NONE', ( #624, #554, #792, #468 ) ) ;
#1049 = ADVANCED_FACE ( 'NONE', ( #956 ), #44, .F. ) ;
#1050 = AXIS2_PLACEMENT_3D ( 'NONE', #1010, #927, #682 ) ;
#1051 = CARTESIAN_POINT ( 'NONE',  ( -0.5000000000000000000, 0.8883000000000008667, 20.21499999999999986 ) ) ;
#1052 = EDGE_CURVE ( 'NONE', #693, #945, #1007, .T. ) ;
#1053 = DIRECTION ( 'NONE',  ( -0.000000000000000000, -0.000000000000000000, -1.000000000000000000 ) ) ;
#1054 = EDGE_LOOP ( 'NONE', ( #128, #474, #458, #649, #1062, #659 ) ) ;
#1055 = DIRECTION ( 'NONE',  ( -0.000000000000000000, -0.000000000000000000, -1.000000000000000000 ) ) ;
#1056 = ORIENTED_EDGE ( 'NONE', *, *, #390, .F. ) ;
#1057 =( NAMED_UNIT ( * ) PLANE_ANGLE_UNIT ( ) SI_UNIT ( $, .RADIAN. ) );
#1058 = DIRECTION ( 'NONE',  ( -0.000000000000000000, -0.000000000000000000, -1.000000000000000000 ) ) ;
#1059 = ORIENTED_EDGE ( 'NONE', *, *, #29, .T. ) ;
#1060 = VECTOR ( 'NONE', #978, 39.37007874015748143 ) ;
#1061 = CARTESIAN_POINT ( 'NONE',  ( -0.7499999999999990008, -2.500000000000000000, 20.21499999999999986 ) ) ;
#1062 = ORIENTED_EDGE ( 'NONE', *, *, #959, .T. ) ;
#1063 = AXIS2_PLACEMENT_3D ( 'NONE', #5, #335, #917 ) ;
#1064 = EDGE_CURVE ( 'NONE', #202, #627, #857, .T. ) ;
#1065 = CARTESIAN_POINT ( 'NONE',  ( 0.7632999999999999785, -1.018589759999999789, 20.21499999999999986 ) ) ;
#1066 = ORIENTED_EDGE ( 'NONE', *, *, #382, .F. ) ;
#1067 = CARTESIAN_POINT ( 'NONE',  ( 0.8883000000000008667, -1.018589759999999789, 20.21499999999999986 ) ) ;
#1068 =( NAMED_UNIT ( * ) SI_UNIT ( $, .STERADIAN. ) SOLID_ANGLE_UNIT ( ) );
#1069 = ORIENTED_EDGE ( 'NONE', *, *, #710, .T. ) ;
#1070 = VECTOR ( 'NONE', #995, 39.37007874015748143 ) ;
#1071 = AXIS2_PLACEMENT_3D ( 'NONE', #181, #596, #749 ) ;
#1072 = ADVANCED_FACE ( 'NONE', ( #448 ), #222, .F. ) ;
#1073 = LENGTH_MEASURE_WITH_UNIT ( LENGTH_MEASURE( 0.02539999999999999897 ), #480 );
#1074 = ORIENTED_EDGE ( 'NONE', *, *, #58, .T. ) ;
#1075 = LINE ( 'NONE', #185, #403 ) ;
ENDSEC;
END-ISO-10303-21;
