ISO-10303-21;
HEADER;
FILE_DESCRIPTION (( 'STEP AP214' ),
    '1' );
FILE_NAME ('T-Slot Mount.STEP',
    '2026-04-27T21:59:24',
    ( '' ),
    ( '' ),
    'SwSTEP 2.0',
    'SolidWorks 2025',
    '' );
FILE_SCHEMA (( 'AUTOMOTIVE_DESIGN' ));
ENDSEC;

DATA;
#1 = APPLICATION_CONTEXT ( 'automotive_design' ) ;
#2 = EDGE_CURVE ( 'NONE', #361, #586, #244, .T. ) ;
#3 = LINE ( 'NONE', #448, #121 ) ;
#4 = DIRECTION ( 'NONE',  ( 0.000000000000000000, 0.000000000000000000, 1.000000000000000000 ) ) ;
#5 = ADVANCED_FACE ( 'NONE', ( #675 ), #204, .F. ) ;
#6 = VERTEX_POINT ( 'NONE', #406 ) ;
#7 = VECTOR ( 'NONE', #229, 1000.000000000000000 ) ;
#8 = EDGE_CURVE ( 'NONE', #261, #205, #493, .T. ) ;
#9 = CYLINDRICAL_SURFACE ( 'NONE', #248, 3.751199874999998407 ) ;
#10 = DIRECTION ( 'NONE',  ( 0.000000000000000000, 0.000000000000000000, -1.000000000000000000 ) ) ;
#11 = ORIENTED_EDGE ( 'NONE', *, *, #694, .T. ) ;
#12 = CARTESIAN_POINT ( 'NONE',  ( -25.40000000000000924, 5.349999999999999645, 0.000000000000000000 ) ) ;
#13 = VERTEX_POINT ( 'NONE', #298 ) ;
#14 = DIRECTION ( 'NONE',  ( -1.000000000000000000, 0.000000000000000000, 0.000000000000000000 ) ) ;
#15 = CARTESIAN_POINT ( 'NONE',  ( -25.40000000000000924, 5.349999999999999645, -5.500000000000000000 ) ) ;
#16 = ORIENTED_EDGE ( 'NONE', *, *, #579, .F. ) ;
#17 = AXIS2_PLACEMENT_3D ( 'NONE', #40, #543, #276 ) ;
#18 = CIRCLE ( 'NONE', #680, 3.751199874999998407 ) ;
#19 = SURFACE_SIDE_STYLE ('',( #381 ) ) ;
#20 = ORIENTED_EDGE ( 'NONE', *, *, #538, .F. ) ;
#21 = PRODUCT_RELATED_PRODUCT_CATEGORY ( 'part', '', ( #262 ) ) ;
#22 = CARTESIAN_POINT ( 'NONE',  ( 0.000000000000000000, 12.69999999999999929, 12.69999999999999929 ) ) ;
#23 = ORIENTED_EDGE ( 'NONE', *, *, #125, .F. ) ;
#24 = EDGE_CURVE ( 'NONE', #77, #523, #633, .T. ) ;
#25 = FACE_OUTER_BOUND ( 'NONE', #279, .T. ) ;
#26 = CARTESIAN_POINT ( 'NONE',  ( 38.09999999999999432, 12.69999999999999929, -12.69999999999999929 ) ) ;
#27 = CIRCLE ( 'NONE', #183, 5.500000000000000000 ) ;
#28 = AXIS2_PLACEMENT_3D ( 'NONE', #699, #333, #285 ) ;
#29 = LINE ( 'NONE', #198, #94 ) ;
#30 = EDGE_LOOP ( 'NONE', ( #566, #444 ) ) ;
#31 = ADVANCED_BREP_SHAPE_REPRESENTATION ( 'T-Slot Mount', ( #163, #400 ), #585 ) ;
#32 = PRODUCT_DEFINITION_CONTEXT ( 'detailed design', #441, 'design' ) ;
#33 = LINE ( 'NONE', #191, #458 ) ;
#34 = DIRECTION ( 'NONE',  ( -0.000000000000000000, -1.000000000000000000, -0.000000000000000000 ) ) ;
#35 = LINE ( 'NONE', #195, #541 ) ;
#36 = EDGE_LOOP ( 'NONE', ( #591, #642, #268, #231 ) ) ;
#37 = EDGE_CURVE ( 'NONE', #525, #549, #669, .T. ) ;
#38 = VECTOR ( 'NONE', #364, 1000.000000000000000 ) ;
#39 = DIRECTION ( 'NONE',  ( 0.000000000000000000, 0.000000000000000000, 1.000000000000000000 ) ) ;
#40 = CARTESIAN_POINT ( 'NONE',  ( -25.40000000000000924, 5.349999999999999645, 0.000000000000000000 ) ) ;
#41 = VERTEX_POINT ( 'NONE', #515 ) ;
#42 = CARTESIAN_POINT ( 'NONE',  ( 0.000000000000000000, 12.69999999999999929, 0.000000000000000000 ) ) ;
#43 = CARTESIAN_POINT ( 'NONE',  ( -12.70000000000000107, 12.69999999999999929, 12.69999999999999929 ) ) ;
#44 = VERTEX_POINT ( 'NONE', #26 ) ;
#45 = CARTESIAN_POINT ( 'NONE',  ( 25.39999999999996660, 5.349999999999999645, 0.000000000000000000 ) ) ;
#46 = FACE_OUTER_BOUND ( 'NONE', #136, .T. ) ;
#47 = ORIENTED_EDGE ( 'NONE', *, *, #87, .T. ) ;
#48 = EDGE_CURVE ( 'NONE', #492, #665, #119, .T. ) ;
#49 = DIRECTION ( 'NONE',  ( 0.000000000000000000, 0.000000000000000000, 1.000000000000000000 ) ) ;
#50 = VECTOR ( 'NONE', #427, 1000.000000000000000 ) ;
#51 = CARTESIAN_POINT ( 'NONE',  ( -12.70000000000000107, 19.04999999999999716, -1.734723475976807094E-15 ) ) ;
#52 = VERTEX_POINT ( 'NONE', #422 ) ;
#53 = LINE ( 'NONE', #603, #494 ) ;
#54 = FACE_OUTER_BOUND ( 'NONE', #234, .T. ) ;
#55 = ADVANCED_FACE ( 'NONE', ( #272 ), #589, .F. ) ;
#56 = ORIENTED_EDGE ( 'NONE', *, *, #206, .F. ) ;
#57 = ADVANCED_FACE ( 'NONE', ( #216, #314 ), #697, .F. ) ;
#58 = CARTESIAN_POINT ( 'NONE',  ( -25.40000000000000924, 12.69999999999999929, 5.500000000000000000 ) ) ;
#59 = DIRECTION ( 'NONE',  ( 0.000000000000000000, 0.000000000000000000, -1.000000000000000000 ) ) ;
#60 = ORIENTED_EDGE ( 'NONE', *, *, #162, .F. ) ;
#61 =( NAMED_UNIT ( * ) PLANE_ANGLE_UNIT ( ) SI_UNIT ( $, .RADIAN. ) );
#62 = CLOSED_SHELL ( 'NONE', ( #99, #55, #501, #5, #181, #569, #484, #218, #552, #385, #230, #405, #409, #250, #140, #57, #134, #78, #595, #236, #407, #536 ) ) ;
#63 = CARTESIAN_POINT ( 'NONE',  ( 0.000000000000000000, 12.69999999999999929, 0.000000000000000000 ) ) ;
#64 = VECTOR ( 'NONE', #289, 1000.000000000000000 ) ;
#65 = ORIENTED_EDGE ( 'NONE', *, *, #307, .F. ) ;
#66 = EDGE_CURVE ( 'NONE', #52, #502, #93, .T. ) ;
#67 = CARTESIAN_POINT ( 'NONE',  ( 31.00000000000000000, 19.04999999999999716, -3.751199875000001516 ) ) ;
#68 = FACE_BOUND ( 'NONE', #410, .T. ) ;
#69 = EDGE_LOOP ( 'NONE', ( #348, #366 ) ) ;
#70 = DIRECTION ( 'NONE',  ( 0.000000000000000000, 0.000000000000000000, -1.000000000000000000 ) ) ;
#71 = CARTESIAN_POINT ( 'NONE',  ( 12.69999999999999751, 25.39999999999999858, 12.69999999999999929 ) ) ;
#72 = VERTEX_POINT ( 'NONE', #597 ) ;
#73 = CARTESIAN_POINT ( 'NONE',  ( 12.69999999999999574, 19.04999999999999716, 3.751199874999997963 ) ) ;
#74 = ORIENTED_EDGE ( 'NONE', *, *, #275, .F. ) ;
#75 = AXIS2_PLACEMENT_3D ( 'NONE', #207, #371, #355 ) ;
#76 = DIRECTION ( 'NONE',  ( 0.000000000000000000, 0.000000000000000000, 1.000000000000000000 ) ) ;
#77 = VERTEX_POINT ( 'NONE', #264 ) ;
#78 = ADVANCED_FACE ( 'NONE', ( #311 ), #583, .F. ) ;
#79 = FACE_OUTER_BOUND ( 'NONE', #138, .T. ) ;
#80 = CARTESIAN_POINT ( 'NONE',  ( 38.09999999999999432, 0.000000000000000000, 0.000000000000000000 ) ) ;
#81 = DIRECTION ( 'NONE',  ( 0.000000000000000000, 1.000000000000000000, 0.000000000000000000 ) ) ;
#82 = EDGE_LOOP ( 'NONE', ( #416, #98, #379, #386 ) ) ;
#83 =( NAMED_UNIT ( * ) SI_UNIT ( $, .STERADIAN. ) SOLID_ANGLE_UNIT ( ) );
#84 = AXIS2_PLACEMENT_3D ( 'NONE', #90, #474, #688 ) ;
#85 = CARTESIAN_POINT ( 'NONE',  ( 25.39999999999996660, 5.349999999999999645, 0.000000000000000000 ) ) ;
#86 = EDGE_LOOP ( 'NONE', ( #141, #110 ) ) ;
#87 = EDGE_CURVE ( 'NONE', #657, #395, #527, .T. ) ;
#88 = FACE_BOUND ( 'NONE', #473, .T. ) ;
#89 = VERTEX_POINT ( 'NONE', #223 ) ;
#90 = CARTESIAN_POINT ( 'NONE',  ( -25.40000000000000924, 0.000000000000000000, 0.000000000000000000 ) ) ;
#91 = EDGE_CURVE ( 'NONE', #631, #476, #387, .T. ) ;
#92 = FACE_BOUND ( 'NONE', #30, .T. ) ;
#93 = CIRCLE ( 'NONE', #598, 3.751199874999998407 ) ;
#94 = VECTOR ( 'NONE', #252, 1000.000000000000000 ) ;
#95 = CARTESIAN_POINT ( 'NONE',  ( 38.09999999999999432, 0.000000000000000000, 12.69999999999999929 ) ) ;
#96 = PRODUCT_DEFINITION_FORMATION_WITH_SPECIFIED_SOURCE ( 'ANY', '', #262, .NOT_KNOWN. ) ;
#97 = DIRECTION ( 'NONE',  ( -1.000000000000000000, 0.000000000000000000, 0.000000000000000000 ) ) ;
#98 = ORIENTED_EDGE ( 'NONE', *, *, #579, .T. ) ;
#99 = ADVANCED_FACE ( 'NONE', ( #54 ), #317, .F. ) ;
#100 = DIRECTION ( 'NONE',  ( 0.000000000000000000, 1.000000000000000000, 0.000000000000000000 ) ) ;
#101 = DIRECTION ( 'NONE',  ( 0.000000000000000000, 0.000000000000000000, 1.000000000000000000 ) ) ;
#102 = ORIENTED_EDGE ( 'NONE', *, *, #601, .T. ) ;
#103 = PLANE ( 'NONE',  #571 ) ;
#104 = PLANE ( 'NONE',  #479 ) ;
#105 = ORIENTED_EDGE ( 'NONE', *, *, #453, .T. ) ;
#106 = CARTESIAN_POINT ( 'NONE',  ( 12.69999999999999574, 19.04999999999999716, -3.751199875000001516 ) ) ;
#107 = VECTOR ( 'NONE', #472, 1000.000000000000000 ) ;
#108 = VECTOR ( 'NONE', #563, 1000.000000000000000 ) ;
#109 = DIRECTION ( 'NONE',  ( 0.000000000000000000, 0.000000000000000000, 1.000000000000000000 ) ) ;
#110 = ORIENTED_EDGE ( 'NONE', *, *, #307, .T. ) ;
#111 = CARTESIAN_POINT ( 'NONE',  ( 12.69999999999999751, 25.39999999999999858, 12.69999999999999929 ) ) ;
#112 = CARTESIAN_POINT ( 'NONE',  ( 25.39999999999996660, 5.349999999999999645, 3.751199874999998407 ) ) ;
#113 = VERTEX_POINT ( 'NONE', #475 ) ;
#114 = EDGE_CURVE ( 'NONE', #184, #113, #647, .T. ) ;
#115 = LINE ( 'NONE', #547, #460 ) ;
#116 = CARTESIAN_POINT ( 'NONE',  ( -12.70000000000000107, 25.39999999999999858, 12.69999999999999929 ) ) ;
#117 = ORIENTED_EDGE ( 'NONE', *, *, #190, .T. ) ;
#118 = PLANE ( 'NONE',  #375 ) ;
#119 = CIRCLE ( 'NONE', #692, 3.751199874999999739 ) ;
#120 = DIRECTION ( 'NONE',  ( 0.000000000000000000, 1.000000000000000000, 0.000000000000000000 ) ) ;
#121 = VECTOR ( 'NONE', #443, 1000.000000000000000 ) ;
#122 = ORIENTED_EDGE ( 'NONE', *, *, #290, .F. ) ;
#123 = EDGE_CURVE ( 'NONE', #476, #631, #457, .T. ) ;
#124 = DIRECTION ( 'NONE',  ( 0.000000000000000000, 0.000000000000000000, 1.000000000000000000 ) ) ;
#125 = EDGE_CURVE ( 'NONE', #113, #361, #644, .T. ) ;
#126 = LINE ( 'NONE', #327, #362 ) ;
#127 = ORIENTED_EDGE ( 'NONE', *, *, #149, .T. ) ;
#128 = CARTESIAN_POINT ( 'NONE',  ( -12.70000000000000107, 12.69999999999999929, -12.69999999999999929 ) ) ;
#129 = DIRECTION ( 'NONE',  ( 0.000000000000000000, 0.000000000000000000, -1.000000000000000000 ) ) ;
#130 = VERTEX_POINT ( 'NONE', #578 ) ;
#131 = DIRECTION ( 'NONE',  ( -0.000000000000000000, 1.000000000000000000, -0.000000000000000000 ) ) ;
#132 = ORIENTED_EDGE ( 'NONE', *, *, #587, .F. ) ;
#133 = CIRCLE ( 'NONE', #28, 5.500000000000000000 ) ;
#134 = ADVANCED_FACE ( 'NONE', ( #46 ), #636, .F. ) ;
#135 = DIRECTION ( 'NONE',  ( 1.000000000000000000, -0.000000000000000000, 0.000000000000000000 ) ) ;
#136 = EDGE_LOOP ( 'NONE', ( #425, #574, #340, #605 ) ) ;
#137 = CARTESIAN_POINT ( 'NONE',  ( 38.09999999999999432, 12.69999999999999929, 0.000000000000000000 ) ) ;
#138 = EDGE_LOOP ( 'NONE', ( #544, #122, #338, #189 ) ) ;
#139 = CARTESIAN_POINT ( 'NONE',  ( 0.000000000000000000, 0.000000000000000000, 12.69999999999999929 ) ) ;
#140 = ADVANCED_FACE ( 'NONE', ( #92, #593 ), #104, .F. ) ;
#141 = ORIENTED_EDGE ( 'NONE', *, *, #8, .T. ) ;
#142 = CIRCLE ( 'NONE', #226, 3.751199874999998407 ) ;
#143 = DIRECTION ( 'NONE',  ( -0.000000000000000000, -1.000000000000000000, -0.000000000000000000 ) ) ;
#144 = ORIENTED_EDGE ( 'NONE', *, *, #602, .F. ) ;
#145 = CYLINDRICAL_SURFACE ( 'NONE', #469, 3.751199874999999739 ) ;
#146 = DIRECTION ( 'NONE',  ( 0.000000000000000000, 0.000000000000000000, 1.000000000000000000 ) ) ;
#147 = DIRECTION ( 'NONE',  ( 0.000000000000000000, 0.000000000000000000, 1.000000000000000000 ) ) ;
#148 = DIRECTION ( 'NONE',  ( 0.000000000000000000, 0.000000000000000000, -1.000000000000000000 ) ) ;
#149 = EDGE_CURVE ( 'NONE', #535, #523, #539, .T. ) ;
#150 = EDGE_LOOP ( 'NONE', ( #373, #480, #277, #117 ) ) ;
#151 = PRODUCT_DEFINITION_SHAPE ( 'NONE', 'NONE',  #403 ) ;
#152 = MECHANICAL_DESIGN_GEOMETRIC_PRESENTATION_REPRESENTATION (  '', ( #180 ), #662 ) ;
#153 = VECTOR ( 'NONE', #454, 1000.000000000000000 ) ;
#154 = CIRCLE ( 'NONE', #281, 5.500000000000000000 ) ;
#155 = CARTESIAN_POINT ( 'NONE',  ( -38.10000000000000853, 0.000000000000000000, 12.69999999999999929 ) ) ;
#156 = EDGE_CURVE ( 'NONE', #665, #492, #256, .T. ) ;
#157 = DIRECTION ( 'NONE',  ( -1.000000000000000000, -0.000000000000000000, -0.000000000000000000 ) ) ;
#158 = VERTEX_POINT ( 'NONE', #73 ) ;
#159 = DIRECTION ( 'NONE',  ( 0.000000000000000000, 1.000000000000000000, 0.000000000000000000 ) ) ;
#160 = CARTESIAN_POINT ( 'NONE',  ( 0.000000000000000000, 25.39999999999999858, 0.000000000000000000 ) ) ;
#161 = VERTEX_POINT ( 'NONE', #15 ) ;
#162 = EDGE_CURVE ( 'NONE', #161, #72, #286, .T. ) ;
#163 = MANIFOLD_SOLID_BREP ( 'Cut-Extrude2', #62 ) ;
#164 = DIRECTION ( 'NONE',  ( 0.000000000000000000, 0.000000000000000000, 1.000000000000000000 ) ) ;
#165 = CARTESIAN_POINT ( 'NONE',  ( 12.69999999999999751, 25.39999999999999858, 12.69999999999999929 ) ) ;
#166 = ORIENTED_EDGE ( 'NONE', *, *, #508, .T. ) ;
#167 = DIRECTION ( 'NONE',  ( -0.000000000000000000, 1.000000000000000000, -0.000000000000000000 ) ) ;
#168 = VECTOR ( 'NONE', #300, 1000.000000000000000 ) ;
#169 = VECTOR ( 'NONE', #434, 1000.000000000000000 ) ;
#170 = CARTESIAN_POINT ( 'NONE',  ( 0.000000000000000000, 12.69999999999999929, -12.69999999999999929 ) ) ;
#171 = ORIENTED_EDGE ( 'NONE', *, *, #190, .F. ) ;
#172 = CARTESIAN_POINT ( 'NONE',  ( -12.70000000000000107, 19.04999999999999716, 3.751199874999997963 ) ) ;
#173 = FACE_BOUND ( 'NONE', #69, .T. ) ;
#174 = ORIENTED_EDGE ( 'NONE', *, *, #24, .F. ) ;
#175 = CARTESIAN_POINT ( 'NONE',  ( 12.69999999999999574, 19.04999999999999716, -1.734723475976807094E-15 ) ) ;
#176 = CARTESIAN_POINT ( 'NONE',  ( 0.000000000000000000, 12.69999999999999929, -12.69999999999999929 ) ) ;
#177 = EDGE_CURVE ( 'NONE', #361, #395, #186, .T. ) ;
#178 = ORIENTED_EDGE ( 'NONE', *, *, #532, .T. ) ;
#179 = FACE_OUTER_BOUND ( 'NONE', #239, .T. ) ;
#180 = STYLED_ITEM ( 'NONE', ( #500 ), #163 ) ;
#181 = ADVANCED_FACE ( 'NONE', ( #618 ), #240, .F. ) ;
#182 = FILL_AREA_STYLE_COLOUR ( '', #437 ) ;
#183 = AXIS2_PLACEMENT_3D ( 'NONE', #459, #81, #243 ) ;
#184 = VERTEX_POINT ( 'NONE', #604 ) ;
#185 = LINE ( 'NONE', #392, #517 ) ;
#186 = LINE ( 'NONE', #116, #360 ) ;
#187 = ORIENTED_EDGE ( 'NONE', *, *, #367, .F. ) ;
#188 = DIRECTION ( 'NONE',  ( -1.000000000000000000, 0.000000000000000000, 0.000000000000000000 ) ) ;
#189 = ORIENTED_EDGE ( 'NONE', *, *, #24, .T. ) ;
#190 = EDGE_CURVE ( 'NONE', #209, #395, #615, .T. ) ;
#191 = CARTESIAN_POINT ( 'NONE',  ( 12.69999999999999751, 25.39999999999999858, 12.69999999999999929 ) ) ;
#192 = ORIENTED_EDGE ( 'NONE', *, *, #590, .T. ) ;
#193 = AXIS2_PLACEMENT_3D ( 'NONE', #446, #390, #129 ) ;
#194 = CIRCLE ( 'NONE', #671, 5.500000000000000000 ) ;
#195 = CARTESIAN_POINT ( 'NONE',  ( 12.69999999999999751, 12.69999999999999929, 12.69999999999999929 ) ) ;
#196 = ORIENTED_EDGE ( 'NONE', *, *, #257, .T. ) ;
#197 = EDGE_CURVE ( 'NONE', #77, #657, #509, .T. ) ;
#198 = CARTESIAN_POINT ( 'NONE',  ( 38.09999999999999432, 12.69999999999999929, -12.69999999999999929 ) ) ;
#199 = DIRECTION ( 'NONE',  ( 0.000000000000000000, 0.000000000000000000, -1.000000000000000000 ) ) ;
#200 = CARTESIAN_POINT ( 'NONE',  ( -25.40000000000000924, 5.349999999999999645, 5.500000000000000000 ) ) ;
#201 = ORIENTED_EDGE ( 'NONE', *, *, #357, .F. ) ;
#202 = AXIS2_PLACEMENT_3D ( 'NONE', #376, #609, #556 ) ;
#203 = CARTESIAN_POINT ( 'NONE',  ( -25.40000000000000924, 12.69999999999999929, -3.751199874999998407 ) ) ;
#204 = CYLINDRICAL_SURFACE ( 'NONE', #679, 3.751199874999998407 ) ;
#205 = VERTEX_POINT ( 'NONE', #112 ) ;
#206 = EDGE_CURVE ( 'NONE', #6, #44, #126, .T. ) ;
#207 = CARTESIAN_POINT ( 'NONE',  ( 12.69999999999999574, 19.04999999999999716, -1.734723475976807094E-15 ) ) ;
#208 = DIRECTION ( 'NONE',  ( -1.000000000000000000, 0.000000000000000000, 0.000000000000000000 ) ) ;
#209 = VERTEX_POINT ( 'NONE', #548 ) ;
#210 = LINE ( 'NONE', #681, #50 ) ;
#211 = CARTESIAN_POINT ( 'NONE',  ( 25.39999999999996660, 12.69999999999999929, 0.000000000000000000 ) ) ;
#212 = ORIENTED_EDGE ( 'NONE', *, *, #156, .T. ) ;
#213 = VECTOR ( 'NONE', #399, 1000.000000000000000 ) ;
#214 = AXIS2_PLACEMENT_3D ( 'NONE', #684, #159, #263 ) ;
#215 = CARTESIAN_POINT ( 'NONE',  ( 25.39999999999996660, 0.000000000000000000, 0.000000000000000000 ) ) ;
#216 = FACE_BOUND ( 'NONE', #701, .T. ) ;
#217 = EDGE_LOOP ( 'NONE', ( #452, #698, #429, #594 ) ) ;
#218 = ADVANCED_FACE ( 'NONE', ( #68, #278 ), #490, .T. ) ;
#219 = LINE ( 'NONE', #471, #507 ) ;
#220 = DIRECTION ( 'NONE',  ( 0.000000000000000000, 0.000000000000000000, 1.000000000000000000 ) ) ;
#221 = ORIENTED_EDGE ( 'NONE', *, *, #123, .F. ) ;
#222 = DIRECTION ( 'NONE',  ( 0.000000000000000000, 0.000000000000000000, 1.000000000000000000 ) ) ;
#223 = CARTESIAN_POINT ( 'NONE',  ( 12.69999999999999751, 12.69999999999999929, 12.69999999999999929 ) ) ;
#224 = ORIENTED_EDGE ( 'NONE', *, *, #206, .T. ) ;
#225 = CYLINDRICAL_SURFACE ( 'NONE', #600, 5.500000000000000000 ) ;
#226 = AXIS2_PLACEMENT_3D ( 'NONE', #85, #143, #76 ) ;
#227 = DIRECTION ( 'NONE',  ( 0.000000000000000000, 1.000000000000000000, -0.000000000000000000 ) ) ;
#228 = ORIENTED_EDGE ( 'NONE', *, *, #572, .F. ) ;
#229 = DIRECTION ( 'NONE',  ( -0.000000000000000000, -1.000000000000000000, -0.000000000000000000 ) ) ;
#230 = ADVANCED_FACE ( 'NONE', ( #282 ), #656, .T. ) ;
#231 = ORIENTED_EDGE ( 'NONE', *, *, #499, .T. ) ;
#232 = CARTESIAN_POINT ( 'NONE',  ( 0.000000000000000000, 12.69999999999999929, 12.69999999999999929 ) ) ;
#233 = DIRECTION ( 'NONE',  ( -0.000000000000000000, -1.000000000000000000, -0.000000000000000000 ) ) ;
#234 = EDGE_LOOP ( 'NONE', ( #695, #105, #265, #624 ) ) ;
#235 = DIRECTION ( 'NONE',  ( -1.000000000000000000, -0.000000000000000000, -0.000000000000000000 ) ) ;
#236 = ADVANCED_FACE ( 'NONE', ( #173, #337 ), #611, .T. ) ;
#237 = FILL_AREA_STYLE ('',( #182 ) ) ;
#238 = VECTOR ( 'NONE', #135, 1000.000000000000000 ) ;
#239 = EDGE_LOOP ( 'NONE', ( #382, #192, #659, #335 ) ) ;
#240 = CYLINDRICAL_SURFACE ( 'NONE', #193, 3.751199874999998407 ) ;
#241 = EDGE_CURVE ( 'NONE', #586, #184, #554, .T. ) ;
#242 = VERTEX_POINT ( 'NONE', #245 ) ;
#243 = DIRECTION ( 'NONE',  ( 0.000000000000000000, 0.000000000000000000, 1.000000000000000000 ) ) ;
#244 = LINE ( 'NONE', #309, #213 ) ;
#245 = CARTESIAN_POINT ( 'NONE',  ( 25.39999999999996660, 5.349999999999999645, -5.500000000000000000 ) ) ;
#246 = VECTOR ( 'NONE', #365, 1000.000000000000000 ) ;
#247 = ORIENTED_EDGE ( 'NONE', *, *, #354, .T. ) ;
#248 = AXIS2_PLACEMENT_3D ( 'NONE', #655, #388, #614 ) ;
#249 = LINE ( 'NONE', #200, #640 ) ;
#250 = ADVANCED_FACE ( 'NONE', ( #524, #349, #620 ), #623, .F. ) ;
#251 = ORIENTED_EDGE ( 'NONE', *, *, #377, .T. ) ;
#252 = DIRECTION ( 'NONE',  ( -0.000000000000000000, -1.000000000000000000, -0.000000000000000000 ) ) ;
#253 = ORIENTED_EDGE ( 'NONE', *, *, #177, .F. ) ;
#254 = LINE ( 'NONE', #203, #7 ) ;
#255 = DIRECTION ( 'NONE',  ( -0.000000000000000000, -1.000000000000000000, -0.000000000000000000 ) ) ;
#256 = CIRCLE ( 'NONE', #639, 3.751199874999999739 ) ;
#257 = EDGE_CURVE ( 'NONE', #72, #653, #27, .T. ) ;
#258 = AXIS2_PLACEMENT_3D ( 'NONE', #45, #266, #164 ) ;
#259 = LINE ( 'NONE', #529, #38 ) ;
#260 = CARTESIAN_POINT ( 'NONE',  ( 25.39999999999996660, 5.349999999999999645, 0.000000000000000000 ) ) ;
#261 = VERTEX_POINT ( 'NONE', #394 ) ;
#262 = PRODUCT ( 'T-Slot Mount', 'T-Slot Mount', '', ( #521 ) ) ;
#263 = DIRECTION ( 'NONE',  ( 0.000000000000000000, 0.000000000000000000, 1.000000000000000000 ) ) ;
#264 = CARTESIAN_POINT ( 'NONE',  ( -38.10000000000000853, 12.69999999999999929, -12.69999999999999929 ) ) ;
#265 = ORIENTED_EDGE ( 'NONE', *, *, #123, .T. ) ;
#266 = DIRECTION ( 'NONE',  ( -0.000000000000000000, 1.000000000000000000, -0.000000000000000000 ) ) ;
#267 = DIRECTION ( 'NONE',  ( 0.000000000000000000, 0.000000000000000000, 1.000000000000000000 ) ) ;
#268 = ORIENTED_EDGE ( 'NONE', *, *, #511, .T. ) ;
#269 = AXIS2_PLACEMENT_3D ( 'NONE', #63, #227, #440 ) ;
#270 = VECTOR ( 'NONE', #625, 1000.000000000000000 ) ;
#271 = CARTESIAN_POINT ( 'NONE',  ( 0.000000000000000000, 0.000000000000000000, -12.69999999999999929 ) ) ;
#272 = FACE_OUTER_BOUND ( 'NONE', #296, .T. ) ;
#273 = ORIENTED_EDGE ( 'NONE', *, *, #156, .F. ) ;
#274 = DIRECTION ( 'NONE',  ( 0.000000000000000000, 1.000000000000000000, 0.000000000000000000 ) ) ;
#275 = EDGE_CURVE ( 'NONE', #89, #130, #35, .T. ) ;
#276 = DIRECTION ( 'NONE',  ( 0.000000000000000000, 0.000000000000000000, 1.000000000000000000 ) ) ;
#277 = ORIENTED_EDGE ( 'NONE', *, *, #491, .F. ) ;
#278 = FACE_OUTER_BOUND ( 'NONE', #370, .T. ) ;
#279 = EDGE_LOOP ( 'NONE', ( #247, #519 ) ) ;
#280 = AXIS2_PLACEMENT_3D ( 'NONE', #557, #120, #334 ) ;
#281 = AXIS2_PLACEMENT_3D ( 'NONE', #553, #274, #222 ) ;
#282 = FACE_OUTER_BOUND ( 'NONE', #393, .T. ) ;
#283 = EDGE_CURVE ( 'NONE', #13, #677, #522, .T. ) ;
#284 = ORIENTED_EDGE ( 'NONE', *, *, #162, .T. ) ;
#285 = DIRECTION ( 'NONE',  ( 0.000000000000000000, 0.000000000000000000, 1.000000000000000000 ) ) ;
#286 = LINE ( 'NONE', #378, #670 ) ;
#287 = ORIENTED_EDGE ( 'NONE', *, *, #292, .T. ) ;
#288 = DIRECTION ( 'NONE',  ( 0.000000000000000000, 0.000000000000000000, 1.000000000000000000 ) ) ;
#289 = DIRECTION ( 'NONE',  ( 0.000000000000000000, 0.000000000000000000, -1.000000000000000000 ) ) ;
#290 = EDGE_CURVE ( 'NONE', #209, #535, #401, .T. ) ;
#291 = ORIENTED_EDGE ( 'NONE', *, *, #511, .F. ) ;
#292 = EDGE_CURVE ( 'NONE', #315, #653, #249, .T. ) ;
#293 = AXIS2_PLACEMENT_3D ( 'NONE', #160, #324, #369 ) ;
#294 = DIRECTION ( 'NONE',  ( 1.000000000000000000, -0.000000000000000000, 0.000000000000000000 ) ) ;
#295 = AXIS2_PLACEMENT_3D ( 'NONE', #175, #14, #288 ) ;
#296 = EDGE_LOOP ( 'NONE', ( #132, #284, #196, #637 ) ) ;
#297 = DIRECTION ( 'NONE',  ( 0.000000000000000000, 1.000000000000000000, -0.000000000000000000 ) ) ;
#298 = CARTESIAN_POINT ( 'NONE',  ( -25.40000000000000924, 5.349999999999999645, 3.751199874999998407 ) ) ;
#299 = DIRECTION ( 'NONE',  ( 0.000000000000000000, 0.000000000000000000, 1.000000000000000000 ) ) ;
#300 = DIRECTION ( 'NONE',  ( 0.000000000000000000, 0.000000000000000000, -1.000000000000000000 ) ) ;
#301 = DIRECTION ( 'NONE',  ( -0.000000000000000000, -1.000000000000000000, -0.000000000000000000 ) ) ;
#302 = AXIS2_PLACEMENT_3D ( 'NONE', #211, #685, #146 ) ;
#303 = ORIENTED_EDGE ( 'NONE', *, *, #532, .F. ) ;
#304 = CIRCLE ( 'NONE', #214, 5.500000000000000000 ) ;
#305 = LINE ( 'NONE', #22, #270 ) ;
#306 = ORIENTED_EDGE ( 'NONE', *, *, #114, .F. ) ;
#307 = EDGE_CURVE ( 'NONE', #205, #261, #142, .T. ) ;
#308 = CARTESIAN_POINT ( 'NONE',  ( -25.40000000000000924, 5.349999999999999645, -3.751199874999998407 ) ) ;
#309 = CARTESIAN_POINT ( 'NONE',  ( -12.70000000000000107, 25.39999999999999858, 12.69999999999999929 ) ) ;
#310 = DIRECTION ( 'NONE',  ( 0.000000000000000000, 0.000000000000000000, -1.000000000000000000 ) ) ;
#311 = FACE_OUTER_BOUND ( 'NONE', #318, .T. ) ;
#312 = CIRCLE ( 'NONE', #84, 3.751199874999998407 ) ;
#313 = LINE ( 'NONE', #643, #322 ) ;
#314 = FACE_OUTER_BOUND ( 'NONE', #447, .T. ) ;
#315 = VERTEX_POINT ( 'NONE', #345 ) ;
#316 = CARTESIAN_POINT ( 'NONE',  ( 25.39999999999996660, 12.69999999999999929, -5.500000000000000000 ) ) ;
#317 = CYLINDRICAL_SURFACE ( 'NONE', #506, 5.500000000000000000 ) ;
#318 = EDGE_LOOP ( 'NONE', ( #16, #144, #346, #212 ) ) ;
#319 = LINE ( 'NONE', #368, #584 ) ;
#320 = DIRECTION ( 'NONE',  ( 0.000000000000000000, 0.000000000000000000, 1.000000000000000000 ) ) ;
#321 = EDGE_LOOP ( 'NONE', ( #353, #619, #56, #391 ) ) ;
#322 = VECTOR ( 'NONE', #596, 1000.000000000000000 ) ;
#323 = DIRECTION ( 'NONE',  ( 0.000000000000000000, 0.000000000000000000, -1.000000000000000000 ) ) ;
#324 = DIRECTION ( 'NONE',  ( 0.000000000000000000, -1.000000000000000000, 0.000000000000000000 ) ) ;
#325 = ORIENTED_EDGE ( 'NONE', *, *, #587, .T. ) ;
#326 = DIRECTION ( 'NONE',  ( -0.000000000000000000, 1.000000000000000000, -0.000000000000000000 ) ) ;
#327 = CARTESIAN_POINT ( 'NONE',  ( 38.09999999999999432, 12.69999999999999929, 0.000000000000000000 ) ) ;
#328 = EDGE_CURVE ( 'NONE', #586, #89, #33, .T. ) ;
#329 = ORIENTED_EDGE ( 'NONE', *, *, #634, .T. ) ;
#330 = DIRECTION ( 'NONE',  ( 1.000000000000000000, -0.000000000000000000, 0.000000000000000000 ) ) ;
#331 = ORIENTED_EDGE ( 'NONE', *, *, #464, .T. ) ;
#332 = AXIS2_PLACEMENT_3D ( 'NONE', #672, #297, #674 ) ;
#333 = DIRECTION ( 'NONE',  ( 0.000000000000000000, 1.000000000000000000, 0.000000000000000000 ) ) ;
#334 = DIRECTION ( 'NONE',  ( 0.000000000000000000, -0.000000000000000000, 1.000000000000000000 ) ) ;
#335 = ORIENTED_EDGE ( 'NONE', *, *, #601, .F. ) ;
#336 = FACE_OUTER_BOUND ( 'NONE', #442, .T. ) ;
#337 = FACE_OUTER_BOUND ( 'NONE', #546, .T. ) ;
#338 = ORIENTED_EDGE ( 'NONE', *, *, #491, .T. ) ;
#339 = DIRECTION ( 'NONE',  ( 0.000000000000000000, 1.000000000000000000, 0.000000000000000000 ) ) ;
#340 = ORIENTED_EDGE ( 'NONE', *, *, #125, .T. ) ;
#341 = AXIS2_PLACEMENT_3D ( 'NONE', #483, #157, #220 ) ;
#342 = DIRECTION ( 'NONE',  ( 0.000000000000000000, 0.000000000000000000, -1.000000000000000000 ) ) ;
#343 = CIRCLE ( 'NONE', #75, 3.751199874999999739 ) ;
#344 = VERTEX_POINT ( 'NONE', #308 ) ;
#345 = CARTESIAN_POINT ( 'NONE',  ( -25.40000000000000924, 5.349999999999999645, 5.500000000000000000 ) ) ;
#346 = ORIENTED_EDGE ( 'NONE', *, *, #608, .T. ) ;
#347 = PLANE ( 'NONE',  #629 ) ;
#348 = ORIENTED_EDGE ( 'NONE', *, *, #433, .F. ) ;
#349 = FACE_BOUND ( 'NONE', #461, .T. ) ;
#350 = CARTESIAN_POINT ( 'NONE',  ( -38.10000000000000853, 12.69999999999999929, -12.69999999999999929 ) ) ;
#351 = AXIS2_PLACEMENT_3D ( 'NONE', #215, #691, #430 ) ;
#352 = CARTESIAN_POINT ( 'NONE',  ( 25.39999999999996660, 5.349999999999999645, 0.000000000000000000 ) ) ;
#353 = ORIENTED_EDGE ( 'NONE', *, *, #37, .T. ) ;
#354 = EDGE_CURVE ( 'NONE', #558, #242, #528, .T. ) ;
#355 = DIRECTION ( 'NONE',  ( 0.000000000000000000, 0.000000000000000000, 1.000000000000000000 ) ) ;
#356 = DIRECTION ( 'NONE',  ( -0.000000000000000000, -0.000000000000000000, 1.000000000000000000 ) ) ;
#357 = EDGE_CURVE ( 'NONE', #89, #6, #305, .T. ) ;
#358 = CARTESIAN_POINT ( 'NONE',  ( -12.70000000000000107, 19.04999999999999716, -3.751199875000001516 ) ) ;
#359 = CARTESIAN_POINT ( 'NONE',  ( -12.70000000000000107, 19.04999999999999716, -1.734723475976807094E-15 ) ) ;
#360 = VECTOR ( 'NONE', #233, 1000.000000000000000 ) ;
#361 = VERTEX_POINT ( 'NONE', #397 ) ;
#362 = VECTOR ( 'NONE', #59, 1000.000000000000000 ) ;
#363 = AXIS2_PLACEMENT_3D ( 'NONE', #467, #100, #147 ) ;
#364 = DIRECTION ( 'NONE',  ( -0.000000000000000000, -1.000000000000000000, -0.000000000000000000 ) ) ;
#365 = DIRECTION ( 'NONE',  ( -0.000000000000000000, -0.000000000000000000, 1.000000000000000000 ) ) ;
#366 = ORIENTED_EDGE ( 'NONE', *, *, #590, .F. ) ;
#367 = EDGE_CURVE ( 'NONE', #535, #525, #518, .T. ) ;
#368 = CARTESIAN_POINT ( 'NONE',  ( 12.69999999999999751, 25.39999999999999858, -12.69999999999999929 ) ) ;
#369 = DIRECTION ( 'NONE',  ( 0.000000000000000000, -0.000000000000000000, -1.000000000000000000 ) ) ;
#370 = EDGE_LOOP ( 'NONE', ( #74, #436, #224, #531 ) ) ;
#371 = DIRECTION ( 'NONE',  ( -1.000000000000000000, 0.000000000000000000, 0.000000000000000000 ) ) ;
#372 = CARTESIAN_POINT ( 'NONE',  ( -38.10000000000000853, 0.000000000000000000, -0.000000000000000000 ) ) ;
#373 = ORIENTED_EDGE ( 'NONE', *, *, #87, .F. ) ;
#374 = AXIS2_PLACEMENT_3D ( 'NONE', #628, #255, #455 ) ;
#375 = AXIS2_PLACEMENT_3D ( 'NONE', #232, #70, #439 ) ;
#376 = CARTESIAN_POINT ( 'NONE',  ( -25.40000000000000924, 0.000000000000000000, 0.000000000000000000 ) ) ;
#377 = EDGE_CURVE ( 'NONE', #44, #549, #29, .T. ) ;
#378 = CARTESIAN_POINT ( 'NONE',  ( -25.40000000000000924, 5.349999999999999645, -5.500000000000000000 ) ) ;
#379 = ORIENTED_EDGE ( 'NONE', *, *, #48, .T. ) ;
#380 =( LENGTH_UNIT ( ) NAMED_UNIT ( * ) SI_UNIT ( .MILLI., .METRE. ) );
#381 = SURFACE_STYLE_FILL_AREA ( #237 ) ;
#382 = ORIENTED_EDGE ( 'NONE', *, *, #283, .F. ) ;
#383 = CARTESIAN_POINT ( 'NONE',  ( 25.39999999999996660, 12.69999999999999929, 5.500000000000000000 ) ) ;
#384 = DIRECTION ( 'NONE',  ( -1.000000000000000000, 0.000000000000000000, -0.000000000000000000 ) ) ;
#385 = ADVANCED_FACE ( 'NONE', ( #575 ), #465, .F. ) ;
#386 = ORIENTED_EDGE ( 'NONE', *, *, #608, .F. ) ;
#387 = CIRCLE ( 'NONE', #424, 5.500000000000000000 ) ;
#388 = DIRECTION ( 'NONE',  ( -0.000000000000000000, -1.000000000000000000, -0.000000000000000000 ) ) ;
#389 = CIRCLE ( 'NONE', #295, 3.751199874999999739 ) ;
#390 = DIRECTION ( 'NONE',  ( -0.000000000000000000, -1.000000000000000000, -0.000000000000000000 ) ) ;
#391 = ORIENTED_EDGE ( 'NONE', *, *, #538, .T. ) ;
#392 = CARTESIAN_POINT ( 'NONE',  ( 25.39999999999996660, 5.349999999999999645, 5.500000000000000000 ) ) ;
#393 = EDGE_LOOP ( 'NONE', ( #303, #174, #616, #661, #306, #505, #485, #251 ) ) ;
#394 = CARTESIAN_POINT ( 'NONE',  ( 25.39999999999996660, 5.349999999999999645, -3.751199874999998407 ) ) ;
#395 = VERTEX_POINT ( 'NONE', #676 ) ;
#396 = VECTOR ( 'NONE', #294, 1000.000000000000000 ) ;
#397 = CARTESIAN_POINT ( 'NONE',  ( -12.70000000000000107, 25.39999999999999858, 12.69999999999999929 ) ) ;
#398 = CIRCLE ( 'NONE', #351, 3.751199874999998407 ) ;
#399 = DIRECTION ( 'NONE',  ( 1.000000000000000000, 0.000000000000000000, 0.000000000000000000 ) ) ;
#400 = AXIS2_PLACEMENT_3D ( 'NONE', #420, #580, #412 ) ;
#401 = LINE ( 'NONE', #573, #153 ) ;
#402 = ORIENTED_EDGE ( 'NONE', *, *, #634, .F. ) ;
#403 = PRODUCT_DEFINITION ( 'UNKNOWN', '', #96, #32 ) ;
#404 = CARTESIAN_POINT ( 'NONE',  ( -38.10000000000000853, 12.69999999999999929, 0.000000000000000000 ) ) ;
#405 = ADVANCED_FACE ( 'NONE', ( #79 ), #462, .T. ) ;
#406 = CARTESIAN_POINT ( 'NONE',  ( 38.09999999999999432, 12.69999999999999929, 12.69999999999999929 ) ) ;
#407 = ADVANCED_FACE ( 'NONE', ( #25, #627 ), #347, .T. ) ;
#408 = DIRECTION ( 'NONE',  ( 0.000000000000000000, 1.000000000000000000, 0.000000000000000000 ) ) ;
#409 = ADVANCED_FACE ( 'NONE', ( #88, #451 ), #103, .T. ) ;
#410 = EDGE_LOOP ( 'NONE', ( #607, #221 ) ) ;
#411 = VECTOR ( 'NONE', #323, 1000.000000000000000 ) ;
#412 = DIRECTION ( 'NONE',  ( 1.000000000000000000, 0.000000000000000000, 0.000000000000000000 ) ) ;
#413 = UNCERTAINTY_MEASURE_WITH_UNIT (LENGTH_MEASURE( 1.000000000000000082E-05 ), #380, 'distance_accuracy_value', 'NONE');
#414 = FACE_OUTER_BOUND ( 'NONE', #82, .T. ) ;
#415 = ORIENTED_EDGE ( 'NONE', *, *, #37, .F. ) ;
#416 = ORIENTED_EDGE ( 'NONE', *, *, #456, .F. ) ;
#417 = FACE_OUTER_BOUND ( 'NONE', #36, .T. ) ;
#418 = CARTESIAN_POINT ( 'NONE',  ( 25.39999999999996660, 0.000000000000000000, 0.000000000000000000 ) ) ;
#419 = ORIENTED_EDGE ( 'NONE', *, *, #545, .F. ) ;
#420 = CARTESIAN_POINT ( 'NONE',  ( 0.000000000000000000, 0.000000000000000000, 0.000000000000000000 ) ) ;
#421 = DIRECTION ( 'NONE',  ( 1.000000000000000000, -0.000000000000000000, 0.000000000000000000 ) ) ;
#422 = CARTESIAN_POINT ( 'NONE',  ( 25.39999999999996660, 0.000000000000000000, 3.751199874999998407 ) ) ;
#423 = EDGE_CURVE ( 'NONE', #242, #558, #304, .T. ) ;
#424 = AXIS2_PLACEMENT_3D ( 'NONE', #431, #428, #101 ) ;
#425 = ORIENTED_EDGE ( 'NONE', *, *, #241, .T. ) ;
#426 = CIRCLE ( 'NONE', #202, 3.751199874999998407 ) ;
#427 = DIRECTION ( 'NONE',  ( -0.000000000000000000, -1.000000000000000000, -0.000000000000000000 ) ) ;
#428 = DIRECTION ( 'NONE',  ( 0.000000000000000000, 1.000000000000000000, 0.000000000000000000 ) ) ;
#429 = ORIENTED_EDGE ( 'NONE', *, *, #678, .T. ) ;
#430 = DIRECTION ( 'NONE',  ( 0.000000000000000000, 0.000000000000000000, 1.000000000000000000 ) ) ;
#431 = CARTESIAN_POINT ( 'NONE',  ( 25.39999999999996660, 12.69999999999999929, 0.000000000000000000 ) ) ;
#432 = ORIENTED_EDGE ( 'NONE', *, *, #257, .F. ) ;
#433 = EDGE_CURVE ( 'NONE', #344, #13, #481, .T. ) ;
#434 = DIRECTION ( 'NONE',  ( -1.000000000000000000, -0.000000000000000000, -0.000000000000000000 ) ) ;
#435 = DIRECTION ( 'NONE',  ( 0.000000000000000000, 0.000000000000000000, 1.000000000000000000 ) ) ;
#436 = ORIENTED_EDGE ( 'NONE', *, *, #357, .T. ) ;
#437 = COLOUR_RGB ( '',0.7921568627450980005, 0.8196078431372548767, 0.9333333333333333481 ) ;
#438 = AXIS2_PLACEMENT_3D ( 'NONE', #352, #668, #512 ) ;
#439 = DIRECTION ( 'NONE',  ( -1.000000000000000000, 0.000000000000000000, -0.000000000000000000 ) ) ;
#440 = DIRECTION ( 'NONE',  ( 0.000000000000000000, 0.000000000000000000, 1.000000000000000000 ) ) ;
#441 = APPLICATION_CONTEXT ( 'automotive_design' ) ;
#442 = EDGE_LOOP ( 'NONE', ( #60, #228, #287, #329 ) ) ;
#443 = DIRECTION ( 'NONE',  ( 1.000000000000000000, -0.000000000000000000, 0.000000000000000000 ) ) ;
#444 = ORIENTED_EDGE ( 'NONE', *, *, #456, .T. ) ;
#445 = CARTESIAN_POINT ( 'NONE',  ( 25.39999999999996660, 5.349999999999999645, 5.500000000000000000 ) ) ;
#446 = CARTESIAN_POINT ( 'NONE',  ( -25.40000000000000924, 12.69999999999999929, 0.000000000000000000 ) ) ;
#447 = EDGE_LOOP ( 'NONE', ( #47, #253, #23, #166 ) ) ;
#448 = CARTESIAN_POINT ( 'NONE',  ( 0.000000000000000000, 12.69999999999999929, -12.69999999999999929 ) ) ;
#449 =( LENGTH_UNIT ( ) NAMED_UNIT ( * ) SI_UNIT ( .MILLI., .METRE. ) );
#450 = ORIENTED_EDGE ( 'NONE', *, *, #499, .F. ) ;
#451 = FACE_OUTER_BOUND ( 'NONE', #150, .T. ) ;
#452 = ORIENTED_EDGE ( 'NONE', *, *, #453, .F. ) ;
#453 = EDGE_CURVE ( 'NONE', #242, #476, #219, .T. ) ;
#454 = DIRECTION ( 'NONE',  ( -0.000000000000000000, -1.000000000000000000, -0.000000000000000000 ) ) ;
#455 = DIRECTION ( 'NONE',  ( 0.000000000000000000, 0.000000000000000000, 1.000000000000000000 ) ) ;
#456 = EDGE_CURVE ( 'NONE', #468, #158, #343, .T. ) ;
#457 = CIRCLE ( 'NONE', #302, 5.500000000000000000 ) ;
#458 = VECTOR ( 'NONE', #301, 1000.000000000000000 ) ;
#459 = CARTESIAN_POINT ( 'NONE',  ( -25.40000000000000924, 12.69999999999999929, 0.000000000000000000 ) ) ;
#460 = VECTOR ( 'NONE', #658, 1000.000000000000000 ) ;
#461 = EDGE_LOOP ( 'NONE', ( #331, #102 ) ) ;
#462 = PLANE ( 'NONE',  #654 ) ;
#463 = ORIENTED_EDGE ( 'NONE', *, *, #433, .T. ) ;
#464 = EDGE_CURVE ( 'NONE', #41, #677, #312, .T. ) ;
#465 = PLANE ( 'NONE',  #622 ) ;
#466 = ORIENTED_EDGE ( 'NONE', *, *, #66, .T. ) ;
#467 = CARTESIAN_POINT ( 'NONE',  ( -25.40000000000000924, 5.349999999999999645, 0.000000000000000000 ) ) ;
#468 = VERTEX_POINT ( 'NONE', #106 ) ;
#469 = AXIS2_PLACEMENT_3D ( 'NONE', #646, #632, #49 ) ;
#470 = APPLICATION_PROTOCOL_DEFINITION ( 'draft international standard', 'automotive_design', 1998, #1 ) ;
#471 = CARTESIAN_POINT ( 'NONE',  ( 25.39999999999996660, 5.349999999999999645, -5.500000000000000000 ) ) ;
#472 = DIRECTION ( 'NONE',  ( -1.000000000000000000, -0.000000000000000000, -0.000000000000000000 ) ) ;
#473 = EDGE_LOOP ( 'NONE', ( #402, #432 ) ) ;
#474 = DIRECTION ( 'NONE',  ( 0.000000000000000000, 1.000000000000000000, -0.000000000000000000 ) ) ;
#475 = CARTESIAN_POINT ( 'NONE',  ( -12.70000000000000107, 25.39999999999999858, -12.69999999999999929 ) ) ;
#476 = VERTEX_POINT ( 'NONE', #316 ) ;
#477 = LINE ( 'NONE', #533, #411 ) ;
#478 = CARTESIAN_POINT ( 'NONE',  ( -12.70000000000000107, 25.39999999999999858, 12.69999999999999929 ) ) ;
#479 = AXIS2_PLACEMENT_3D ( 'NONE', #165, #208, #320 ) ;
#480 = ORIENTED_EDGE ( 'NONE', *, *, #197, .F. ) ;
#481 = CIRCLE ( 'NONE', #363, 3.751199874999998407 ) ;
#482 = FACE_OUTER_BOUND ( 'NONE', #217, .T. ) ;
#483 = CARTESIAN_POINT ( 'NONE',  ( 31.00000000000000000, 19.04999999999999716, -1.734723475976807094E-15 ) ) ;
#484 = ADVANCED_FACE ( 'NONE', ( #417 ), #577, .F. ) ;
#485 = ORIENTED_EDGE ( 'NONE', *, *, #610, .T. ) ;
#486 = FACE_OUTER_BOUND ( 'NONE', #686, .T. ) ;
#487 = DIRECTION ( 'NONE',  ( 0.000000000000000000, 0.000000000000000000, -1.000000000000000000 ) ) ;
#488 = ORIENTED_EDGE ( 'NONE', *, *, #177, .T. ) ;
#489 = CARTESIAN_POINT ( 'NONE',  ( -25.40000000000000924, 12.69999999999999929, 0.000000000000000000 ) ) ;
#490 = PLANE ( 'NONE',  #269 ) ;
#491 = EDGE_CURVE ( 'NONE', #209, #77, #477, .T. ) ;
#492 = VERTEX_POINT ( 'NONE', #358 ) ;
#493 = CIRCLE ( 'NONE', #374, 3.751199874999998407 ) ;
#494 = VECTOR ( 'NONE', #235, 1000.000000000000000 ) ;
#495 = DIRECTION ( 'NONE',  ( 0.000000000000000000, 0.000000000000000000, 1.000000000000000000 ) ) ;
#496 =( NAMED_UNIT ( * ) SI_UNIT ( $, .STERADIAN. ) SOLID_ANGLE_UNIT ( ) );
#497 = ORIENTED_EDGE ( 'NONE', *, *, #572, .T. ) ;
#498 = CARTESIAN_POINT ( 'NONE',  ( -25.40000000000000924, 5.349999999999999645, 0.000000000000000000 ) ) ;
#499 = EDGE_CURVE ( 'NONE', #502, #52, #398, .T. ) ;
#500 = PRESENTATION_STYLE_ASSIGNMENT (( #651 ) ) ;
#501 = ADVANCED_FACE ( 'NONE', ( #414 ), #145, .F. ) ;
#502 = VERTEX_POINT ( 'NONE', #526 ) ;
#503 = DIRECTION ( 'NONE',  ( 0.000000000000000000, 1.000000000000000000, 0.000000000000000000 ) ) ;
#504 = DIRECTION ( 'NONE',  ( -0.000000000000000000, 1.000000000000000000, -0.000000000000000000 ) ) ;
#505 = ORIENTED_EDGE ( 'NONE', *, *, #520, .T. ) ;
#506 = AXIS2_PLACEMENT_3D ( 'NONE', #260, #700, #435 ) ;
#507 = VECTOR ( 'NONE', #696, 1000.000000000000000 ) ;
#508 = EDGE_CURVE ( 'NONE', #113, #657, #259, .T. ) ;
#509 = LINE ( 'NONE', #170, #570 ) ;
#510 = ORIENTED_EDGE ( 'NONE', *, *, #66, .F. ) ;
#511 = EDGE_CURVE ( 'NONE', #261, #502, #210, .T. ) ;
#512 = DIRECTION ( 'NONE',  ( 0.000000000000000000, 0.000000000000000000, 1.000000000000000000 ) ) ;
#513 = ORIENTED_EDGE ( 'NONE', *, *, #48, .F. ) ;
#514 = DIRECTION ( 'NONE',  ( 0.000000000000000000, 0.000000000000000000, 1.000000000000000000 ) ) ;
#515 = CARTESIAN_POINT ( 'NONE',  ( -25.40000000000000924, 0.000000000000000000, -3.751199874999998407 ) ) ;
#516 = PRESENTATION_LAYER_ASSIGNMENT (  '', '', ( #180 ) ) ;
#517 = VECTOR ( 'NONE', #326, 1000.000000000000000 ) ;
#518 = LINE ( 'NONE', #139, #238 ) ;
#519 = ORIENTED_EDGE ( 'NONE', *, *, #423, .T. ) ;
#520 = EDGE_CURVE ( 'NONE', #184, #130, #319, .T. ) ;
#521 = PRODUCT_CONTEXT ( 'NONE', #1, 'mechanical' ) ;
#522 = LINE ( 'NONE', #565, #108 ) ;
#523 = VERTEX_POINT ( 'NONE', #581 ) ;
#524 = FACE_OUTER_BOUND ( 'NONE', #540, .T. ) ;
#525 = VERTEX_POINT ( 'NONE', #95 ) ;
#526 = CARTESIAN_POINT ( 'NONE',  ( 25.39999999999996660, 0.000000000000000000, -3.751199874999998407 ) ) ;
#527 = LINE ( 'NONE', #43, #246 ) ;
#528 = CIRCLE ( 'NONE', #438, 5.500000000000000000 ) ;
#529 = CARTESIAN_POINT ( 'NONE',  ( -12.70000000000000107, 25.39999999999999858, -12.69999999999999929 ) ) ;
#530 = DIRECTION ( 'NONE',  ( -1.000000000000000000, 0.000000000000000000, 0.000000000000000000 ) ) ;
#531 = ORIENTED_EDGE ( 'NONE', *, *, #610, .F. ) ;
#532 = EDGE_CURVE ( 'NONE', #523, #549, #537, .T. ) ;
#533 = CARTESIAN_POINT ( 'NONE',  ( -38.10000000000000853, 12.69999999999999929, 0.000000000000000000 ) ) ;
#534 = CARTESIAN_POINT ( 'NONE',  ( -12.70000000000000107, 25.39999999999999858, 12.69999999999999929 ) ) ;
#535 = VERTEX_POINT ( 'NONE', #155 ) ;
#536 = ADVANCED_FACE ( 'NONE', ( #482 ), #542, .F. ) ;
#537 = LINE ( 'NONE', #271, #551 ) ;
#538 = EDGE_CURVE ( 'NONE', #6, #525, #313, .T. ) ;
#539 = LINE ( 'NONE', #372, #561 ) ;
#540 = EDGE_LOOP ( 'NONE', ( #187, #127, #178, #415 ) ) ;
#541 = VECTOR ( 'NONE', #342, 1000.000000000000000 ) ;
#542 = CYLINDRICAL_SURFACE ( 'NONE', #258, 5.500000000000000000 ) ;
#543 = DIRECTION ( 'NONE',  ( -0.000000000000000000, 1.000000000000000000, -0.000000000000000000 ) ) ;
#544 = ORIENTED_EDGE ( 'NONE', *, *, #149, .F. ) ;
#545 = EDGE_CURVE ( 'NONE', #344, #41, #254, .T. ) ;
#546 = EDGE_LOOP ( 'NONE', ( #497, #325 ) ) ;
#547 = CARTESIAN_POINT ( 'NONE',  ( 25.39999999999996660, 12.69999999999999929, 3.751199874999998407 ) ) ;
#548 = CARTESIAN_POINT ( 'NONE',  ( -38.10000000000000853, 12.69999999999999929, 12.69999999999999929 ) ) ;
#549 = VERTEX_POINT ( 'NONE', #660 ) ;
#550 = VECTOR ( 'NONE', #356, 1000.000000000000000 ) ;
#551 = VECTOR ( 'NONE', #421, 1000.000000000000000 ) ;
#552 = ADVANCED_FACE ( 'NONE', ( #486 ), #118, .F. ) ;
#553 = CARTESIAN_POINT ( 'NONE',  ( -25.40000000000000924, 5.349999999999999645, 0.000000000000000000 ) ) ;
#554 = LINE ( 'NONE', #71, #64 ) ;
#555 = ORIENTED_EDGE ( 'NONE', *, *, #328, .T. ) ;
#556 = DIRECTION ( 'NONE',  ( 0.000000000000000000, 0.000000000000000000, 1.000000000000000000 ) ) ;
#557 = CARTESIAN_POINT ( 'NONE',  ( -25.40000000000000924, 5.349999999999999645, 0.000000000000000000 ) ) ;
#558 = VERTEX_POINT ( 'NONE', #445 ) ;
#559 = CARTESIAN_POINT ( 'NONE',  ( 0.000000000000000000, 12.69999999999999929, 12.69999999999999929 ) ) ;
#560 = ORIENTED_EDGE ( 'NONE', *, *, #367, .T. ) ;
#561 = VECTOR ( 'NONE', #148, 1000.000000000000000 ) ;
#562 = APPLICATION_PROTOCOL_DEFINITION ( 'draft international standard', 'automotive_design', 1998, #441 ) ;
#563 = DIRECTION ( 'NONE',  ( -0.000000000000000000, -1.000000000000000000, -0.000000000000000000 ) ) ;
#564 = CARTESIAN_POINT ( 'NONE',  ( 25.39999999999996660, 12.69999999999999929, 0.000000000000000000 ) ) ;
#565 = CARTESIAN_POINT ( 'NONE',  ( -25.40000000000000924, 12.69999999999999929, 3.751199874999998407 ) ) ;
#566 = ORIENTED_EDGE ( 'NONE', *, *, #602, .T. ) ;
#567 = CARTESIAN_POINT ( 'NONE',  ( 25.39999999999996660, 5.349999999999999645, 0.000000000000000000 ) ) ;
#568 = ORIENTED_EDGE ( 'NONE', *, *, #464, .F. ) ;
#569 = ADVANCED_FACE ( 'NONE', ( #179 ), #9, .F. ) ;
#570 = VECTOR ( 'NONE', #330, 1000.000000000000000 ) ;
#571 = AXIS2_PLACEMENT_3D ( 'NONE', #42, #588, #39 ) ;
#572 = EDGE_CURVE ( 'NONE', #315, #161, #154, .T. ) ;
#573 = CARTESIAN_POINT ( 'NONE',  ( -38.10000000000000853, 12.69999999999999929, 12.69999999999999929 ) ) ;
#574 = ORIENTED_EDGE ( 'NONE', *, *, #114, .T. ) ;
#575 = FACE_OUTER_BOUND ( 'NONE', #321, .T. ) ;
#576 = ORIENTED_EDGE ( 'NONE', *, *, #290, .T. ) ;
#577 = CYLINDRICAL_SURFACE ( 'NONE', #663, 3.751199874999998407 ) ;
#578 = CARTESIAN_POINT ( 'NONE',  ( 12.69999999999999751, 12.69999999999999929, -12.69999999999999929 ) ) ;
#579 = EDGE_CURVE ( 'NONE', #468, #492, #650, .T. ) ;
#580 = DIRECTION ( 'NONE',  ( 0.000000000000000000, 0.000000000000000000, 1.000000000000000000 ) ) ;
#581 = CARTESIAN_POINT ( 'NONE',  ( -38.10000000000000853, 0.000000000000000000, -12.69999999999999929 ) ) ;
#582 = AXIS2_PLACEMENT_3D ( 'NONE', #176, #10, #384 ) ;
#583 = CYLINDRICAL_SURFACE ( 'NONE', #341, 3.751199874999999739 ) ;
#584 = VECTOR ( 'NONE', #592, 1000.000000000000000 ) ;
#585 =( GEOMETRIC_REPRESENTATION_CONTEXT ( 3 ) GLOBAL_UNCERTAINTY_ASSIGNED_CONTEXT ( ( #413 ) ) GLOBAL_UNIT_ASSIGNED_CONTEXT ( ( #380, #61, #83 ) ) REPRESENTATION_CONTEXT ( 'NONE', 'WORKASPACE' ) );
#586 = VERTEX_POINT ( 'NONE', #111 ) ;
#587 = EDGE_CURVE ( 'NONE', #161, #315, #133, .T. ) ;
#588 = DIRECTION ( 'NONE',  ( 0.000000000000000000, 1.000000000000000000, -0.000000000000000000 ) ) ;
#589 = CYLINDRICAL_SURFACE ( 'NONE', #17, 5.500000000000000000 ) ;
#590 = EDGE_CURVE ( 'NONE', #13, #344, #18, .T. ) ;
#591 = ORIENTED_EDGE ( 'NONE', *, *, #694, .F. ) ;
#592 = DIRECTION ( 'NONE',  ( -0.000000000000000000, -1.000000000000000000, -0.000000000000000000 ) ) ;
#593 = FACE_OUTER_BOUND ( 'NONE', #621, .T. ) ;
#594 = ORIENTED_EDGE ( 'NONE', *, *, #91, .T. ) ;
#595 = ADVANCED_FACE ( 'NONE', ( #336 ), #225, .F. ) ;
#596 = DIRECTION ( 'NONE',  ( -0.000000000000000000, -1.000000000000000000, -0.000000000000000000 ) ) ;
#597 = CARTESIAN_POINT ( 'NONE',  ( -25.40000000000000924, 12.69999999999999929, -5.500000000000000000 ) ) ;
#598 = AXIS2_PLACEMENT_3D ( 'NONE', #418, #693, #109 ) ;
#599 = ORIENTED_EDGE ( 'NONE', *, *, #283, .T. ) ;
#600 = AXIS2_PLACEMENT_3D ( 'NONE', #12, #167, #617 ) ;
#601 = EDGE_CURVE ( 'NONE', #677, #41, #426, .T. ) ;
#602 = EDGE_CURVE ( 'NONE', #158, #468, #389, .T. ) ;
#603 = CARTESIAN_POINT ( 'NONE',  ( 31.00000000000000000, 19.04999999999999716, 3.751199874999997963 ) ) ;
#604 = CARTESIAN_POINT ( 'NONE',  ( 12.69999999999999751, 25.39999999999999858, -12.69999999999999929 ) ) ;
#605 = ORIENTED_EDGE ( 'NONE', *, *, #2, .T. ) ;
#606 =( NAMED_UNIT ( * ) PLANE_ANGLE_UNIT ( ) SI_UNIT ( $, .RADIAN. ) );
#607 = ORIENTED_EDGE ( 'NONE', *, *, #91, .F. ) ;
#608 = EDGE_CURVE ( 'NONE', #158, #665, #53, .T. ) ;
#609 = DIRECTION ( 'NONE',  ( 0.000000000000000000, 1.000000000000000000, -0.000000000000000000 ) ) ;
#610 = EDGE_CURVE ( 'NONE', #130, #44, #3, .T. ) ;
#611 = PLANE ( 'NONE',  #280 ) ;
#612 = EDGE_LOOP ( 'NONE', ( #65, #11, #466, #291 ) ) ;
#613 = VECTOR ( 'NONE', #34, 1000.000000000000000 ) ;
#614 = DIRECTION ( 'NONE',  ( 0.000000000000000000, 0.000000000000000000, -1.000000000000000000 ) ) ;
#615 = LINE ( 'NONE', #559, #396 ) ;
#616 = ORIENTED_EDGE ( 'NONE', *, *, #197, .T. ) ;
#617 = DIRECTION ( 'NONE',  ( 0.000000000000000000, 0.000000000000000000, 1.000000000000000000 ) ) ;
#618 = FACE_OUTER_BOUND ( 'NONE', #683, .T. ) ;
#619 = ORIENTED_EDGE ( 'NONE', *, *, #377, .F. ) ;
#620 = FACE_BOUND ( 'NONE', #682, .T. ) ;
#621 = EDGE_LOOP ( 'NONE', ( #648, #690, #645, #555 ) ) ;
#622 = AXIS2_PLACEMENT_3D ( 'NONE', #137, #188, #299 ) ;
#623 = PLANE ( 'NONE',  #332 ) ;
#624 = ORIENTED_EDGE ( 'NONE', *, *, #678, .F. ) ;
#625 = DIRECTION ( 'NONE',  ( 1.000000000000000000, -0.000000000000000000, 0.000000000000000000 ) ) ;
#626 = DIRECTION ( 'NONE',  ( -0.000000000000000000, -1.000000000000000000, -0.000000000000000000 ) ) ;
#627 = FACE_BOUND ( 'NONE', #86, .T. ) ;
#628 = CARTESIAN_POINT ( 'NONE',  ( 25.39999999999996660, 5.349999999999999645, 0.000000000000000000 ) ) ;
#629 = AXIS2_PLACEMENT_3D ( 'NONE', #567, #408, #630 ) ;
#630 = DIRECTION ( 'NONE',  ( 0.000000000000000000, -0.000000000000000000, 1.000000000000000000 ) ) ;
#631 = VERTEX_POINT ( 'NONE', #383 ) ;
#632 = DIRECTION ( 'NONE',  ( -1.000000000000000000, -0.000000000000000000, -0.000000000000000000 ) ) ;
#633 = LINE ( 'NONE', #350, #613 ) ;
#634 = EDGE_CURVE ( 'NONE', #653, #72, #194, .T. ) ;
#635 = DIRECTION ( 'NONE',  ( -0.000000000000000000, -1.000000000000000000, -0.000000000000000000 ) ) ;
#636 = PLANE ( 'NONE',  #293 ) ;
#637 = ORIENTED_EDGE ( 'NONE', *, *, #292, .F. ) ;
#638 = CARTESIAN_POINT ( 'NONE',  ( 25.39999999999996660, 12.69999999999999929, 0.000000000000000000 ) ) ;
#639 = AXIS2_PLACEMENT_3D ( 'NONE', #359, #530, #4 ) ;
#640 = VECTOR ( 'NONE', #131, 1000.000000000000000 ) ;
#641 = DIRECTION ( 'NONE',  ( 1.000000000000000000, -0.000000000000000000, 0.000000000000000000 ) ) ;
#642 = ORIENTED_EDGE ( 'NONE', *, *, #8, .F. ) ;
#643 = CARTESIAN_POINT ( 'NONE',  ( 38.09999999999999432, 12.69999999999999929, 12.69999999999999929 ) ) ;
#644 = LINE ( 'NONE', #534, #550 ) ;
#645 = ORIENTED_EDGE ( 'NONE', *, *, #241, .F. ) ;
#646 = CARTESIAN_POINT ( 'NONE',  ( 31.00000000000000000, 19.04999999999999716, -1.734723475976807094E-15 ) ) ;
#647 = LINE ( 'NONE', #689, #107 ) ;
#648 = ORIENTED_EDGE ( 'NONE', *, *, #275, .T. ) ;
#649 = UNCERTAINTY_MEASURE_WITH_UNIT (LENGTH_MEASURE( 1.000000000000000082E-05 ), #449, 'distance_accuracy_value', 'NONE');
#650 = LINE ( 'NONE', #67, #169 ) ;
#651 = SURFACE_STYLE_USAGE ( .BOTH. , #19 ) ;
#652 = AXIS2_PLACEMENT_3D ( 'NONE', #478, #641, #487 ) ;
#653 = VERTEX_POINT ( 'NONE', #58 ) ;
#654 = AXIS2_PLACEMENT_3D ( 'NONE', #404, #666, #514 ) ;
#655 = CARTESIAN_POINT ( 'NONE',  ( -25.40000000000000924, 12.69999999999999929, 0.000000000000000000 ) ) ;
#656 = PLANE ( 'NONE',  #582 ) ;
#657 = VERTEX_POINT ( 'NONE', #128 ) ;
#658 = DIRECTION ( 'NONE',  ( -0.000000000000000000, -1.000000000000000000, -0.000000000000000000 ) ) ;
#659 = ORIENTED_EDGE ( 'NONE', *, *, #545, .T. ) ;
#660 = CARTESIAN_POINT ( 'NONE',  ( 38.09999999999999432, 0.000000000000000000, -12.69999999999999929 ) ) ;
#661 = ORIENTED_EDGE ( 'NONE', *, *, #508, .F. ) ;
#662 =( GEOMETRIC_REPRESENTATION_CONTEXT ( 3 ) GLOBAL_UNCERTAINTY_ASSIGNED_CONTEXT ( ( #649 ) ) GLOBAL_UNIT_ASSIGNED_CONTEXT ( ( #449, #606, #496 ) ) REPRESENTATION_CONTEXT ( 'NONE', 'WORKASPACE' ) );
#663 = AXIS2_PLACEMENT_3D ( 'NONE', #638, #635, #310 ) ;
#664 = CARTESIAN_POINT ( 'NONE',  ( -25.40000000000000924, 0.000000000000000000, 3.751199874999998407 ) ) ;
#665 = VERTEX_POINT ( 'NONE', #172 ) ;
#666 = DIRECTION ( 'NONE',  ( -1.000000000000000000, 0.000000000000000000, 0.000000000000000000 ) ) ;
#667 = ORIENTED_EDGE ( 'NONE', *, *, #2, .F. ) ;
#668 = DIRECTION ( 'NONE',  ( 0.000000000000000000, 1.000000000000000000, 0.000000000000000000 ) ) ;
#669 = LINE ( 'NONE', #80, #168 ) ;
#670 = VECTOR ( 'NONE', #504, 1000.000000000000000 ) ;
#671 = AXIS2_PLACEMENT_3D ( 'NONE', #489, #339, #495 ) ;
#672 = CARTESIAN_POINT ( 'NONE',  ( 0.000000000000000000, 0.000000000000000000, 0.000000000000000000 ) ) ;
#673 = ORIENTED_EDGE ( 'NONE', *, *, #328, .F. ) ;
#674 = DIRECTION ( 'NONE',  ( 0.000000000000000000, 0.000000000000000000, 1.000000000000000000 ) ) ;
#675 = FACE_OUTER_BOUND ( 'NONE', #612, .T. ) ;
#676 = CARTESIAN_POINT ( 'NONE',  ( -12.70000000000000107, 12.69999999999999929, 12.69999999999999929 ) ) ;
#677 = VERTEX_POINT ( 'NONE', #664 ) ;
#678 = EDGE_CURVE ( 'NONE', #558, #631, #185, .T. ) ;
#679 = AXIS2_PLACEMENT_3D ( 'NONE', #564, #626, #199 ) ;
#680 = AXIS2_PLACEMENT_3D ( 'NONE', #498, #503, #124 ) ;
#681 = CARTESIAN_POINT ( 'NONE',  ( 25.39999999999996660, 12.69999999999999929, -3.751199874999998407 ) ) ;
#682 = EDGE_LOOP ( 'NONE', ( #450, #510 ) ) ;
#683 = EDGE_LOOP ( 'NONE', ( #463, #599, #568, #419 ) ) ;
#684 = CARTESIAN_POINT ( 'NONE',  ( 25.39999999999996660, 5.349999999999999645, 0.000000000000000000 ) ) ;
#685 = DIRECTION ( 'NONE',  ( 0.000000000000000000, 1.000000000000000000, 0.000000000000000000 ) ) ;
#686 = EDGE_LOOP ( 'NONE', ( #560, #20, #201, #673, #667, #488, #171, #576 ) ) ;
#687 = SHAPE_DEFINITION_REPRESENTATION ( #151, #31 ) ;
#688 = DIRECTION ( 'NONE',  ( 0.000000000000000000, 0.000000000000000000, 1.000000000000000000 ) ) ;
#689 = CARTESIAN_POINT ( 'NONE',  ( -12.70000000000000107, 25.39999999999999858, -12.69999999999999929 ) ) ;
#690 = ORIENTED_EDGE ( 'NONE', *, *, #520, .F. ) ;
#691 = DIRECTION ( 'NONE',  ( -0.000000000000000000, -1.000000000000000000, 0.000000000000000000 ) ) ;
#692 = AXIS2_PLACEMENT_3D ( 'NONE', #51, #97, #267 ) ;
#693 = DIRECTION ( 'NONE',  ( -0.000000000000000000, -1.000000000000000000, 0.000000000000000000 ) ) ;
#694 = EDGE_CURVE ( 'NONE', #205, #52, #115, .T. ) ;
#695 = ORIENTED_EDGE ( 'NONE', *, *, #423, .F. ) ;
#696 = DIRECTION ( 'NONE',  ( -0.000000000000000000, 1.000000000000000000, -0.000000000000000000 ) ) ;
#697 = PLANE ( 'NONE',  #652 ) ;
#698 = ORIENTED_EDGE ( 'NONE', *, *, #354, .F. ) ;
#699 = CARTESIAN_POINT ( 'NONE',  ( -25.40000000000000924, 5.349999999999999645, 0.000000000000000000 ) ) ;
#700 = DIRECTION ( 'NONE',  ( -0.000000000000000000, 1.000000000000000000, -0.000000000000000000 ) ) ;
#701 = EDGE_LOOP ( 'NONE', ( #273, #513 ) ) ;
ENDSEC;
END-ISO-10303-21;
