ISO-10303-21;
HEADER;
FILE_DESCRIPTION (( 'STEP AP214' ),
    '1' );
FILE_NAME ('T-Slot Mount (0.5mm smaller holes).STEP',
    '2026-04-27T23:03:21',
    ( '' ),
    ( '' ),
    'SwSTEP 2.0',
    'SolidWorks 2025',
    '' );
FILE_SCHEMA (( 'AUTOMOTIVE_DESIGN' ));
ENDSEC;

DATA;
#1 = ORIENTED_EDGE ( 'NONE', *, *, #586, .T. ) ;
#2 = DIRECTION ( 'NONE',  ( 0.000000000000000000, 1.000000000000000000, 0.000000000000000000 ) ) ;
#3 = DIRECTION ( 'NONE',  ( -0.000000000000000000, -1.000000000000000000, -0.000000000000000000 ) ) ;
#4 = ORIENTED_EDGE ( 'NONE', *, *, #111, .F. ) ;
#5 = EDGE_CURVE ( 'NONE', #307, #429, #21, .T. ) ;
#6 = VECTOR ( 'NONE', #560, 1000.000000000000000 ) ;
#7 = DIRECTION ( 'NONE',  ( -1.000000000000000000, -0.000000000000000000, -0.000000000000000000 ) ) ;
#8 = EDGE_LOOP ( 'NONE', ( #246, #122, #161, #101 ) ) ;
#9 = DIRECTION ( 'NONE',  ( 0.000000000000000000, 1.000000000000000000, 0.000000000000000000 ) ) ;
#10 = CARTESIAN_POINT ( 'NONE',  ( 25.39999999999996660, 5.349999999999999645, 5.500000000000000000 ) ) ;
#11 = ORIENTED_EDGE ( 'NONE', *, *, #437, .F. ) ;
#12 = AXIS2_PLACEMENT_3D ( 'NONE', #697, #103, #322 ) ;
#13 = DIRECTION ( 'NONE',  ( 0.000000000000000000, 0.000000000000000000, 1.000000000000000000 ) ) ;
#14 = ORIENTED_EDGE ( 'NONE', *, *, #498, .F. ) ;
#15 = AXIS2_PLACEMENT_3D ( 'NONE', #186, #406, #503 ) ;
#16 = FACE_OUTER_BOUND ( 'NONE', #184, .T. ) ;
#17 = ORIENTED_EDGE ( 'NONE', *, *, #256, .F. ) ;
#18 = CARTESIAN_POINT ( 'NONE',  ( -25.40000000000000924, 5.349999999999999645, 3.501199874999998851 ) ) ;
#19 = MANIFOLD_SOLID_BREP ( 'Cut-Extrude2', #169 ) ;
#20 = ORIENTED_EDGE ( 'NONE', *, *, #177, .T. ) ;
#21 = LINE ( 'NONE', #506, #627 ) ;
#22 = VECTOR ( 'NONE', #681, 1000.000000000000000 ) ;
#23 = EDGE_CURVE ( 'NONE', #105, #35, #327, .T. ) ;
#24 = VERTEX_POINT ( 'NONE', #134 ) ;
#25 = EDGE_CURVE ( 'NONE', #74, #328, #295, .T. ) ;
#26 = FACE_OUTER_BOUND ( 'NONE', #279, .T. ) ;
#27 = FACE_OUTER_BOUND ( 'NONE', #302, .T. ) ;
#28 = ORIENTED_EDGE ( 'NONE', *, *, #47, .F. ) ;
#29 = PLANE ( 'NONE',  #336 ) ;
#30 = DIRECTION ( 'NONE',  ( -1.000000000000000000, -0.000000000000000000, -0.000000000000000000 ) ) ;
#31 = ORIENTED_EDGE ( 'NONE', *, *, #25, .F. ) ;
#32 = CYLINDRICAL_SURFACE ( 'NONE', #370, 5.500000000000000000 ) ;
#33 = ADVANCED_FACE ( 'NONE', ( #16 ), #567, .F. ) ;
#34 = CARTESIAN_POINT ( 'NONE',  ( -25.40000000000000924, 5.349999999999999645, -5.500000000000000000 ) ) ;
#35 = VERTEX_POINT ( 'NONE', #237 ) ;
#36 = DIRECTION ( 'NONE',  ( 0.000000000000000000, 0.000000000000000000, 1.000000000000000000 ) ) ;
#37 = DIRECTION ( 'NONE',  ( 0.000000000000000000, 1.000000000000000000, 0.000000000000000000 ) ) ;
#38 = ORIENTED_EDGE ( 'NONE', *, *, #505, .F. ) ;
#39 = AXIS2_PLACEMENT_3D ( 'NONE', #347, #508, #409 ) ;
#40 = CARTESIAN_POINT ( 'NONE',  ( 0.000000000000000000, 12.69999999999999929, -12.69999999999999929 ) ) ;
#41 = CARTESIAN_POINT ( 'NONE',  ( 25.39999999999996660, 5.349999999999999645, -5.500000000000000000 ) ) ;
#42 = EDGE_LOOP ( 'NONE', ( #605, #60 ) ) ;
#43 = CARTESIAN_POINT ( 'NONE',  ( 0.000000000000000000, 12.69999999999999929, 12.69999999999999929 ) ) ;
#44 = DIRECTION ( 'NONE',  ( 0.000000000000000000, 0.000000000000000000, -1.000000000000000000 ) ) ;
#45 = VECTOR ( 'NONE', #329, 1000.000000000000000 ) ;
#46 = ORIENTED_EDGE ( 'NONE', *, *, #86, .T. ) ;
#47 = EDGE_CURVE ( 'NONE', #35, #105, #398, .T. ) ;
#48 = DIRECTION ( 'NONE',  ( 1.000000000000000000, 0.000000000000000000, 0.000000000000000000 ) ) ;
#49 = ADVANCED_FACE ( 'NONE', ( #182 ), #400, .F. ) ;
#50 = AXIS2_PLACEMENT_3D ( 'NONE', #213, #493, #446 ) ;
#51 = DIRECTION ( 'NONE',  ( 0.000000000000000000, 1.000000000000000000, -0.000000000000000000 ) ) ;
#52 = VERTEX_POINT ( 'NONE', #402 ) ;
#53 = DIRECTION ( 'NONE',  ( 0.000000000000000000, 0.000000000000000000, -1.000000000000000000 ) ) ;
#54 = CARTESIAN_POINT ( 'NONE',  ( -12.70000000000000107, 12.69999999999999929, -12.69999999999999929 ) ) ;
#55 = VERTEX_POINT ( 'NONE', #610 ) ;
#56 = CARTESIAN_POINT ( 'NONE',  ( -12.70000000000000107, 25.39999999999999858, 12.69999999999999929 ) ) ;
#57 = ADVANCED_FACE ( 'NONE', ( #300, #612 ), #78, .T. ) ;
#58 = AXIS2_PLACEMENT_3D ( 'NONE', #647, #591, #636 ) ;
#59 = CARTESIAN_POINT ( 'NONE',  ( -38.10000000000000853, 12.69999999999999929, -12.69999999999999929 ) ) ;
#60 = ORIENTED_EDGE ( 'NONE', *, *, #558, .T. ) ;
#61 = VECTOR ( 'NONE', #490, 1000.000000000000000 ) ;
#62 =( NAMED_UNIT ( * ) SI_UNIT ( $, .STERADIAN. ) SOLID_ANGLE_UNIT ( ) );
#63 = DIRECTION ( 'NONE',  ( 0.000000000000000000, -0.000000000000000000, 1.000000000000000000 ) ) ;
#64 = ORIENTED_EDGE ( 'NONE', *, *, #283, .F. ) ;
#65 = CARTESIAN_POINT ( 'NONE',  ( 12.69999999999999751, 25.39999999999999858, 12.69999999999999929 ) ) ;
#66 = ORIENTED_EDGE ( 'NONE', *, *, #5, .F. ) ;
#67 = ADVANCED_FACE ( 'NONE', ( #27 ), #614, .T. ) ;
#68 = CYLINDRICAL_SURFACE ( 'NONE', #521, 5.500000000000000000 ) ;
#69 = FACE_OUTER_BOUND ( 'NONE', #662, .T. ) ;
#70 = ORIENTED_EDGE ( 'NONE', *, *, #611, .F. ) ;
#71 = CARTESIAN_POINT ( 'NONE',  ( -25.40000000000000924, 5.349999999999999645, 5.500000000000000000 ) ) ;
#72 = PRODUCT ( 'T-Slot Mount (0.5mm smaller holes)', 'T-Slot Mount (0.5mm smaller holes)', '', ( #557 ) ) ;
#73 = LINE ( 'NONE', #245, #415 ) ;
#74 = VERTEX_POINT ( 'NONE', #350 ) ;
#75 = AXIS2_PLACEMENT_3D ( 'NONE', #259, #642, #466 ) ;
#76 = ORIENTED_EDGE ( 'NONE', *, *, #203, .T. ) ;
#77 = EDGE_CURVE ( 'NONE', #314, #197, #73, .T. ) ;
#78 = PLANE ( 'NONE',  #452 ) ;
#79 = EDGE_LOOP ( 'NONE', ( #643, #226 ) ) ;
#80 = VECTOR ( 'NONE', #48, 1000.000000000000000 ) ;
#81 = AXIS2_PLACEMENT_3D ( 'NONE', #234, #91, #36 ) ;
#82 = CARTESIAN_POINT ( 'NONE',  ( 31.00000000000000000, 19.04999999999999716, -1.734723475976807094E-15 ) ) ;
#83 = CARTESIAN_POINT ( 'NONE',  ( -38.10000000000000853, 12.69999999999999929, -12.69999999999999929 ) ) ;
#84 = CIRCLE ( 'NONE', #75, 5.500000000000000000 ) ;
#85 = SURFACE_STYLE_USAGE ( .BOTH. , #242 ) ;
#86 = EDGE_CURVE ( 'NONE', #52, #421, #190, .T. ) ;
#87 = DIRECTION ( 'NONE',  ( 0.000000000000000000, 1.000000000000000000, 0.000000000000000000 ) ) ;
#88 = CARTESIAN_POINT ( 'NONE',  ( 12.69999999999999751, 12.69999999999999929, -12.69999999999999929 ) ) ;
#89 = EDGE_LOOP ( 'NONE', ( #471, #271, #11, #133 ) ) ;
#90 = AXIS2_PLACEMENT_3D ( 'NONE', #380, #575, #211 ) ;
#91 = DIRECTION ( 'NONE',  ( -0.000000000000000000, 1.000000000000000000, -0.000000000000000000 ) ) ;
#92 = LINE ( 'NONE', #363, #131 ) ;
#93 = VERTEX_POINT ( 'NONE', #18 ) ;
#94 = CARTESIAN_POINT ( 'NONE',  ( 38.09999999999999432, 0.000000000000000000, 0.000000000000000000 ) ) ;
#95 = PLANE ( 'NONE',  #97 ) ;
#96 = ORIENTED_EDGE ( 'NONE', *, *, #23, .F. ) ;
#97 = AXIS2_PLACEMENT_3D ( 'NONE', #519, #342, #63 ) ;
#98 = CARTESIAN_POINT ( 'NONE',  ( -25.40000000000000924, 5.349999999999999645, 0.000000000000000000 ) ) ;
#99 = LINE ( 'NONE', #41, #651 ) ;
#100 = EDGE_CURVE ( 'NONE', #417, #590, #132, .T. ) ;
#101 = ORIENTED_EDGE ( 'NONE', *, *, #586, .F. ) ;
#102 = EDGE_CURVE ( 'NONE', #403, #691, #592, .T. ) ;
#103 = DIRECTION ( 'NONE',  ( -1.000000000000000000, 0.000000000000000000, 0.000000000000000000 ) ) ;
#104 = DIRECTION ( 'NONE',  ( 0.000000000000000000, 0.000000000000000000, 1.000000000000000000 ) ) ;
#105 = VERTEX_POINT ( 'NONE', #160 ) ;
#106 = DIRECTION ( 'NONE',  ( 0.000000000000000000, 0.000000000000000000, -1.000000000000000000 ) ) ;
#107 = DIRECTION ( 'NONE',  ( 0.000000000000000000, 0.000000000000000000, 1.000000000000000000 ) ) ;
#108 = ORIENTED_EDGE ( 'NONE', *, *, #365, .F. ) ;
#109 = AXIS2_PLACEMENT_3D ( 'NONE', #82, #30, #667 ) ;
#110 = FACE_OUTER_BOUND ( 'NONE', #441, .T. ) ;
#111 = EDGE_CURVE ( 'NONE', #556, #590, #84, .T. ) ;
#112 = FACE_OUTER_BOUND ( 'NONE', #634, .T. ) ;
#113 = ORIENTED_EDGE ( 'NONE', *, *, #282, .T. ) ;
#114 = DIRECTION ( 'NONE',  ( 0.000000000000000000, 0.000000000000000000, 1.000000000000000000 ) ) ;
#115 = CARTESIAN_POINT ( 'NONE',  ( 0.000000000000000000, 0.000000000000000000, 12.69999999999999929 ) ) ;
#116 = ORIENTED_EDGE ( 'NONE', *, *, #693, .F. ) ;
#117 = CIRCLE ( 'NONE', #423, 5.500000000000000000 ) ;
#118 = CARTESIAN_POINT ( 'NONE',  ( -25.40000000000000924, 5.349999999999999645, 0.000000000000000000 ) ) ;
#119 = CIRCLE ( 'NONE', #266, 3.501199874999998851 ) ;
#120 = CARTESIAN_POINT ( 'NONE',  ( -25.40000000000000924, 0.000000000000000000, 0.000000000000000000 ) ) ;
#121 = ADVANCED_FACE ( 'NONE', ( #375 ), #584, .F. ) ;
#122 = ORIENTED_EDGE ( 'NONE', *, *, #355, .T. ) ;
#123 = DIRECTION ( 'NONE',  ( 0.000000000000000000, 0.000000000000000000, 1.000000000000000000 ) ) ;
#124 = DIRECTION ( 'NONE',  ( 0.000000000000000000, 0.000000000000000000, -1.000000000000000000 ) ) ;
#125 = ORIENTED_EDGE ( 'NONE', *, *, #139, .T. ) ;
#126 = EDGE_CURVE ( 'NONE', #492, #74, #367, .T. ) ;
#127 = DIRECTION ( 'NONE',  ( -0.000000000000000000, -1.000000000000000000, -0.000000000000000000 ) ) ;
#128 = DIRECTION ( 'NONE',  ( 0.000000000000000000, 1.000000000000000000, 0.000000000000000000 ) ) ;
#129 = CARTESIAN_POINT ( 'NONE',  ( 0.000000000000000000, 0.000000000000000000, 0.000000000000000000 ) ) ;
#130 = ORIENTED_EDGE ( 'NONE', *, *, #538, .F. ) ;
#131 = VECTOR ( 'NONE', #531, 1000.000000000000000 ) ;
#132 = LINE ( 'NONE', #34, #374 ) ;
#133 = ORIENTED_EDGE ( 'NONE', *, *, #165, .T. ) ;
#134 = CARTESIAN_POINT ( 'NONE',  ( -12.70000000000000107, 19.04999999999999716, 3.501199874999998851 ) ) ;
#135 = EDGE_LOOP ( 'NONE', ( #108, #285 ) ) ;
#136 = CIRCLE ( 'NONE', #12, 3.501199875000000183 ) ;
#137 = DIRECTION ( 'NONE',  ( -0.000000000000000000, -1.000000000000000000, -0.000000000000000000 ) ) ;
#138 = DIRECTION ( 'NONE',  ( -0.000000000000000000, -1.000000000000000000, -0.000000000000000000 ) ) ;
#139 = EDGE_CURVE ( 'NONE', #331, #337, #690, .T. ) ;
#140 = VECTOR ( 'NONE', #3, 1000.000000000000000 ) ;
#141 = ORIENTED_EDGE ( 'NONE', *, *, #675, .T. ) ;
#142 = DIRECTION ( 'NONE',  ( -1.000000000000000000, 0.000000000000000000, 0.000000000000000000 ) ) ;
#143 = COLOUR_RGB ( '',0.7921568627450980005, 0.8196078431372548767, 0.9333333333333333481 ) ;
#144 = CARTESIAN_POINT ( 'NONE',  ( -12.70000000000000107, 25.39999999999999858, 12.69999999999999929 ) ) ;
#145 = ORIENTED_EDGE ( 'NONE', *, *, #86, .F. ) ;
#146 = DIRECTION ( 'NONE',  ( -1.000000000000000000, 0.000000000000000000, 0.000000000000000000 ) ) ;
#147 = PRODUCT_DEFINITION_FORMATION_WITH_SPECIFIED_SOURCE ( 'ANY', '', #72, .NOT_KNOWN. ) ;
#148 = DIRECTION ( 'NONE',  ( -1.000000000000000000, 0.000000000000000000, -0.000000000000000000 ) ) ;
#149 = VERTEX_POINT ( 'NONE', #419 ) ;
#150 = CIRCLE ( 'NONE', #420, 5.500000000000000000 ) ;
#151 = CYLINDRICAL_SURFACE ( 'NONE', #174, 3.501199875000000183 ) ;
#152 = FACE_OUTER_BOUND ( 'NONE', #42, .T. ) ;
#153 = ORIENTED_EDGE ( 'NONE', *, *, #77, .T. ) ;
#154 = DIRECTION ( 'NONE',  ( 0.000000000000000000, 0.000000000000000000, 1.000000000000000000 ) ) ;
#155 = EDGE_CURVE ( 'NONE', #235, #307, #209, .T. ) ;
#156 = ADVANCED_FACE ( 'NONE', ( #424, #578 ), #680, .T. ) ;
#157 = DIRECTION ( 'NONE',  ( 1.000000000000000000, -0.000000000000000000, 0.000000000000000000 ) ) ;
#158 = VERTEX_POINT ( 'NONE', #144 ) ;
#159 = CARTESIAN_POINT ( 'NONE',  ( -25.40000000000000924, 5.349999999999999645, 0.000000000000000000 ) ) ;
#160 = CARTESIAN_POINT ( 'NONE',  ( 25.39999999999996660, 5.349999999999999645, 3.501199874999998851 ) ) ;
#161 = ORIENTED_EDGE ( 'NONE', *, *, #303, .F. ) ;
#162 = CARTESIAN_POINT ( 'NONE',  ( 25.39999999999996660, 12.69999999999999929, 0.000000000000000000 ) ) ;
#163 = LINE ( 'NONE', #65, #637 ) ;
#164 = CARTESIAN_POINT ( 'NONE',  ( 12.69999999999999574, 19.04999999999999716, -1.734723475976807094E-15 ) ) ;
#165 = EDGE_CURVE ( 'NONE', #619, #197, #255, .T. ) ;
#166 = DIRECTION ( 'NONE',  ( 0.000000000000000000, 1.000000000000000000, -0.000000000000000000 ) ) ;
#167 = CARTESIAN_POINT ( 'NONE',  ( -12.70000000000000107, 25.39999999999999858, -12.69999999999999929 ) ) ;
#168 = ORIENTED_EDGE ( 'NONE', *, *, #183, .F. ) ;
#169 = CLOSED_SHELL ( 'NONE', ( #33, #683, #528, #477, #212, #623, #353, #666, #641, #396, #189, #67, #156, #577, #445, #301, #121, #49, #514, #57, #236, #475 ) ) ;
#170 = LINE ( 'NONE', #539, #233 ) ;
#171 = ORIENTED_EDGE ( 'NONE', *, *, #203, .F. ) ;
#172 = FACE_OUTER_BOUND ( 'NONE', #360, .T. ) ;
#173 = ORIENTED_EDGE ( 'NONE', *, *, #486, .T. ) ;
#174 = AXIS2_PLACEMENT_3D ( 'NONE', #450, #665, #180 ) ;
#175 = AXIS2_PLACEMENT_3D ( 'NONE', #483, #698, #326 ) ;
#176 = DIRECTION ( 'NONE',  ( -0.000000000000000000, -1.000000000000000000, -0.000000000000000000 ) ) ;
#177 = EDGE_CURVE ( 'NONE', #691, #444, #99, .T. ) ;
#178 = ORIENTED_EDGE ( 'NONE', *, *, #111, .T. ) ;
#179 = AXIS2_PLACEMENT_3D ( 'NONE', #633, #687, #695 ) ;
#180 = DIRECTION ( 'NONE',  ( 0.000000000000000000, 0.000000000000000000, 1.000000000000000000 ) ) ;
#181 = PRODUCT_DEFINITION_SHAPE ( 'NONE', 'NONE',  #228 ) ;
#182 = FACE_OUTER_BOUND ( 'NONE', #296, .T. ) ;
#183 = EDGE_CURVE ( 'NONE', #492, #235, #629, .T. ) ;
#184 = EDGE_LOOP ( 'NONE', ( #579, #20, #626, #324 ) ) ;
#185 = EDGE_LOOP ( 'NONE', ( #64, #46, #173, #210 ) ) ;
#186 = CARTESIAN_POINT ( 'NONE',  ( 25.39999999999996660, 5.349999999999999645, 0.000000000000000000 ) ) ;
#187 = ORIENTED_EDGE ( 'NONE', *, *, #256, .T. ) ;
#188 = LINE ( 'NONE', #518, #278 ) ;
#189 = ADVANCED_FACE ( 'NONE', ( #470 ), #199, .T. ) ;
#190 = LINE ( 'NONE', #291, #6 ) ;
#191 = DIRECTION ( 'NONE',  ( 0.000000000000000000, 0.000000000000000000, -1.000000000000000000 ) ) ;
#192 = CARTESIAN_POINT ( 'NONE',  ( 0.000000000000000000, 12.69999999999999929, 12.69999999999999929 ) ) ;
#193 = ORIENTED_EDGE ( 'NONE', *, *, #602, .F. ) ;
#194 = CARTESIAN_POINT ( 'NONE',  ( 12.69999999999999751, 25.39999999999999858, 12.69999999999999929 ) ) ;
#195 = MECHANICAL_DESIGN_GEOMETRIC_PRESENTATION_REPRESENTATION (  '', ( #223 ), #504 ) ;
#196 = CARTESIAN_POINT ( 'NONE',  ( 0.000000000000000000, 25.39999999999999858, 0.000000000000000000 ) ) ;
#197 = VERTEX_POINT ( 'NONE', #527 ) ;
#198 = CARTESIAN_POINT ( 'NONE',  ( -25.40000000000000924, 5.349999999999999645, -5.500000000000000000 ) ) ;
#199 = PLANE ( 'NONE',  #305 ) ;
#200 = ORIENTED_EDGE ( 'NONE', *, *, #139, .F. ) ;
#201 = EDGE_CURVE ( 'NONE', #696, #24, #92, .T. ) ;
#202 = PLANE ( 'NONE',  #276 ) ;
#203 = EDGE_CURVE ( 'NONE', #436, #556, #264, .T. ) ;
#204 = CIRCLE ( 'NONE', #601, 3.501199875000000183 ) ;
#205 = CARTESIAN_POINT ( 'NONE',  ( 0.000000000000000000, 12.69999999999999929, -12.69999999999999929 ) ) ;
#206 = ORIENTED_EDGE ( 'NONE', *, *, #23, .T. ) ;
#207 = AXIS2_PLACEMENT_3D ( 'NONE', #280, #51, #443 ) ;
#208 = FACE_BOUND ( 'NONE', #135, .T. ) ;
#209 = LINE ( 'NONE', #205, #672 ) ;
#210 = ORIENTED_EDGE ( 'NONE', *, *, #551, .F. ) ;
#211 = DIRECTION ( 'NONE',  ( 0.000000000000000000, 0.000000000000000000, -1.000000000000000000 ) ) ;
#212 = ADVANCED_FACE ( 'NONE', ( #428 ), #523, .F. ) ;
#213 = CARTESIAN_POINT ( 'NONE',  ( 25.39999999999996660, 0.000000000000000000, 0.000000000000000000 ) ) ;
#214 = ORIENTED_EDGE ( 'NONE', *, *, #563, .T. ) ;
#215 = CARTESIAN_POINT ( 'NONE',  ( -38.10000000000000853, 12.69999999999999929, 12.69999999999999929 ) ) ;
#216 = DIRECTION ( 'NONE',  ( 0.000000000000000000, 0.000000000000000000, 1.000000000000000000 ) ) ;
#217 = AXIS2_PLACEMENT_3D ( 'NONE', #448, #341, #114 ) ;
#218 = ORIENTED_EDGE ( 'NONE', *, *, #100, .T. ) ;
#219 = DIRECTION ( 'NONE',  ( 0.000000000000000000, 0.000000000000000000, 1.000000000000000000 ) ) ;
#220 = DIRECTION ( 'NONE',  ( -0.000000000000000000, -1.000000000000000000, -0.000000000000000000 ) ) ;
#221 = ORIENTED_EDGE ( 'NONE', *, *, #551, .T. ) ;
#222 = PRODUCT_DEFINITION_CONTEXT ( 'detailed design', #594, 'design' ) ;
#223 = STYLED_ITEM ( 'NONE', ( #516 ), #19 ) ;
#224 = APPLICATION_PROTOCOL_DEFINITION ( 'draft international standard', 'automotive_design', 1998, #559 ) ;
#225 = DIRECTION ( 'NONE',  ( -1.000000000000000000, 0.000000000000000000, 0.000000000000000000 ) ) ;
#226 = ORIENTED_EDGE ( 'NONE', *, *, #563, .F. ) ;
#227 = EDGE_CURVE ( 'NONE', #696, #331, #270, .T. ) ;
#228 = PRODUCT_DEFINITION ( 'UNKNOWN', '', #147, #222 ) ;
#229 = DIRECTION ( 'NONE',  ( -0.000000000000000000, -1.000000000000000000, -0.000000000000000000 ) ) ;
#230 = AXIS2_PLACEMENT_3D ( 'NONE', #159, #267, #537 ) ;
#231 = ORIENTED_EDGE ( 'NONE', *, *, #155, .T. ) ;
#232 = DIRECTION ( 'NONE',  ( 0.000000000000000000, 0.000000000000000000, 1.000000000000000000 ) ) ;
#233 = VECTOR ( 'NONE', #176, 1000.000000000000000 ) ;
#234 = CARTESIAN_POINT ( 'NONE',  ( -25.40000000000000924, 5.349999999999999645, 0.000000000000000000 ) ) ;
#235 = VERTEX_POINT ( 'NONE', #88 ) ;
#236 = ADVANCED_FACE ( 'NONE', ( #152, #309 ), #95, .T. ) ;
#237 = CARTESIAN_POINT ( 'NONE',  ( 25.39999999999996660, 5.349999999999999645, -3.501199874999998851 ) ) ;
#238 = ORIENTED_EDGE ( 'NONE', *, *, #289, .F. ) ;
#239 = DIRECTION ( 'NONE',  ( -0.000000000000000000, -1.000000000000000000, -0.000000000000000000 ) ) ;
#240 = ORIENTED_EDGE ( 'NONE', *, *, #165, .F. ) ;
#241 = CIRCLE ( 'NONE', #394, 3.501199874999998851 ) ;
#242 = SURFACE_SIDE_STYLE ('',( #622 ) ) ;
#243 = VERTEX_POINT ( 'NONE', #59 ) ;
#244 = FACE_OUTER_BOUND ( 'NONE', #372, .T. ) ;
#245 = CARTESIAN_POINT ( 'NONE',  ( -12.70000000000000107, 12.69999999999999929, 12.69999999999999929 ) ) ;
#246 = ORIENTED_EDGE ( 'NONE', *, *, #458, .T. ) ;
#247 = LINE ( 'NONE', #468, #22 ) ;
#248 = EDGE_CURVE ( 'NONE', #529, #314, #390, .T. ) ;
#249 = CARTESIAN_POINT ( 'NONE',  ( 31.00000000000000000, 19.04999999999999716, -3.501199875000001960 ) ) ;
#250 = CARTESIAN_POINT ( 'NONE',  ( 25.39999999999996660, 5.349999999999999645, 5.500000000000000000 ) ) ;
#251 = DIRECTION ( 'NONE',  ( 0.000000000000000000, 0.000000000000000000, 1.000000000000000000 ) ) ;
#252 = ORIENTED_EDGE ( 'NONE', *, *, #631, .T. ) ;
#253 = DIRECTION ( 'NONE',  ( -1.000000000000000000, 0.000000000000000000, 0.000000000000000000 ) ) ;
#254 = VECTOR ( 'NONE', #157, 1000.000000000000000 ) ;
#255 = LINE ( 'NONE', #581, #254 ) ;
#256 = EDGE_CURVE ( 'NONE', #386, #492, #163, .T. ) ;
#257 = ORIENTED_EDGE ( 'NONE', *, *, #344, .F. ) ;
#258 = CARTESIAN_POINT ( 'NONE',  ( -25.40000000000000924, 12.69999999999999929, -5.500000000000000000 ) ) ;
#259 = CARTESIAN_POINT ( 'NONE',  ( -25.40000000000000924, 12.69999999999999929, 0.000000000000000000 ) ) ;
#260 = ORIENTED_EDGE ( 'NONE', *, *, #656, .F. ) ;
#261 = LINE ( 'NONE', #422, #333 ) ;
#262 = AXIS2_PLACEMENT_3D ( 'NONE', #650, #166, #154 ) ;
#263 = CIRCLE ( 'NONE', #660, 5.500000000000000000 ) ;
#264 = LINE ( 'NONE', #478, #615 ) ;
#265 = ORIENTED_EDGE ( 'NONE', *, *, #344, .T. ) ;
#266 = AXIS2_PLACEMENT_3D ( 'NONE', #120, #661, #216 ) ;
#267 = DIRECTION ( 'NONE',  ( 0.000000000000000000, 1.000000000000000000, 0.000000000000000000 ) ) ;
#268 = EDGE_CURVE ( 'NONE', #619, #52, #170, .T. ) ;
#269 = CARTESIAN_POINT ( 'NONE',  ( -12.70000000000000107, 19.04999999999999716, -3.501199875000001960 ) ) ;
#270 = CIRCLE ( 'NONE', #404, 3.501199875000000183 ) ;
#271 = ORIENTED_EDGE ( 'NONE', *, *, #631, .F. ) ;
#272 = FACE_BOUND ( 'NONE', #488, .T. ) ;
#273 = DIRECTION ( 'NONE',  ( -0.000000000000000000, 1.000000000000000000, -0.000000000000000000 ) ) ;
#274 = ORIENTED_EDGE ( 'NONE', *, *, #387, .F. ) ;
#275 = LINE ( 'NONE', #377, #564 ) ;
#276 = AXIS2_PLACEMENT_3D ( 'NONE', #43, #106, #325 ) ;
#277 = DIRECTION ( 'NONE',  ( -0.000000000000000000, -1.000000000000000000, -0.000000000000000000 ) ) ;
#278 = VECTOR ( 'NONE', #127, 1000.000000000000000 ) ;
#279 = EDGE_LOOP ( 'NONE', ( #382, #513, #608, #684 ) ) ;
#280 = CARTESIAN_POINT ( 'NONE',  ( -25.40000000000000924, 0.000000000000000000, 0.000000000000000000 ) ) ;
#281 = VERTEX_POINT ( 'NONE', #388 ) ;
#282 = EDGE_CURVE ( 'NONE', #24, #337, #425, .T. ) ;
#283 = EDGE_CURVE ( 'NONE', #52, #328, #603, .T. ) ;
#284 = CARTESIAN_POINT ( 'NONE',  ( -25.40000000000000924, 12.69999999999999929, 3.501199874999998851 ) ) ;
#285 = ORIENTED_EDGE ( 'NONE', *, *, #334, .F. ) ;
#286 = DIRECTION ( 'NONE',  ( 0.000000000000000000, 0.000000000000000000, -1.000000000000000000 ) ) ;
#287 = ORIENTED_EDGE ( 'NONE', *, *, #283, .T. ) ;
#288 =( LENGTH_UNIT ( ) NAMED_UNIT ( * ) SI_UNIT ( .MILLI., .METRE. ) );
#289 = EDGE_CURVE ( 'NONE', #35, #540, #431, .T. ) ;
#290 = LINE ( 'NONE', #502, #456 ) ;
#291 = CARTESIAN_POINT ( 'NONE',  ( -38.10000000000000853, 0.000000000000000000, -0.000000000000000000 ) ) ;
#292 = ORIENTED_EDGE ( 'NONE', *, *, #604, .T. ) ;
#293 = FACE_OUTER_BOUND ( 'NONE', #561, .T. ) ;
#294 = AXIS2_PLACEMENT_3D ( 'NONE', #473, #37, #251 ) ;
#295 = LINE ( 'NONE', #670, #685 ) ;
#296 = EDGE_LOOP ( 'NONE', ( #200, #298, #574, #113 ) ) ;
#297 = DIRECTION ( 'NONE',  ( 0.000000000000000000, -0.000000000000000000, 1.000000000000000000 ) ) ;
#298 = ORIENTED_EDGE ( 'NONE', *, *, #227, .F. ) ;
#299 = AXIS2_PLACEMENT_3D ( 'NONE', #607, #229, #124 ) ;
#300 = FACE_BOUND ( 'NONE', #79, .T. ) ;
#301 = ADVANCED_FACE ( 'NONE', ( #395, #112 ), #652, .F. ) ;
#302 = EDGE_LOOP ( 'NONE', ( #145, #454, #520, #364 ) ) ;
#303 = EDGE_CURVE ( 'NONE', #149, #55, #449, .T. ) ;
#304 = CARTESIAN_POINT ( 'NONE',  ( 38.09999999999999432, 0.000000000000000000, -12.69999999999999929 ) ) ;
#305 = AXIS2_PLACEMENT_3D ( 'NONE', #534, #44, #148 ) ;
#306 = CARTESIAN_POINT ( 'NONE',  ( 25.39999999999996660, 5.349999999999999645, 0.000000000000000000 ) ) ;
#307 = VERTEX_POINT ( 'NONE', #645 ) ;
#308 = LINE ( 'NONE', #311, #509 ) ;
#309 = FACE_BOUND ( 'NONE', #317, .T. ) ;
#310 = ORIENTED_EDGE ( 'NONE', *, *, #413, .T. ) ;
#311 = CARTESIAN_POINT ( 'NONE',  ( 0.000000000000000000, 0.000000000000000000, -12.69999999999999929 ) ) ;
#312 = EDGE_CURVE ( 'NONE', #55, #149, #119, .T. ) ;
#313 = DIRECTION ( 'NONE',  ( -0.000000000000000000, 1.000000000000000000, -0.000000000000000000 ) ) ;
#314 = VERTEX_POINT ( 'NONE', #54 ) ;
#315 = DIRECTION ( 'NONE',  ( 0.000000000000000000, 1.000000000000000000, 0.000000000000000000 ) ) ;
#316 = DIRECTION ( 'NONE',  ( 0.000000000000000000, 0.000000000000000000, 1.000000000000000000 ) ) ;
#317 = EDGE_LOOP ( 'NONE', ( #536, #206 ) ) ;
#318 = LINE ( 'NONE', #485, #679 ) ;
#319 = DIRECTION ( 'NONE',  ( 0.000000000000000000, 0.000000000000000000, -1.000000000000000000 ) ) ;
#320 = ORIENTED_EDGE ( 'NONE', *, *, #303, .T. ) ;
#321 = EDGE_CURVE ( 'NONE', #403, #599, #657, .T. ) ;
#322 = DIRECTION ( 'NONE',  ( 0.000000000000000000, 0.000000000000000000, 1.000000000000000000 ) ) ;
#323 = CARTESIAN_POINT ( 'NONE',  ( 12.69999999999999751, 12.69999999999999929, 12.69999999999999929 ) ) ;
#324 = ORIENTED_EDGE ( 'NONE', *, *, #321, .F. ) ;
#325 = DIRECTION ( 'NONE',  ( -1.000000000000000000, 0.000000000000000000, -0.000000000000000000 ) ) ;
#326 = DIRECTION ( 'NONE',  ( 0.000000000000000000, 0.000000000000000000, -1.000000000000000000 ) ) ;
#327 = CIRCLE ( 'NONE', #15, 3.501199874999998851 ) ;
#328 = VERTEX_POINT ( 'NONE', #701 ) ;
#329 = DIRECTION ( 'NONE',  ( -0.000000000000000000, -1.000000000000000000, -0.000000000000000000 ) ) ;
#330 = CARTESIAN_POINT ( 'NONE',  ( -12.70000000000000107, 25.39999999999999858, 12.69999999999999929 ) ) ;
#331 = VERTEX_POINT ( 'NONE', #491 ) ;
#332 = CARTESIAN_POINT ( 'NONE',  ( 12.69999999999999574, 19.04999999999999716, 3.501199874999998851 ) ) ;
#333 = VECTOR ( 'NONE', #53, 1000.000000000000000 ) ;
#334 = EDGE_CURVE ( 'NONE', #281, #540, #547, .T. ) ;
#335 = CARTESIAN_POINT ( 'NONE',  ( -12.70000000000000107, 25.39999999999999858, -12.69999999999999929 ) ) ;
#336 = AXIS2_PLACEMENT_3D ( 'NONE', #194, #142, #620 ) ;
#337 = VERTEX_POINT ( 'NONE', #269 ) ;
#338 = VECTOR ( 'NONE', #137, 1000.000000000000000 ) ;
#339 = LINE ( 'NONE', #167, #511 ) ;
#340 = EDGE_LOOP ( 'NONE', ( #550, #699 ) ) ;
#341 = DIRECTION ( 'NONE',  ( 0.000000000000000000, 1.000000000000000000, 0.000000000000000000 ) ) ;
#342 = DIRECTION ( 'NONE',  ( 0.000000000000000000, 1.000000000000000000, 0.000000000000000000 ) ) ;
#343 = ORIENTED_EDGE ( 'NONE', *, *, #334, .T. ) ;
#344 = EDGE_CURVE ( 'NONE', #517, #529, #339, .T. ) ;
#345 = CARTESIAN_POINT ( 'NONE',  ( 25.39999999999996660, 5.349999999999999645, -5.500000000000000000 ) ) ;
#346 = DIRECTION ( 'NONE',  ( 0.000000000000000000, 0.000000000000000000, 1.000000000000000000 ) ) ;
#347 = CARTESIAN_POINT ( 'NONE',  ( -38.10000000000000853, 12.69999999999999929, 0.000000000000000000 ) ) ;
#348 = ORIENTED_EDGE ( 'NONE', *, *, #486, .F. ) ;
#349 = DIRECTION ( 'NONE',  ( 0.000000000000000000, 0.000000000000000000, 1.000000000000000000 ) ) ;
#350 = CARTESIAN_POINT ( 'NONE',  ( 38.09999999999999432, 12.69999999999999929, 12.69999999999999929 ) ) ;
#351 =( LENGTH_UNIT ( ) NAMED_UNIT ( * ) SI_UNIT ( .MILLI., .METRE. ) );
#352 = EDGE_LOOP ( 'NONE', ( #70, #125, #397, #553 ) ) ;
#353 = ADVANCED_FACE ( 'NONE', ( #172 ), #487, .F. ) ;
#354 = DIRECTION ( 'NONE',  ( 0.000000000000000000, 0.000000000000000000, 1.000000000000000000 ) ) ;
#355 = EDGE_CURVE ( 'NONE', #93, #55, #549, .T. ) ;
#356 = AXIS2_PLACEMENT_3D ( 'NONE', #162, #2, #472 ) ;
#357 = DIRECTION ( 'NONE',  ( 0.000000000000000000, 0.000000000000000000, 1.000000000000000000 ) ) ;
#358 = VECTOR ( 'NONE', #277, 1000.000000000000000 ) ;
#359 = FILL_AREA_STYLE_COLOUR ( '', #143 ) ;
#360 = EDGE_LOOP ( 'NONE', ( #14, #28, #376, #646 ) ) ;
#361 = CARTESIAN_POINT ( 'NONE',  ( -25.40000000000000924, 5.349999999999999645, 0.000000000000000000 ) ) ;
#362 = AXIS2_PLACEMENT_3D ( 'NONE', #306, #555, #354 ) ;
#363 = CARTESIAN_POINT ( 'NONE',  ( 31.00000000000000000, 19.04999999999999716, 3.501199874999998851 ) ) ;
#364 = ORIENTED_EDGE ( 'NONE', *, *, #405, .T. ) ;
#365 = EDGE_CURVE ( 'NONE', #540, #281, #241, .T. ) ;
#366 = CYLINDRICAL_SURFACE ( 'NONE', #81, 5.500000000000000000 ) ;
#367 = LINE ( 'NONE', #192, #440 ) ;
#368 = ORIENTED_EDGE ( 'NONE', *, *, #604, .F. ) ;
#369 = FACE_OUTER_BOUND ( 'NONE', #467, .T. ) ;
#370 = AXIS2_PLACEMENT_3D ( 'NONE', #609, #572, #565 ) ;
#371 = DIRECTION ( 'NONE',  ( -1.000000000000000000, -0.000000000000000000, -0.000000000000000000 ) ) ;
#372 = EDGE_LOOP ( 'NONE', ( #96, #658, #343, #238 ) ) ;
#373 = DIRECTION ( 'NONE',  ( -0.000000000000000000, -1.000000000000000000, -0.000000000000000000 ) ) ;
#374 = VECTOR ( 'NONE', #378, 1000.000000000000000 ) ;
#375 = FACE_OUTER_BOUND ( 'NONE', #568, .T. ) ;
#376 = ORIENTED_EDGE ( 'NONE', *, *, #289, .T. ) ;
#377 = CARTESIAN_POINT ( 'NONE',  ( 12.69999999999999751, 25.39999999999999858, -12.69999999999999929 ) ) ;
#378 = DIRECTION ( 'NONE',  ( -0.000000000000000000, 1.000000000000000000, -0.000000000000000000 ) ) ;
#379 = ORIENTED_EDGE ( 'NONE', *, *, #621, .F. ) ;
#380 = CARTESIAN_POINT ( 'NONE',  ( -25.40000000000000924, 12.69999999999999929, 0.000000000000000000 ) ) ;
#381 = DIRECTION ( 'NONE',  ( -0.000000000000000000, -1.000000000000000000, -0.000000000000000000 ) ) ;
#382 = ORIENTED_EDGE ( 'NONE', *, *, #177, .F. ) ;
#383 = CYLINDRICAL_SURFACE ( 'NONE', #90, 3.501199874999998851 ) ;
#384 = DIRECTION ( 'NONE',  ( 0.000000000000000000, 0.000000000000000000, 1.000000000000000000 ) ) ;
#385 = AXIS2_PLACEMENT_3D ( 'NONE', #562, #138, #453 ) ;
#386 = VERTEX_POINT ( 'NONE', #542 ) ;
#387 = EDGE_CURVE ( 'NONE', #158, #197, #648, .T. ) ;
#388 = CARTESIAN_POINT ( 'NONE',  ( 25.39999999999996660, 0.000000000000000000, 3.501199874999998851 ) ) ;
#389 = ORIENTED_EDGE ( 'NONE', *, *, #355, .F. ) ;
#390 = LINE ( 'NONE', #335, #494 ) ;
#391 = AXIS2_PLACEMENT_3D ( 'NONE', #361, #463, #13 ) ;
#392 = ORIENTED_EDGE ( 'NONE', *, *, #126, .F. ) ;
#393 =( NAMED_UNIT ( * ) PLANE_ANGLE_UNIT ( ) SI_UNIT ( $, .RADIAN. ) );
#394 = AXIS2_PLACEMENT_3D ( 'NONE', #435, #589, #384 ) ;
#395 = FACE_BOUND ( 'NONE', #582, .T. ) ;
#396 = ADVANCED_FACE ( 'NONE', ( #496 ), #500, .F. ) ;
#397 = ORIENTED_EDGE ( 'NONE', *, *, #505, .T. ) ;
#398 = CIRCLE ( 'NONE', #385, 3.501199874999998851 ) ;
#399 = CARTESIAN_POINT ( 'NONE',  ( -12.70000000000000107, 25.39999999999999858, -12.69999999999999929 ) ) ;
#400 = CYLINDRICAL_SURFACE ( 'NONE', #109, 3.501199875000000183 ) ;
#401 = ORIENTED_EDGE ( 'NONE', *, *, #126, .T. ) ;
#402 = CARTESIAN_POINT ( 'NONE',  ( -38.10000000000000853, 0.000000000000000000, 12.69999999999999929 ) ) ;
#403 = VERTEX_POINT ( 'NONE', #250 ) ;
#404 = AXIS2_PLACEMENT_3D ( 'NONE', #164, #570, #316 ) ;
#405 = EDGE_CURVE ( 'NONE', #243, #421, #408, .T. ) ;
#406 = DIRECTION ( 'NONE',  ( -0.000000000000000000, -1.000000000000000000, -0.000000000000000000 ) ) ;
#407 = ORIENTED_EDGE ( 'NONE', *, *, #405, .F. ) ;
#408 = LINE ( 'NONE', #83, #338 ) ;
#409 = DIRECTION ( 'NONE',  ( 0.000000000000000000, 0.000000000000000000, 1.000000000000000000 ) ) ;
#410 = ORIENTED_EDGE ( 'NONE', *, *, #282, .F. ) ;
#411 = FACE_BOUND ( 'NONE', #532, .T. ) ;
#412 = DIRECTION ( 'NONE',  ( 0.000000000000000000, -0.000000000000000000, -1.000000000000000000 ) ) ;
#413 = EDGE_CURVE ( 'NONE', #74, #307, #247, .T. ) ;
#414 = CARTESIAN_POINT ( 'NONE',  ( -25.40000000000000924, 5.349999999999999645, 0.000000000000000000 ) ) ;
#415 = VECTOR ( 'NONE', #461, 1000.000000000000000 ) ;
#416 = DIRECTION ( 'NONE',  ( 1.000000000000000000, -0.000000000000000000, 0.000000000000000000 ) ) ;
#417 = VERTEX_POINT ( 'NONE', #198 ) ;
#418 = FACE_OUTER_BOUND ( 'NONE', #352, .T. ) ;
#419 = CARTESIAN_POINT ( 'NONE',  ( -25.40000000000000924, 0.000000000000000000, -3.501199874999998851 ) ) ;
#420 = AXIS2_PLACEMENT_3D ( 'NONE', #596, #9, #123 ) ;
#421 = VERTEX_POINT ( 'NONE', #522 ) ;
#422 = CARTESIAN_POINT ( 'NONE',  ( 12.69999999999999751, 25.39999999999999858, 12.69999999999999929 ) ) ;
#423 = AXIS2_PLACEMENT_3D ( 'NONE', #414, #87, #357 ) ;
#424 = FACE_BOUND ( 'NONE', #585, .T. ) ;
#425 = CIRCLE ( 'NONE', #479, 3.501199875000000183 ) ;
#426 = EDGE_LOOP ( 'NONE', ( #320, #595 ) ) ;
#427 = LINE ( 'NONE', #56, #80 ) ;
#428 = FACE_OUTER_BOUND ( 'NONE', #8, .T. ) ;
#429 = VERTEX_POINT ( 'NONE', #304 ) ;
#430 = CARTESIAN_POINT ( 'NONE',  ( 25.39999999999996660, 0.000000000000000000, -3.501199874999998851 ) ) ;
#431 = LINE ( 'NONE', #439, #358 ) ;
#432 = ORIENTED_EDGE ( 'NONE', *, *, #25, .T. ) ;
#433 = LINE ( 'NONE', #40, #489 ) ;
#434 = CIRCLE ( 'NONE', #217, 5.500000000000000000 ) ;
#435 = CARTESIAN_POINT ( 'NONE',  ( 25.39999999999996660, 0.000000000000000000, 0.000000000000000000 ) ) ;
#436 = VERTEX_POINT ( 'NONE', #71 ) ;
#437 = EDGE_CURVE ( 'NONE', #619, #243, #290, .T. ) ;
#438 = FACE_OUTER_BOUND ( 'NONE', #185, .T. ) ;
#439 = CARTESIAN_POINT ( 'NONE',  ( 25.39999999999996660, 12.69999999999999929, -3.501199874999998851 ) ) ;
#440 = VECTOR ( 'NONE', #416, 1000.000000000000000 ) ;
#441 = EDGE_LOOP ( 'NONE', ( #168, #401, #310, #447 ) ) ;
#442 = APPLICATION_PROTOCOL_DEFINITION ( 'draft international standard', 'automotive_design', 1998, #594 ) ;
#443 = DIRECTION ( 'NONE',  ( 0.000000000000000000, 0.000000000000000000, 1.000000000000000000 ) ) ;
#444 = VERTEX_POINT ( 'NONE', #515 ) ;
#445 = ADVANCED_FACE ( 'NONE', ( #411, #552 ), #29, .F. ) ;
#446 = DIRECTION ( 'NONE',  ( 0.000000000000000000, 0.000000000000000000, 1.000000000000000000 ) ) ;
#447 = ORIENTED_EDGE ( 'NONE', *, *, #155, .F. ) ;
#448 = CARTESIAN_POINT ( 'NONE',  ( 25.39999999999996660, 12.69999999999999929, 0.000000000000000000 ) ) ;
#449 = CIRCLE ( 'NONE', #207, 3.501199874999998851 ) ;
#450 = CARTESIAN_POINT ( 'NONE',  ( 31.00000000000000000, 19.04999999999999716, -1.734723475976807094E-15 ) ) ;
#451 = FILL_AREA_STYLE ('',( #359 ) ) ;
#452 = AXIS2_PLACEMENT_3D ( 'NONE', #512, #128, #297 ) ;
#453 = DIRECTION ( 'NONE',  ( 0.000000000000000000, 0.000000000000000000, 1.000000000000000000 ) ) ;
#454 = ORIENTED_EDGE ( 'NONE', *, *, #268, .F. ) ;
#455 =( NAMED_UNIT ( * ) PLANE_ANGLE_UNIT ( ) SI_UNIT ( $, .RADIAN. ) );
#456 = VECTOR ( 'NONE', #286, 1000.000000000000000 ) ;
#457 = UNCERTAINTY_MEASURE_WITH_UNIT (LENGTH_MEASURE( 1.000000000000000082E-05 ), #288, 'distance_accuracy_value', 'NONE');
#458 = EDGE_CURVE ( 'NONE', #507, #93, #635, .T. ) ;
#459 = EDGE_CURVE ( 'NONE', #436, #417, #117, .T. ) ;
#460 = DIRECTION ( 'NONE',  ( -0.000000000000000000, -1.000000000000000000, -0.000000000000000000 ) ) ;
#461 = DIRECTION ( 'NONE',  ( -0.000000000000000000, -0.000000000000000000, 1.000000000000000000 ) ) ;
#462 = ORIENTED_EDGE ( 'NONE', *, *, #538, .T. ) ;
#463 = DIRECTION ( 'NONE',  ( 0.000000000000000000, 1.000000000000000000, 0.000000000000000000 ) ) ;
#464 = DIRECTION ( 'NONE',  ( 1.000000000000000000, -0.000000000000000000, 0.000000000000000000 ) ) ;
#465 = CARTESIAN_POINT ( 'NONE',  ( -12.70000000000000107, 19.04999999999999716, -1.734723475976807094E-15 ) ) ;
#466 = DIRECTION ( 'NONE',  ( 0.000000000000000000, 0.000000000000000000, 1.000000000000000000 ) ) ;
#467 = EDGE_LOOP ( 'NONE', ( #389, #214, #1, #495 ) ) ;
#468 = CARTESIAN_POINT ( 'NONE',  ( 38.09999999999999432, 12.69999999999999929, 0.000000000000000000 ) ) ;
#469 = PRESENTATION_LAYER_ASSIGNMENT (  '', '', ( #223 ) ) ;
#470 = FACE_OUTER_BOUND ( 'NONE', #484, .T. ) ;
#471 = ORIENTED_EDGE ( 'NONE', *, *, #77, .F. ) ;
#472 = DIRECTION ( 'NONE',  ( 0.000000000000000000, 0.000000000000000000, 1.000000000000000000 ) ) ;
#473 = CARTESIAN_POINT ( 'NONE',  ( 25.39999999999996660, 5.349999999999999645, 0.000000000000000000 ) ) ;
#474 = ORIENTED_EDGE ( 'NONE', *, *, #268, .T. ) ;
#475 = ADVANCED_FACE ( 'NONE', ( #26 ), #32, .F. ) ;
#476 = DIRECTION ( 'NONE',  ( 0.000000000000000000, 0.000000000000000000, 1.000000000000000000 ) ) ;
#477 = ADVANCED_FACE ( 'NONE', ( #244 ), #678, .F. ) ;
#478 = CARTESIAN_POINT ( 'NONE',  ( -25.40000000000000924, 5.349999999999999645, 5.500000000000000000 ) ) ;
#479 = AXIS2_PLACEMENT_3D ( 'NONE', #593, #225, #107 ) ;
#480 = ORIENTED_EDGE ( 'NONE', *, *, #675, .F. ) ;
#481 = CARTESIAN_POINT ( 'NONE',  ( -25.40000000000000924, 12.69999999999999929, -3.501199874999998851 ) ) ;
#482 = VECTOR ( 'NONE', #371, 1000.000000000000000 ) ;
#483 = CARTESIAN_POINT ( 'NONE',  ( -12.70000000000000107, 25.39999999999999858, 12.69999999999999929 ) ) ;
#484 = EDGE_LOOP ( 'NONE', ( #348, #407, #252, #497, #257, #462, #231, #630 ) ) ;
#485 = CARTESIAN_POINT ( 'NONE',  ( -12.70000000000000107, 25.39999999999999858, 12.69999999999999929 ) ) ;
#486 = EDGE_CURVE ( 'NONE', #421, #429, #308, .T. ) ;
#487 = CYLINDRICAL_SURFACE ( 'NONE', #299, 3.501199874999998851 ) ;
#488 = EDGE_LOOP ( 'NONE', ( #116, #501 ) ) ;
#489 = VECTOR ( 'NONE', #588, 1000.000000000000000 ) ;
#490 = DIRECTION ( 'NONE',  ( 0.000000000000000000, 0.000000000000000000, -1.000000000000000000 ) ) ;
#491 = CARTESIAN_POINT ( 'NONE',  ( 12.69999999999999574, 19.04999999999999716, -3.501199875000001960 ) ) ;
#492 = VERTEX_POINT ( 'NONE', #632 ) ;
#493 = DIRECTION ( 'NONE',  ( -0.000000000000000000, -1.000000000000000000, 0.000000000000000000 ) ) ;
#494 = VECTOR ( 'NONE', #598, 1000.000000000000000 ) ;
#495 = ORIENTED_EDGE ( 'NONE', *, *, #312, .F. ) ;
#496 = FACE_OUTER_BOUND ( 'NONE', #571, .T. ) ;
#497 = ORIENTED_EDGE ( 'NONE', *, *, #248, .F. ) ;
#498 = EDGE_CURVE ( 'NONE', #105, #281, #188, .T. ) ;
#499 = CIRCLE ( 'NONE', #356, 5.500000000000000000 ) ;
#500 = PLANE ( 'NONE',  #535 ) ;
#501 = ORIENTED_EDGE ( 'NONE', *, *, #576, .F. ) ;
#502 = CARTESIAN_POINT ( 'NONE',  ( -38.10000000000000853, 12.69999999999999929, 0.000000000000000000 ) ) ;
#503 = DIRECTION ( 'NONE',  ( 0.000000000000000000, 0.000000000000000000, 1.000000000000000000 ) ) ;
#504 =( GEOMETRIC_REPRESENTATION_CONTEXT ( 3 ) GLOBAL_UNCERTAINTY_ASSIGNED_CONTEXT ( ( #616 ) ) GLOBAL_UNIT_ASSIGNED_CONTEXT ( ( #351, #455, #618 ) ) REPRESENTATION_CONTEXT ( 'NONE', 'WORKASPACE' ) );
#505 = EDGE_CURVE ( 'NONE', #337, #24, #204, .T. ) ;
#506 = CARTESIAN_POINT ( 'NONE',  ( 38.09999999999999432, 12.69999999999999929, -12.69999999999999929 ) ) ;
#507 = VERTEX_POINT ( 'NONE', #674 ) ;
#508 = DIRECTION ( 'NONE',  ( -1.000000000000000000, 0.000000000000000000, 0.000000000000000000 ) ) ;
#509 = VECTOR ( 'NONE', #624, 1000.000000000000000 ) ;
#510 = ORIENTED_EDGE ( 'NONE', *, *, #227, .T. ) ;
#511 = VECTOR ( 'NONE', #7, 1000.000000000000000 ) ;
#512 = CARTESIAN_POINT ( 'NONE',  ( -25.40000000000000924, 5.349999999999999645, 0.000000000000000000 ) ) ;
#513 = ORIENTED_EDGE ( 'NONE', *, *, #102, .F. ) ;
#514 = ADVANCED_FACE ( 'NONE', ( #69 ), #366, .F. ) ;
#515 = CARTESIAN_POINT ( 'NONE',  ( 25.39999999999996660, 12.69999999999999929, -5.500000000000000000 ) ) ;
#516 = PRESENTATION_STYLE_ASSIGNMENT (( #85 ) ) ;
#517 = VERTEX_POINT ( 'NONE', #686 ) ;
#518 = CARTESIAN_POINT ( 'NONE',  ( 25.39999999999996660, 12.69999999999999929, 3.501199874999998851 ) ) ;
#519 = CARTESIAN_POINT ( 'NONE',  ( 25.39999999999996660, 5.349999999999999645, 0.000000000000000000 ) ) ;
#520 = ORIENTED_EDGE ( 'NONE', *, *, #437, .T. ) ;
#521 = AXIS2_PLACEMENT_3D ( 'NONE', #118, #600, #349 ) ;
#522 = CARTESIAN_POINT ( 'NONE',  ( -38.10000000000000853, 0.000000000000000000, -12.69999999999999929 ) ) ;
#523 = CYLINDRICAL_SURFACE ( 'NONE', #179, 3.501199874999998851 ) ;
#524 = ORIENTED_EDGE ( 'NONE', *, *, #413, .F. ) ;
#525 = DIRECTION ( 'NONE',  ( -0.000000000000000000, -0.000000000000000000, 1.000000000000000000 ) ) ;
#526 = AXIS2_PLACEMENT_3D ( 'NONE', #625, #638, #104 ) ;
#527 = CARTESIAN_POINT ( 'NONE',  ( -12.70000000000000107, 12.69999999999999929, 12.69999999999999929 ) ) ;
#528 = ADVANCED_FACE ( 'NONE', ( #418 ), #151, .F. ) ;
#529 = VERTEX_POINT ( 'NONE', #399 ) ;
#530 = CARTESIAN_POINT ( 'NONE',  ( 25.39999999999996660, 12.69999999999999929, 5.500000000000000000 ) ) ;
#531 = DIRECTION ( 'NONE',  ( -1.000000000000000000, -0.000000000000000000, -0.000000000000000000 ) ) ;
#532 = EDGE_LOOP ( 'NONE', ( #510, #543 ) ) ;
#533 = LINE ( 'NONE', #94, #61 ) ;
#534 = CARTESIAN_POINT ( 'NONE',  ( 0.000000000000000000, 12.69999999999999929, -12.69999999999999929 ) ) ;
#535 = AXIS2_PLACEMENT_3D ( 'NONE', #569, #253, #554 ) ;
#536 = ORIENTED_EDGE ( 'NONE', *, *, #47, .T. ) ;
#537 = DIRECTION ( 'NONE',  ( 0.000000000000000000, 0.000000000000000000, 1.000000000000000000 ) ) ;
#538 = EDGE_CURVE ( 'NONE', #517, #235, #275, .T. ) ;
#539 = CARTESIAN_POINT ( 'NONE',  ( -38.10000000000000853, 12.69999999999999929, 12.69999999999999929 ) ) ;
#540 = VERTEX_POINT ( 'NONE', #430 ) ;
#541 = DIRECTION ( 'NONE',  ( 0.000000000000000000, 1.000000000000000000, 0.000000000000000000 ) ) ;
#542 = CARTESIAN_POINT ( 'NONE',  ( 12.69999999999999751, 25.39999999999999858, 12.69999999999999929 ) ) ;
#543 = ORIENTED_EDGE ( 'NONE', *, *, #611, .T. ) ;
#544 = AXIS2_PLACEMENT_3D ( 'NONE', #628, #460, #191 ) ;
#545 = DIRECTION ( 'NONE',  ( 1.000000000000000000, -0.000000000000000000, 0.000000000000000000 ) ) ;
#546 = EDGE_LOOP ( 'NONE', ( #287, #31, #392, #17, #368, #613, #240, #474 ) ) ;
#547 = CIRCLE ( 'NONE', #50, 3.501199874999998851 ) ;
#548 = DIRECTION ( 'NONE',  ( 1.000000000000000000, 0.000000000000000000, 0.000000000000000000 ) ) ;
#549 = LINE ( 'NONE', #284, #694 ) ;
#550 = ORIENTED_EDGE ( 'NONE', *, *, #459, .T. ) ;
#551 = EDGE_CURVE ( 'NONE', #328, #429, #533, .T. ) ;
#552 = FACE_OUTER_BOUND ( 'NONE', #649, .T. ) ;
#553 = ORIENTED_EDGE ( 'NONE', *, *, #201, .F. ) ;
#554 = DIRECTION ( 'NONE',  ( 0.000000000000000000, 0.000000000000000000, 1.000000000000000000 ) ) ;
#555 = DIRECTION ( 'NONE',  ( -0.000000000000000000, 1.000000000000000000, -0.000000000000000000 ) ) ;
#556 = VERTEX_POINT ( 'NONE', #640 ) ;
#557 = PRODUCT_CONTEXT ( 'NONE', #559, 'mechanical' ) ;
#558 = EDGE_CURVE ( 'NONE', #691, #403, #263, .T. ) ;
#559 = APPLICATION_CONTEXT ( 'automotive_design' ) ;
#560 = DIRECTION ( 'NONE',  ( 0.000000000000000000, 0.000000000000000000, -1.000000000000000000 ) ) ;
#561 = EDGE_LOOP ( 'NONE', ( #379, #218, #141, #171 ) ) ;
#562 = CARTESIAN_POINT ( 'NONE',  ( 25.39999999999996660, 5.349999999999999645, 0.000000000000000000 ) ) ;
#563 = EDGE_CURVE ( 'NONE', #93, #507, #669, .T. ) ;
#564 = VECTOR ( 'NONE', #373, 1000.000000000000000 ) ;
#565 = DIRECTION ( 'NONE',  ( 0.000000000000000000, 0.000000000000000000, 1.000000000000000000 ) ) ;
#566 = VECTOR ( 'NONE', #273, 1000.000000000000000 ) ;
#567 = CYLINDRICAL_SURFACE ( 'NONE', #362, 5.500000000000000000 ) ;
#568 = EDGE_LOOP ( 'NONE', ( #668, #265, #677, #292 ) ) ;
#569 = CARTESIAN_POINT ( 'NONE',  ( 38.09999999999999432, 12.69999999999999929, 0.000000000000000000 ) ) ;
#570 = DIRECTION ( 'NONE',  ( -1.000000000000000000, 0.000000000000000000, 0.000000000000000000 ) ) ;
#571 = EDGE_LOOP ( 'NONE', ( #221, #66, #524, #432 ) ) ;
#572 = DIRECTION ( 'NONE',  ( -0.000000000000000000, 1.000000000000000000, -0.000000000000000000 ) ) ;
#573 = DIRECTION ( 'NONE',  ( -0.000000000000000000, 1.000000000000000000, -0.000000000000000000 ) ) ;
#574 = ORIENTED_EDGE ( 'NONE', *, *, #201, .T. ) ;
#575 = DIRECTION ( 'NONE',  ( -0.000000000000000000, -1.000000000000000000, -0.000000000000000000 ) ) ;
#576 = EDGE_CURVE ( 'NONE', #444, #599, #499, .T. ) ;
#577 = ADVANCED_FACE ( 'NONE', ( #438, #644, #208 ), #583, .F. ) ;
#578 = FACE_OUTER_BOUND ( 'NONE', #89, .T. ) ;
#579 = ORIENTED_EDGE ( 'NONE', *, *, #558, .F. ) ;
#580 = LINE ( 'NONE', #481, #45 ) ;
#581 = CARTESIAN_POINT ( 'NONE',  ( 0.000000000000000000, 12.69999999999999929, 12.69999999999999929 ) ) ;
#582 = EDGE_LOOP ( 'NONE', ( #410, #38 ) ) ;
#583 = PLANE ( 'NONE',  #262 ) ;
#584 = PLANE ( 'NONE',  #664 ) ;
#585 = EDGE_LOOP ( 'NONE', ( #4, #480 ) ) ;
#586 = EDGE_CURVE ( 'NONE', #507, #149, #580, .T. ) ;
#587 = CIRCLE ( 'NONE', #230, 5.500000000000000000 ) ;
#588 = DIRECTION ( 'NONE',  ( 1.000000000000000000, -0.000000000000000000, 0.000000000000000000 ) ) ;
#589 = DIRECTION ( 'NONE',  ( -0.000000000000000000, -1.000000000000000000, 0.000000000000000000 ) ) ;
#590 = VERTEX_POINT ( 'NONE', #258 ) ;
#591 = DIRECTION ( 'NONE',  ( 0.000000000000000000, 1.000000000000000000, -0.000000000000000000 ) ) ;
#592 = CIRCLE ( 'NONE', #294, 5.500000000000000000 ) ;
#593 = CARTESIAN_POINT ( 'NONE',  ( -12.70000000000000107, 19.04999999999999716, -1.734723475976807094E-15 ) ) ;
#594 = APPLICATION_CONTEXT ( 'automotive_design' ) ;
#595 = ORIENTED_EDGE ( 'NONE', *, *, #312, .T. ) ;
#596 = CARTESIAN_POINT ( 'NONE',  ( -25.40000000000000924, 12.69999999999999929, 0.000000000000000000 ) ) ;
#597 = ADVANCED_BREP_SHAPE_REPRESENTATION ( 'T-Slot Mount (0.5mm smaller holes)', ( #19, #617 ), #654 ) ;
#598 = DIRECTION ( 'NONE',  ( -0.000000000000000000, -1.000000000000000000, -0.000000000000000000 ) ) ;
#599 = VERTEX_POINT ( 'NONE', #530 ) ;
#600 = DIRECTION ( 'NONE',  ( -0.000000000000000000, 1.000000000000000000, -0.000000000000000000 ) ) ;
#601 = AXIS2_PLACEMENT_3D ( 'NONE', #465, #146, #346 ) ;
#602 = EDGE_CURVE ( 'NONE', #529, #158, #318, .T. ) ;
#603 = LINE ( 'NONE', #115, #663 ) ;
#604 = EDGE_CURVE ( 'NONE', #158, #386, #427, .T. ) ;
#605 = ORIENTED_EDGE ( 'NONE', *, *, #102, .T. ) ;
#606 = VECTOR ( 'NONE', #319, 1000.000000000000000 ) ;
#607 = CARTESIAN_POINT ( 'NONE',  ( 25.39999999999996660, 12.69999999999999929, 0.000000000000000000 ) ) ;
#608 = ORIENTED_EDGE ( 'NONE', *, *, #321, .T. ) ;
#609 = CARTESIAN_POINT ( 'NONE',  ( 25.39999999999996660, 5.349999999999999645, 0.000000000000000000 ) ) ;
#610 = CARTESIAN_POINT ( 'NONE',  ( -25.40000000000000924, 0.000000000000000000, 3.501199874999998851 ) ) ;
#611 = EDGE_CURVE ( 'NONE', #331, #696, #136, .T. ) ;
#612 = FACE_OUTER_BOUND ( 'NONE', #340, .T. ) ;
#613 = ORIENTED_EDGE ( 'NONE', *, *, #387, .T. ) ;
#614 = PLANE ( 'NONE',  #39 ) ;
#615 = VECTOR ( 'NONE', #313, 1000.000000000000000 ) ;
#616 = UNCERTAINTY_MEASURE_WITH_UNIT (LENGTH_MEASURE( 1.000000000000000082E-05 ), #351, 'distance_accuracy_value', 'NONE');
#617 = AXIS2_PLACEMENT_3D ( 'NONE', #129, #232, #548 ) ;
#618 =( NAMED_UNIT ( * ) SI_UNIT ( $, .STERADIAN. ) SOLID_ANGLE_UNIT ( ) );
#619 = VERTEX_POINT ( 'NONE', #215 ) ;
#620 = DIRECTION ( 'NONE',  ( 0.000000000000000000, 0.000000000000000000, 1.000000000000000000 ) ) ;
#621 = EDGE_CURVE ( 'NONE', #417, #436, #587, .T. ) ;
#622 = SURFACE_STYLE_FILL_AREA ( #451 ) ;
#623 = ADVANCED_FACE ( 'NONE', ( #369 ), #383, .F. ) ;
#624 = DIRECTION ( 'NONE',  ( 1.000000000000000000, -0.000000000000000000, 0.000000000000000000 ) ) ;
#625 = CARTESIAN_POINT ( 'NONE',  ( 0.000000000000000000, 12.69999999999999929, 0.000000000000000000 ) ) ;
#626 = ORIENTED_EDGE ( 'NONE', *, *, #576, .T. ) ;
#627 = VECTOR ( 'NONE', #671, 1000.000000000000000 ) ;
#628 = CARTESIAN_POINT ( 'NONE',  ( 25.39999999999996660, 12.69999999999999929, 0.000000000000000000 ) ) ;
#629 = LINE ( 'NONE', #323, #606 ) ;
#630 = ORIENTED_EDGE ( 'NONE', *, *, #5, .T. ) ;
#631 = EDGE_CURVE ( 'NONE', #243, #314, #433, .T. ) ;
#632 = CARTESIAN_POINT ( 'NONE',  ( 12.69999999999999751, 12.69999999999999929, 12.69999999999999929 ) ) ;
#633 = CARTESIAN_POINT ( 'NONE',  ( -25.40000000000000924, 12.69999999999999929, 0.000000000000000000 ) ) ;
#634 = EDGE_LOOP ( 'NONE', ( #153, #274, #193, #688 ) ) ;
#635 = CIRCLE ( 'NONE', #391, 3.501199874999998851 ) ;
#636 = DIRECTION ( 'NONE',  ( 0.000000000000000000, 0.000000000000000000, 1.000000000000000000 ) ) ;
#637 = VECTOR ( 'NONE', #220, 1000.000000000000000 ) ;
#638 = DIRECTION ( 'NONE',  ( 0.000000000000000000, 1.000000000000000000, -0.000000000000000000 ) ) ;
#639 = ORIENTED_EDGE ( 'NONE', *, *, #100, .F. ) ;
#640 = CARTESIAN_POINT ( 'NONE',  ( -25.40000000000000924, 12.69999999999999929, 5.500000000000000000 ) ) ;
#641 = ADVANCED_FACE ( 'NONE', ( #689 ), #202, .F. ) ;
#642 = DIRECTION ( 'NONE',  ( 0.000000000000000000, 1.000000000000000000, 0.000000000000000000 ) ) ;
#643 = ORIENTED_EDGE ( 'NONE', *, *, #458, .F. ) ;
#644 = FACE_BOUND ( 'NONE', #426, .T. ) ;
#645 = CARTESIAN_POINT ( 'NONE',  ( 38.09999999999999432, 12.69999999999999929, -12.69999999999999929 ) ) ;
#646 = ORIENTED_EDGE ( 'NONE', *, *, #365, .T. ) ;
#647 = CARTESIAN_POINT ( 'NONE',  ( 0.000000000000000000, 12.69999999999999929, 0.000000000000000000 ) ) ;
#648 = LINE ( 'NONE', #330, #140 ) ;
#649 = EDGE_LOOP ( 'NONE', ( #673, #130, #260, #187 ) ) ;
#650 = CARTESIAN_POINT ( 'NONE',  ( 0.000000000000000000, 0.000000000000000000, 0.000000000000000000 ) ) ;
#651 = VECTOR ( 'NONE', #573, 1000.000000000000000 ) ;
#652 = PLANE ( 'NONE',  #175 ) ;
#653 = ORIENTED_EDGE ( 'NONE', *, *, #459, .F. ) ;
#654 =( GEOMETRIC_REPRESENTATION_CONTEXT ( 3 ) GLOBAL_UNCERTAINTY_ASSIGNED_CONTEXT ( ( #457 ) ) GLOBAL_UNIT_ASSIGNED_CONTEXT ( ( #288, #393, #62 ) ) REPRESENTATION_CONTEXT ( 'NONE', 'WORKASPACE' ) );
#655 = SHAPE_DEFINITION_REPRESENTATION ( #181, #597 ) ;
#656 = EDGE_CURVE ( 'NONE', #386, #517, #261, .T. ) ;
#657 = LINE ( 'NONE', #10, #566 ) ;
#658 = ORIENTED_EDGE ( 'NONE', *, *, #498, .T. ) ;
#659 = AXIS2_PLACEMENT_3D ( 'NONE', #98, #541, #476 ) ;
#660 = AXIS2_PLACEMENT_3D ( 'NONE', #692, #315, #219 ) ;
#661 = DIRECTION ( 'NONE',  ( 0.000000000000000000, 1.000000000000000000, -0.000000000000000000 ) ) ;
#662 = EDGE_LOOP ( 'NONE', ( #639, #653, #76, #178 ) ) ;
#663 = VECTOR ( 'NONE', #545, 1000.000000000000000 ) ;
#664 = AXIS2_PLACEMENT_3D ( 'NONE', #196, #682, #412 ) ;
#665 = DIRECTION ( 'NONE',  ( -1.000000000000000000, -0.000000000000000000, -0.000000000000000000 ) ) ;
#666 = ADVANCED_FACE ( 'NONE', ( #272, #110 ), #700, .T. ) ;
#667 = DIRECTION ( 'NONE',  ( 0.000000000000000000, 0.000000000000000000, 1.000000000000000000 ) ) ;
#668 = ORIENTED_EDGE ( 'NONE', *, *, #656, .T. ) ;
#669 = CIRCLE ( 'NONE', #659, 3.501199874999998851 ) ;
#670 = CARTESIAN_POINT ( 'NONE',  ( 38.09999999999999432, 12.69999999999999929, 12.69999999999999929 ) ) ;
#671 = DIRECTION ( 'NONE',  ( -0.000000000000000000, -1.000000000000000000, -0.000000000000000000 ) ) ;
#672 = VECTOR ( 'NONE', #464, 1000.000000000000000 ) ;
#673 = ORIENTED_EDGE ( 'NONE', *, *, #183, .T. ) ;
#674 = CARTESIAN_POINT ( 'NONE',  ( -25.40000000000000924, 5.349999999999999645, -3.501199874999998851 ) ) ;
#675 = EDGE_CURVE ( 'NONE', #590, #556, #150, .T. ) ;
#676 = PRODUCT_RELATED_PRODUCT_CATEGORY ( 'part', '', ( #72 ) ) ;
#677 = ORIENTED_EDGE ( 'NONE', *, *, #602, .T. ) ;
#678 = CYLINDRICAL_SURFACE ( 'NONE', #544, 3.501199874999998851 ) ;
#679 = VECTOR ( 'NONE', #525, 1000.000000000000000 ) ;
#680 = PLANE ( 'NONE',  #526 ) ;
#681 = DIRECTION ( 'NONE',  ( 0.000000000000000000, 0.000000000000000000, -1.000000000000000000 ) ) ;
#682 = DIRECTION ( 'NONE',  ( 0.000000000000000000, -1.000000000000000000, 0.000000000000000000 ) ) ;
#683 = ADVANCED_FACE ( 'NONE', ( #293 ), #68, .F. ) ;
#684 = ORIENTED_EDGE ( 'NONE', *, *, #693, .T. ) ;
#685 = VECTOR ( 'NONE', #239, 1000.000000000000000 ) ;
#686 = CARTESIAN_POINT ( 'NONE',  ( 12.69999999999999751, 25.39999999999999858, -12.69999999999999929 ) ) ;
#687 = DIRECTION ( 'NONE',  ( -0.000000000000000000, -1.000000000000000000, -0.000000000000000000 ) ) ;
#688 = ORIENTED_EDGE ( 'NONE', *, *, #248, .T. ) ;
#689 = FACE_OUTER_BOUND ( 'NONE', #546, .T. ) ;
#690 = LINE ( 'NONE', #249, #482 ) ;
#691 = VERTEX_POINT ( 'NONE', #345 ) ;
#692 = CARTESIAN_POINT ( 'NONE',  ( 25.39999999999996660, 5.349999999999999645, 0.000000000000000000 ) ) ;
#693 = EDGE_CURVE ( 'NONE', #599, #444, #434, .T. ) ;
#694 = VECTOR ( 'NONE', #381, 1000.000000000000000 ) ;
#695 = DIRECTION ( 'NONE',  ( 0.000000000000000000, 0.000000000000000000, -1.000000000000000000 ) ) ;
#696 = VERTEX_POINT ( 'NONE', #332 ) ;
#697 = CARTESIAN_POINT ( 'NONE',  ( 12.69999999999999574, 19.04999999999999716, -1.734723475976807094E-15 ) ) ;
#698 = DIRECTION ( 'NONE',  ( 1.000000000000000000, -0.000000000000000000, 0.000000000000000000 ) ) ;
#699 = ORIENTED_EDGE ( 'NONE', *, *, #621, .T. ) ;
#700 = PLANE ( 'NONE',  #58 ) ;
#701 = CARTESIAN_POINT ( 'NONE',  ( 38.09999999999999432, 0.000000000000000000, 12.69999999999999929 ) ) ;
ENDSEC;
END-ISO-10303-21;
